<svg width="35" height="42" viewBox="0 0 35 42" fill="none" xmlns="http://www.w3.org/2000/svg">
<path d="M31.2617 22.2305C30.7817 22.2305 30.3228 22.3226 29.9017 22.49C29.4743 20.9241 28.0394 19.7695 26.3398 19.7695C25.9085 19.7695 25.4945 19.8444 25.1094 19.981V3.69141C25.1094 1.65596 23.4534 0 21.418 0H4.19141C2.15596 0 0.5 1.65596 0.5 3.69141V35.8477C0.5 37.8831 2.15596 39.5391 4.19141 39.5391H9.63344C9.81366 39.9655 10.0069 40.3863 10.2139 40.8002L10.4737 41.3198C10.682 41.7367 11.1081 42 11.5742 42H31.2617C31.7278 42 32.1538 41.7367 32.3622 41.3198L32.6221 40.8001C34.1471 37.7503 34.9531 34.3357 34.9531 30.9258V25.9219C34.9531 23.8864 33.2972 22.2305 31.2617 22.2305ZM2.96094 3.69141C2.96094 3.01293 3.51293 2.46094 4.19141 2.46094H21.418C22.0964 2.46094 22.6484 3.01293 22.6484 3.69141V4.92188H2.96094V3.69141ZM4.19141 37.0781C3.51293 37.0781 2.96094 36.5261 2.96094 35.8477V34.6172H8.19683C8.33817 35.4473 8.52659 36.2694 8.76079 37.0781H4.19141ZM7.88281 28.3828V30.9258C7.88281 31.3361 7.89479 31.7464 7.918 32.1562H2.96094V7.38281H22.6484V17.5198C22.2634 17.3832 21.8493 17.3086 21.418 17.3086C20.9867 17.3086 20.5725 17.3829 20.1875 17.5194V13.5352C20.1875 11.4997 18.5315 9.84375 16.4961 9.84375C14.4607 9.84375 12.8047 11.4997 12.8047 13.5352V22.3541C9.99996 22.9258 7.88281 25.4118 7.88281 28.3828ZM32.4922 30.9258C32.4922 33.896 31.8039 36.8701 30.5003 39.5391H12.3356C11.0321 36.87 10.3438 33.896 10.3438 30.9258V28.3828C10.3438 26.7786 11.3723 25.4101 12.8047 24.9022V30.9258C12.8047 31.6053 13.3556 32.1562 14.0352 32.1562C14.7147 32.1562 15.2656 31.6053 15.2656 30.9258V13.5352C15.2656 12.8567 15.8176 12.3047 16.4961 12.3047C17.1746 12.3047 17.7266 12.8567 17.7266 13.5352V25.9219C17.7266 26.6014 18.2775 27.1523 18.957 27.1523C19.6366 27.1523 20.1875 26.6014 20.1875 25.9219V21C20.1875 20.3215 20.7395 19.7695 21.418 19.7695C22.0964 19.7695 22.6484 20.3215 22.6484 21V25.9219C22.6484 26.6014 23.1994 27.1523 23.8789 27.1523C24.5585 27.1523 25.1094 26.6014 25.1094 25.9219V23.4609C25.1094 22.7825 25.6614 22.2305 26.3398 22.2305C27.0183 22.2305 27.5703 22.7825 27.5703 23.4609V28.3828C27.5703 29.0624 28.1212 29.6133 28.8008 29.6133C29.4803 29.6133 30.0312 29.0624 30.0312 28.3828V25.9219C30.0312 25.2434 30.5832 24.6914 31.2617 24.6914C31.9402 24.6914 32.4922 25.2434 32.4922 25.9219V30.9258Z" fill="#FFF"/>
</svg>
