<svg width="57" height="56" viewBox="0 0 57 56" fill="none" xmlns="http://www.w3.org/2000/svg">
<path d="M13.4542 29.237C16.3024 29.2792 18.2176 26.1384 16.9251 23.6306L21.1587 19.3969C22.4142 20.2958 24.0933 20.3571 25.4093 19.5672L29.5746 21.7413C29.9399 23.5033 31.504 24.8316 33.3727 24.8316C35.9367 24.8751 37.8704 22.2382 37.0791 19.8094L41.5606 15.3279C44.0717 16.6693 47.2494 14.7396 47.2106 11.879C47.2106 9.74028 45.4707 8.00033 43.3319 8.00033C40.5118 7.96339 38.5806 11.0566 39.8398 13.566L35.6149 17.7909C33.7514 16.414 30.9559 17.1225 29.9384 19.1532L27.0316 17.636C27.5638 16.2488 27.2727 14.6155 26.1561 13.499C23.2749 10.6643 18.5569 13.5546 19.7035 17.3695L15.1837 21.8893C13.7321 21.1674 11.9195 21.4095 10.7115 22.6175C8.26978 25.0482 10.0477 29.26 13.4542 29.237ZM43.332 10.4631C44.1128 10.4631 44.7479 11.0983 44.7479 11.879C44.6767 13.7549 41.9869 13.7544 41.916 11.879C41.916 11.0983 42.5512 10.4631 43.332 10.4631ZM33.3727 19.5369C33.8241 19.5369 34.2258 19.7499 34.4853 20.0799C34.5271 20.1677 34.5785 20.2519 34.6423 20.3298C35.1148 21.2314 34.3969 22.3941 33.3727 22.3688C31.4969 22.2977 31.4973 19.6078 33.3727 19.5369ZM22.4122 15.2402C22.9643 14.6882 23.8626 14.6882 24.4147 15.2402C24.9681 15.7933 24.9665 16.6953 24.411 17.2461C23.0325 18.5153 21.1381 16.6142 22.4122 15.2402ZM12.4529 24.3588C13.0051 23.8068 13.9032 23.8067 14.4554 24.3588C15.0075 24.9108 15.0075 25.8092 14.4554 26.3613C13.0786 27.6373 11.1771 25.7351 12.4529 24.3588Z" fill="#FFF"/>
<path d="M48.2768 46.1985H46.9343V21.7114C46.9343 21.0313 46.383 20.48 45.7029 20.48H40.9611C40.281 20.48 39.7297 21.0313 39.7297 21.7114V46.1985H36.975V30.1797C36.975 29.4997 36.4236 28.9483 35.7436 28.9483H31.0017C30.3217 28.9483 29.7704 29.4997 29.7704 30.1797V46.1985H27.0156V27.0688C27.0156 26.3888 26.4643 25.8374 25.7843 25.8374H21.0425C20.3624 25.8374 19.8111 26.3888 19.8111 27.0688V46.1984H17.0564V33.2992C17.0564 32.6192 16.5051 32.0679 15.825 32.0679H11.0833C10.4032 32.0679 9.85187 32.6192 9.85187 33.2992V46.1984H8.73139C8.05133 46.1984 7.5 46.7497 7.5 47.4298C7.5 48.1098 8.05133 48.6612 8.73139 48.6612H48.2768C49.8936 48.6078 49.9218 46.2635 48.2768 46.1985ZM12.3147 46.1985V34.5306H14.5936V46.1984H12.3147V46.1985ZM22.274 46.1985V28.3002H24.5529V46.1984H22.274V46.1985ZM32.2332 46.1985V31.4111H34.5123V46.1985H32.2332ZM42.1925 46.1985V22.9428H44.4715V46.1985H42.1925Z" fill="#FFF"/>
</svg>
