<svg width="57" height="56" viewBox="0 0 57 56" fill="none" xmlns="http://www.w3.org/2000/svg">
<path fill-rule="evenodd" clip-rule="evenodd" d="M12.51 17.7862C12.705 11.8504 17.573 7 23.5781 7C26.8008 7 29.6735 8.39358 31.6859 10.5786C32.9199 9.87721 34.3457 9.46094 35.8828 9.46094C40.5323 9.46094 44.2943 13.2124 44.4882 17.7854C47.387 19.1542 49.5 22.0774 49.5 25.5391C49.5 29.9136 46.1791 33.5025 41.9775 34.0732C41.904 34.8131 41.7641 35.5259 41.5805 36.2114L43.1332 37.1078C43.7217 37.4476 43.9233 38.2002 43.5835 38.7887L41.1226 43.0512C40.7828 43.6397 40.0303 43.8413 39.4417 43.5016L37.8847 42.6026C36.3127 44.1381 34.3775 45.3154 32.1914 45.9424V47.7695C32.1914 48.4491 31.6405 49 30.9609 49H26.0391C25.3595 49 24.8086 48.4491 24.8086 47.7695V45.9424C22.6225 45.3154 20.6873 44.1381 19.1153 42.6026L17.5583 43.5016C16.9697 43.8413 16.2172 43.6397 15.8774 43.0512L13.4165 38.7887C13.0767 38.2002 13.2783 37.4476 13.8668 37.1078L15.4195 36.2114C15.2358 35.5259 15.096 34.8131 15.0225 34.0732C10.8209 33.5025 7.5 29.9136 7.5 25.5391C7.5 22.0781 9.61214 19.1554 12.51 17.7862ZM17.5088 34.1523C17.6099 34.9127 17.7981 35.6593 18.0456 36.3996C18.2311 36.9543 18.0004 37.5629 17.4939 37.8553L16.1629 38.6238L17.3934 40.7551L18.722 39.988C19.2278 39.696 19.8692 39.7998 20.2571 40.2364C21.8317 42.0086 23.9126 43.2887 26.2848 43.7722C26.8579 43.889 27.2695 44.393 27.2695 44.9778V46.5391H29.7305V44.9778C29.7305 44.393 30.1421 43.889 30.7152 43.7722C33.0874 43.2887 35.1683 42.0086 36.7429 40.2364C37.1308 39.7998 37.7722 39.696 38.2779 39.988L39.6066 40.7551L40.8371 38.6238L39.5061 37.8553C38.9996 37.5629 38.7689 36.9543 38.9544 36.3996C39.2019 35.6593 39.3901 34.9127 39.4912 34.1523H37.0261C36.429 38.3265 32.8392 41.5352 28.5 41.5352C24.1607 41.5352 20.571 38.3265 19.9739 34.1523H17.5088ZM22.4707 34.1523C23.0407 36.9606 25.5235 39.0742 28.5 39.0742C31.4765 39.0742 33.9593 36.9606 34.5293 34.1523H22.4707ZM14.9648 18.1461C14.9655 18.152 14.9674 18.169 14.9723 18.2039C14.973 18.2088 14.9739 18.2146 14.9748 18.2213C14.9835 18.2809 15.0019 18.4079 15.0078 18.5404C15.0318 19.0834 14.6966 19.5778 14.1834 19.7567C11.7484 20.6051 9.96094 22.8834 9.96094 25.5391C9.96094 28.9193 12.7797 31.6914 16.1953 31.6914H40.8047C44.2203 31.6914 47.039 28.9193 47.039 25.5391C47.039 22.8834 45.2516 20.6051 42.8166 19.7567C42.2966 19.5755 41.9603 19.0708 41.9932 18.5211C41.9976 18.448 42.0048 18.3829 42.0112 18.3318C42.0156 18.2966 42.0212 18.2565 42.025 18.2293C42.0261 18.2213 42.0271 18.2144 42.0278 18.2091C42.033 18.171 42.0347 18.1542 42.0351 18.1497C42.0316 14.7371 39.2609 11.9219 35.8828 11.9219C34.4997 11.9219 33.2304 12.3983 32.1868 13.19C31.9255 13.3882 31.596 13.4739 31.2713 13.4281C30.9466 13.3824 30.6536 13.2089 30.4574 12.9462C28.879 10.8336 26.394 9.46094 23.5781 9.46094C18.8377 9.46094 14.9703 13.3803 14.9648 18.1461ZM19.8867 16.9258C20.3996 16.9258 20.8587 17.244 21.0388 17.7242L23.7974 25.0805C23.8045 25.0981 23.8112 25.1159 23.8175 25.1339L24.7302 27.568C24.9689 28.2043 24.6465 28.9135 24.0102 29.1521C23.3739 29.3907 22.6646 29.0684 22.426 28.4321L21.8026 26.7695H17.9709L17.3474 28.4321C17.1088 29.0684 16.3996 29.3907 15.7633 29.1521C15.127 28.9135 14.8046 28.2043 15.0432 27.568L15.956 25.1339C15.9622 25.1159 15.9689 25.0981 15.976 25.0805L18.7346 17.7242C18.9147 17.244 19.3738 16.9258 19.8867 16.9258ZM18.8937 24.3086H20.8797L19.8867 21.6606L18.8937 24.3086ZM27.6299 17.2862C27.8607 17.0554 28.1737 16.9258 28.5 16.9258L30.9609 16.9258C32.9996 16.9258 34.6523 18.5785 34.6523 20.6172C34.6523 22.6559 32.9996 24.3086 30.9609 24.3086H29.7305V28C29.7305 28.6796 29.1796 29.2305 28.5 29.2305C27.8204 29.2305 27.2695 28.6796 27.2695 28V18.1563C27.2695 17.8299 27.3992 17.517 27.6299 17.2862ZM29.7305 21.8477H30.9609C31.6405 21.8477 32.1914 21.2967 32.1914 20.6172C32.1914 19.9377 31.6405 19.3867 30.9609 19.3867H29.7305V21.8477ZM38.3437 16.9258C39.0233 16.9258 39.5742 17.4767 39.5742 18.1563V28C39.5742 28.6796 39.0233 29.2305 38.3437 29.2305C37.6642 29.2305 37.1133 28.6796 37.1133 28V18.1563C37.1133 17.4767 37.6642 16.9258 38.3437 16.9258Z" fill="#FFF"/>
</svg>
