<svg width="20" height="16" viewBox="0 0 20 16" fill="none" xmlns="http://www.w3.org/2000/svg">
<path d="M18.2422 0.0136719H1.75781C0.788555 0.0136719 0 0.802227 0 1.77148V14.2284C0 15.1977 0.788555 15.9862 1.75781 15.9862H18.2422C19.2114 15.9862 20 15.1977 20 14.2284V1.77148C20 0.802227 19.2114 0.0136719 18.2422 0.0136719ZM18.8281 14.2284C18.8281 14.5515 18.5653 14.8144 18.2422 14.8144H1.75781C1.43473 14.8144 1.17188 14.5515 1.17188 14.2284V4.79727H18.8281V14.2284ZM18.8281 3.62539H1.17188V1.77148C1.17188 1.4484 1.43473 1.18555 1.75781 1.18555H18.2422C18.5653 1.18555 18.8281 1.4484 18.8281 1.77148V3.62539Z" fill="#FFF"/>
<path d="M6.23648 10.9978C6.29773 11.1836 6.37281 11.3647 6.46102 11.5395C6.32895 11.8359 6.3843 12.1963 6.62707 12.439L7.3173 13.1292C7.56008 13.372 7.92039 13.4274 8.21676 13.2953C8.3916 13.3835 8.57273 13.4586 8.75848 13.5198C8.87473 13.8227 9.16863 14.0382 9.51191 14.0382H10.488C10.8313 14.0382 11.1252 13.8227 11.2414 13.5198C11.4272 13.4586 11.6083 13.3835 11.7831 13.2953C12.0795 13.4274 12.4398 13.372 12.6826 13.1292L13.3729 12.439C13.6156 12.1962 13.671 11.8359 13.5389 11.5395C13.6271 11.3646 13.7022 11.1836 13.7634 10.9978C14.0663 10.8816 14.2819 10.5877 14.2819 10.2444V9.26828C14.2819 8.92496 14.0662 8.63105 13.7634 8.5148C13.7022 8.32898 13.6271 8.14789 13.5389 7.97316C13.671 7.6768 13.6156 7.31645 13.3729 7.07363L12.6827 6.38348C12.5304 6.23109 12.3277 6.14719 12.1123 6.14719C11.9968 6.14719 11.885 6.17129 11.7826 6.21715C11.6079 6.12906 11.427 6.0541 11.2414 5.99289C11.1252 5.69 10.8313 5.47441 10.488 5.47441H9.51191C9.16863 5.47441 8.87469 5.69 8.75848 5.99289C8.57289 6.05406 8.39191 6.12906 8.21731 6.21715C8.11496 6.17133 8.00316 6.14719 7.88766 6.14719C7.67219 6.14719 7.46961 6.23109 7.3173 6.38344L6.62703 7.07371C6.38426 7.31652 6.32895 7.67684 6.46102 7.9732C6.37277 8.14801 6.29773 8.3291 6.23648 8.51484C5.93359 8.63113 5.71805 8.925 5.71805 9.26832V10.2444C5.71805 10.5877 5.93359 10.8816 6.23648 10.9978ZM6.88992 9.54582C7.08926 9.4443 7.24332 9.26164 7.30387 9.03492C7.36684 8.79863 7.46105 8.57141 7.58406 8.35926C7.70152 8.15648 7.7216 7.91848 7.65223 7.70578L7.94949 7.40852C8.16227 7.47789 8.40031 7.45781 8.60305 7.34027C8.81512 7.21738 9.04238 7.12313 9.27863 7.06012C9.50531 6.99969 9.68801 6.84555 9.78953 6.64621H10.2104C10.312 6.84555 10.4946 6.99965 10.7213 7.06012C10.9576 7.12313 11.1848 7.21734 11.3969 7.34027C11.5996 7.45777 11.8377 7.47785 12.0505 7.40852L12.3478 7.70578C12.2784 7.91848 12.2985 8.15656 12.416 8.35945C12.5389 8.57141 12.6331 8.79863 12.6961 9.03508C12.7566 9.26168 12.9107 9.44434 13.11 9.54582V9.96676C12.9107 10.0683 12.7566 10.251 12.6961 10.4777C12.6332 10.7139 12.5389 10.9412 12.4159 11.1533C12.2984 11.3561 12.2784 11.5941 12.3477 11.8068L12.0505 12.1041C11.8377 12.0346 11.5996 12.0548 11.3969 12.1723C11.1848 12.2952 10.9576 12.3895 10.7212 12.4525C10.4946 12.513 10.3119 12.6671 10.2104 12.8664H9.78949C9.68797 12.667 9.50531 12.513 9.27859 12.4524C9.04238 12.3895 8.81512 12.2952 8.60313 12.1723C8.40039 12.0548 8.16227 12.0346 7.94949 12.1041L7.65223 11.8068C7.72156 11.5941 7.70148 11.356 7.58398 11.1532C7.46109 10.9412 7.3668 10.7139 7.30383 10.4776C7.24336 10.2509 7.08926 10.0682 6.88992 9.96676V9.54582Z" fill="#FFF"/>
<path d="M10 11.6218C11.0286 11.6218 11.8655 10.785 11.8655 9.75633C11.8655 8.7277 11.0286 7.89086 10 7.89086C8.97137 7.89086 8.13453 8.7277 8.13453 9.75633C8.13453 10.785 8.97137 11.6218 10 11.6218ZM10 9.06273C10.3825 9.06273 10.6936 9.37387 10.6936 9.75633C10.6936 10.1388 10.3825 10.4499 10 10.4499C9.61754 10.4499 9.30641 10.1388 9.30641 9.75633C9.30641 9.37387 9.61754 9.06273 10 9.06273Z" fill="#FFF"/>
<path d="M3.3384 1.81953H2.85359C2.53 1.81953 2.26766 2.08187 2.26766 2.40547C2.26766 2.72906 2.53 2.99141 2.85359 2.99141H3.3384C3.66199 2.99141 3.92434 2.72906 3.92434 2.40547C3.92434 2.08187 3.66199 1.81953 3.3384 1.81953Z" fill="#FFF"/>
<path d="M6.04523 1.81953H5.56043C5.23684 1.81953 4.97449 2.08187 4.97449 2.40547C4.97449 2.72906 5.23684 2.99141 5.56043 2.99141H6.04523C6.36883 2.99141 6.63117 2.72906 6.63117 2.40547C6.63117 2.08187 6.36883 1.81953 6.04523 1.81953Z" fill="#FFF"/>
<path d="M8.75207 1.81953H8.26727C7.94367 1.81953 7.68133 2.08187 7.68133 2.40547C7.68133 2.72906 7.94367 2.99141 8.26727 2.99141H8.75207C9.07566 2.99141 9.33801 2.72906 9.33801 2.40547C9.33801 2.08187 9.07566 1.81953 8.75207 1.81953Z" fill="#FFF"/>
</svg>
