<svg width="42" height="42" viewBox="0 0 42 42" fill="none" xmlns="http://www.w3.org/2000/svg">
<path fill-rule="evenodd" clip-rule="evenodd" d="M6.35611e-08 40.7701C6.35611e-08 41.4494 0.5509 42 1.23047 42H29.1006C29.7802 42 30.3311 41.4494 30.3311 40.7701V12.9136C30.3311 12.2344 29.7802 11.6837 29.1006 11.6837H1.23047C0.5509 11.6837 6.35611e-08 12.2344 6.35611e-08 12.9136V40.7701ZM2.46094 39.5403V14.1435H27.8701V39.5403H2.46094Z" fill="#FFF"/>
<path fill-rule="evenodd" clip-rule="evenodd" d="M1.23047 25.7657C0.5509 25.7657 -2.97049e-08 25.2151 0 24.5359L9.19848e-08 22.4325C1.2169e-07 21.7533 0.5509 21.2027 1.23047 21.2027C1.91004 21.2027 2.46094 21.7533 2.46094 22.4325V24.5359C2.46094 25.2151 1.91004 25.7657 1.23047 25.7657ZM1.23047 18.6143C0.5509 18.6143 2.83046e-07 18.0637 3.12751e-07 17.3845L4.96721e-07 13.1778C5.26426e-07 12.4985 0.5509 11.9479 1.23047 11.9479C1.91004 11.9479 2.46094 12.4985 2.46094 13.1778L2.46094 17.3845C2.46094 18.0637 1.91004 18.6143 1.23047 18.6143ZM1.23047 9.35956C0.5509 9.35956 6.87782e-07 8.80893 7.17487e-07 8.1297L8.09472e-07 6.02635C8.39177e-07 5.34712 0.5509 4.79649 1.23047 4.79649C1.91004 4.79649 2.46094 5.34712 2.46094 6.02635V8.1297C2.46094 8.80893 1.91004 9.35956 1.23047 9.35956Z" fill="#FFF"/>
<path fill-rule="evenodd" clip-rule="evenodd" d="M1.23047 4.50952C1.91004 4.50952 2.46094 3.95889 2.46094 3.27965V2.45974H3.28125C3.96082 2.45974 4.51172 1.90911 4.51172 1.22987C4.51172 0.550633 3.96082 2.58037e-06 3.28125 2.58037e-06H1.23047C0.5509 2.58037e-06 6.35611e-08 0.550633 6.35611e-08 1.22987V3.27965C6.35611e-08 3.95889 0.5509 4.50952 1.23047 4.50952Z" fill="#FFF"/>
<path fill-rule="evenodd" clip-rule="evenodd" d="M7.50269 1.22987C7.50269 1.90911 8.05359 2.45974 8.73316 2.45974H10.7983C11.4779 2.45974 12.0288 1.90911 12.0288 1.22987C12.0288 0.550631 11.4779 0 10.7983 0H8.73316C8.05359 0 7.50269 0.550631 7.50269 1.22987ZM14.5241 1.22987C14.5241 1.90911 15.075 2.45974 15.7546 2.45974H19.8848C20.5644 2.45974 21.1153 1.90911 21.1153 1.22987C21.1153 0.550631 20.5644 0 19.8848 0H15.7546C15.075 0 14.5241 0.550631 14.5241 1.22987ZM23.6107 1.22987C23.6107 1.90911 24.1616 2.45974 24.8411 2.45974H28.9714C29.6509 2.45974 30.2018 1.90911 30.2018 1.22987C30.2018 0.550631 29.6509 0 28.9714 0H24.8411C24.1616 0 23.6107 0.550631 23.6107 1.22987ZM32.6972 1.22987C32.6972 1.90911 33.2481 2.45974 33.9277 2.45974H35.9928C36.6724 2.45974 37.2233 1.90911 37.2233 1.22987C37.2233 0.550631 36.6724 0 35.9928 0H33.9277C33.2481 0 32.6972 0.550631 32.6972 1.22987Z" fill="#FFF"/>
<path fill-rule="evenodd" clip-rule="evenodd" d="M40.7695 4.50952C41.4491 4.50952 42 3.95889 42 3.27965V1.22987C42 0.550633 41.4491 2.58037e-06 40.7695 2.58037e-06H38.7187C38.0392 2.58037e-06 37.4883 0.550633 37.4883 1.22987C37.4883 1.90911 38.0392 2.45974 38.7187 2.45974H39.5391V3.27965C39.5391 3.95889 40.09 4.50952 40.7695 4.50952Z" fill="#FFF"/>
<path fill-rule="evenodd" clip-rule="evenodd" d="M40.7695 37.2051C41.4491 37.2051 42 36.6545 42 35.9753V33.9112C42 33.2319 41.4491 32.6813 40.7695 32.6813C40.09 32.6813 39.5391 33.2319 39.5391 33.9112V35.9753C39.5391 36.6545 40.09 37.2051 40.7695 37.2051ZM40.7695 30.1871C41.4491 30.1871 42 29.6365 42 28.9573V24.829C42 24.1498 41.4491 23.5991 40.7695 23.5991C40.09 23.5991 39.5391 24.1498 39.5391 24.829V28.9573C39.5391 29.6365 40.09 30.1871 40.7695 30.1871ZM40.7695 21.105C41.4491 21.105 42 20.5544 42 19.8751V15.7469C42 15.0676 41.4491 14.517 40.7695 14.517C40.09 14.517 39.5391 15.0676 39.5391 15.7469V19.8751C39.5391 20.5544 40.09 21.105 40.7695 21.105ZM40.7695 12.0229C41.4491 12.0229 42 11.4722 42 10.793V8.72886C42 8.04962 41.4491 7.49899 40.7695 7.49899C40.09 7.49899 39.5391 8.04962 39.5391 8.72886V10.793C39.5391 11.4722 40.09 12.0229 40.7695 12.0229Z" fill="#FFF"/>
<path fill-rule="evenodd" clip-rule="evenodd" d="M37.4883 40.7496C37.4883 41.4289 38.0392 41.9795 38.7187 41.9795H40.7695C41.4491 41.9795 42 41.4289 42 40.7496V38.6999C42 38.0206 41.4491 37.47 40.7695 37.47C40.09 37.47 39.5391 38.0206 39.5391 38.6999V39.5198H38.7187C38.0392 39.5198 37.4883 40.0704 37.4883 40.7496Z" fill="#FFF"/>
<path fill-rule="evenodd" clip-rule="evenodd" d="M24.5853 40.7496C24.5853 41.4289 25.1362 41.9795 25.8158 41.9795H27.4915C28.171 41.9795 28.7219 41.4289 28.7219 40.7496C28.7219 40.0704 28.171 39.5198 27.4915 39.5198H25.8158C25.1362 39.5198 24.5853 40.0704 24.5853 40.7496ZM30.2827 40.7496C30.2827 41.4289 30.8336 41.9795 31.5132 41.9795H33.1889C33.8685 41.9795 34.4194 41.4289 34.4194 40.7496C34.4194 40.0704 33.8685 39.5198 33.1889 39.5198H31.5132C30.8336 39.5198 30.2827 40.0704 30.2827 40.7496Z" fill="#FFF"/>
</svg>
