<svg width="57" height="56" viewBox="0 0 57 56" fill="none" xmlns="http://www.w3.org/2000/svg">
<path d="M18.5742 24.3086H13.6523C12.9727 24.3086 12.4219 24.8594 12.4219 25.5391V30.4609C12.4219 31.1406 12.9727 31.6914 13.6523 31.6914H18.5742C19.2539 31.6914 19.8047 31.1406 19.8047 30.4609V25.5391C19.8047 24.8594 19.2539 24.3086 18.5742 24.3086ZM17.3437 29.2305H14.8828V26.7695H17.3437V29.2305Z" fill="#FFF"/>
<path d="M28.6523 24.3086H23.7305C23.0508 24.3086 22.5 24.8594 22.5 25.5391V30.4609C22.5 31.1406 23.0508 31.6914 23.7305 31.6914H28.6523C29.332 31.6914 29.8828 31.1406 29.8828 30.4609V25.5391C29.8828 24.8594 29.332 24.3086 28.6523 24.3086ZM27.4219 29.2305H24.9609V26.7695H27.4219V29.2305Z" fill="#FFF"/>
<path d="M33.3398 31.6914H38.2617C38.9414 31.6914 39.4922 31.1406 39.4922 30.4609V25.5391C39.4922 24.8594 38.9414 24.3086 38.2617 24.3086H33.3398C32.6602 24.3086 32.1094 24.8594 32.1094 25.5391V30.4609C32.1094 31.1406 32.6602 31.6914 33.3398 31.6914ZM34.5703 26.7695H37.0312V29.2305H34.5703V26.7695Z" fill="#FFF"/>
<path d="M18.5742 34H13.6523C12.9727 34 12.4219 34.5508 12.4219 35.2305V40.1523C12.4219 40.832 12.9727 41.3828 13.6523 41.3828H18.5742C19.2539 41.3828 19.8047 40.832 19.8047 40.1523V35.2305C19.8047 34.5508 19.2539 34 18.5742 34ZM17.3437 38.9219H14.8828V36.4609H17.3437V38.9219Z" fill="#FFF"/>
<path d="M27.9941 35.8092L25.5168 38.0428L24.521 37.1138C24.0357 36.6612 23.2755 36.6876 22.8229 37.1728C22.3703 37.658 22.3967 38.4183 22.8819 38.8709L24.6835 40.5515C25.1394 40.9765 25.8446 40.9827 26.3075 40.5652L29.6031 37.5938C30.0959 37.1495 30.1352 36.3898 29.6908 35.897C29.2466 35.4041 28.4868 35.3648 27.9941 35.8092Z" fill="#FFF"/>
<path d="M44.4141 32.5293V15.2031C44.4141 12.7153 42.3902 10.6914 39.9023 10.6914H38.2617V8.3125C38.2617 7.63286 37.7109 7.08203 37.0312 7.08203C36.3516 7.08203 35.8008 7.63286 35.8008 8.3125V10.6914H30.8789V8.3125C30.8789 7.63286 30.3281 7.08203 29.6484 7.08203C28.9688 7.08203 28.418 7.63286 28.418 8.3125V10.6914H23.4961V8.3125C23.4961 7.63286 22.9453 7.08203 22.2656 7.08203C21.586 7.08203 21.0352 7.63286 21.0352 8.3125V10.6914H16.1133V8.23047C16.1133 7.55083 15.5625 7 14.8828 7C14.2032 7 13.6523 7.55083 13.6523 8.23047V10.6914H12.0117C9.52386 10.6914 7.5 12.7153 7.5 15.2031V41.8633C7.5 44.3511 9.52386 46.375 12.0117 46.375H34.702C36.2689 47.9926 38.4623 49 40.8867 49C45.6362 49 49.5 45.1362 49.5 40.3867C49.5 36.8933 47.4095 33.8793 44.4141 32.5293ZM12.0117 13.1523H13.6523V15.6133C13.6523 16.2929 14.2032 16.8438 14.8828 16.8438C15.5625 16.8438 16.1133 16.2929 16.1133 15.6133V13.1523H21.0352V15.6133C21.0352 16.2929 21.586 16.8438 22.2656 16.8438C22.9453 16.8438 23.4961 16.2929 23.4961 15.6133V13.1523H28.418V15.6133C28.418 16.2929 28.9688 16.8438 29.6484 16.8438C30.3281 16.8438 30.8789 16.2929 30.8789 15.6133V13.1523H35.8008V15.6133C35.8008 16.2929 36.3516 16.8438 37.0312 16.8438C37.7109 16.8438 38.2617 16.2929 38.2617 15.6133V13.1523H39.9023C41.0332 13.1523 41.9531 14.0723 41.9531 15.2031V19.3867H9.96094V15.2031C9.96094 14.0723 10.8809 13.1523 12.0117 13.1523ZM12.0117 43.9141C10.8809 43.9141 9.96094 42.9941 9.96094 41.8633V21.8477H41.9531V31.8394C35.2727 31.0102 30.2883 37.8319 33.0293 43.9141H12.0117ZM40.8867 46.5391C37.4943 46.5391 34.7344 43.7792 34.7344 40.3867C34.7344 36.9943 37.4943 34.2344 40.8867 34.2344C44.2542 34.2344 47.0391 36.9712 47.0391 40.3867C47.0391 43.7792 44.2792 46.5391 40.8867 46.5391Z" fill="#FFF"/>
<path d="M43.1836 39.1562H42.0352V37.8438C42.0352 37.1641 41.4843 36.6133 40.8047 36.6133C40.125 36.6133 39.5742 37.1641 39.5742 37.8438V40.3867C39.5742 41.0664 40.125 41.6172 40.8047 41.6172H43.1836C43.8632 41.6172 44.4141 41.0664 44.4141 40.3867C44.4141 39.7071 43.8632 39.1562 43.1836 39.1562Z" fill="#FFF"/>
</svg>
