<svg width="57" height="56" viewBox="0 0 57 56" fill="none" xmlns="http://www.w3.org/2000/svg">
<path d="M49.166 7H22.5212C19.4127 7 16.8836 9.5289 16.8836 12.6376V19.4028H7.13758C4.0289 19.4026 1.5 21.9316 1.5 25.0401V36.7344C1.5 39.2943 3.21467 41.4611 5.55607 42.1463V47.4186C5.55607 48.0363 5.91576 48.5976 6.47712 48.8555C6.68825 48.9526 6.91354 49 7.13717 49C7.50811 49 7.87498 48.8695 8.16732 48.6186L15.4462 42.372H28.7894C31.8978 42.372 34.4268 39.843 34.4268 36.7344V33.2921H39.5087L47.4111 40.6107C47.7094 40.8869 48.0949 41.0319 48.486 41.0319C48.6997 41.0319 48.9152 40.9886 49.1187 40.8996C49.6948 40.648 50.0671 40.079 50.0671 39.4504V33.2202C52.7489 32.7876 54.8036 30.4565 54.8036 27.6545V12.6376C54.8036 9.52901 52.2746 7 49.166 7ZM31.264 36.7344C31.264 38.0989 30.1539 39.2091 28.7895 39.2091H14.8608C14.4829 39.2091 14.1176 39.3443 13.8308 39.5905L8.71899 43.9774V40.7905C8.71899 39.9172 8.01095 39.2091 7.13758 39.2091C5.77303 39.2091 4.66292 38.099 4.66292 36.7344V25.0401C4.66292 23.6757 5.77303 22.5655 7.13758 22.5655H16.8836V27.6546C16.8836 30.7631 19.4126 33.2922 22.5212 33.2922H31.264V36.7344ZM51.6407 27.6546C51.6407 29.0191 50.5306 30.1293 49.166 30.1293H48.4855C47.6122 30.1293 46.9041 30.8373 46.9041 31.7107V35.8304L41.203 30.5503C40.9107 30.2795 40.527 30.1291 40.1285 30.1291H22.5212C21.1567 30.1291 20.0465 29.019 20.0465 27.6544V12.6376C20.0465 11.2731 21.1566 10.1629 22.5212 10.1629H49.166C50.5304 10.1629 51.6407 11.273 51.6407 12.6376V27.6546Z" fill="#FFF"/>
<path d="M45.0206 15.6646H26.6666C25.7932 15.6646 25.0852 16.3727 25.0852 17.2461C25.0852 18.1194 25.7932 18.8275 26.6666 18.8275H45.0206C45.894 18.8275 46.602 18.1194 46.602 17.2461C46.602 16.3727 45.894 15.6646 45.0206 15.6646Z" fill="#FFF"/>
<path d="M45.0206 22.2013H26.6666C25.7932 22.2013 25.0852 22.9094 25.0852 23.7827C25.0852 24.6561 25.7932 25.3641 26.6666 25.3641H45.0206C45.894 25.3641 46.602 24.6561 46.602 23.7827C46.602 22.9094 45.894 22.2013 45.0206 22.2013Z" fill="#FFF"/>
</svg>
