<svg width="57" height="56" viewBox="0 0 57 56" fill="none" xmlns="http://www.w3.org/2000/svg">
<path d="M42.025 26.6875C42.7499 26.6875 43.3375 26.0999 43.3375 25.375C43.3375 24.6501 42.7499 24.0625 42.025 24.0625C41.3001 24.0625 40.7125 24.6501 40.7125 25.375C40.7125 26.0999 41.3001 26.6875 42.025 26.6875Z" fill="#FFF"/>
<path d="M36.775 26.6875C37.4999 26.6875 38.0875 26.0999 38.0875 25.375C38.0875 24.6501 37.4999 24.0625 36.775 24.0625C36.0501 24.0625 35.4625 24.6501 35.4625 25.375C35.4625 26.0999 36.0501 26.6875 36.775 26.6875Z" fill="#FFF"/>
<path d="M31.525 26.6875C32.2499 26.6875 32.8375 26.0999 32.8375 25.375C32.8375 24.6501 32.2499 24.0625 31.525 24.0625C30.8001 24.0625 30.2125 24.6501 30.2125 25.375C30.2125 26.0999 30.8001 26.6875 31.525 26.6875Z" fill="#FFF"/>
<path d="M26.275 14.875C26.9999 14.875 27.5875 14.2874 27.5875 13.5625C27.5875 12.8376 26.9999 12.25 26.275 12.25C25.5501 12.25 24.9625 12.8376 24.9625 13.5625C24.9625 14.2874 25.5501 14.875 26.275 14.875Z" fill="#FFF"/>
<path d="M21.025 14.875C21.7499 14.875 22.3375 14.2874 22.3375 13.5625C22.3375 12.8376 21.7499 12.25 21.025 12.25C20.3001 12.25 19.7125 12.8376 19.7125 13.5625C19.7125 14.2874 20.3001 14.875 21.025 14.875Z" fill="#FFF"/>
<path d="M15.775 14.875C16.4999 14.875 17.0875 14.2874 17.0875 13.5625C17.0875 12.8376 16.4999 12.25 15.775 12.25C15.0501 12.25 14.4625 12.8376 14.4625 13.5625C14.4625 14.2874 15.0501 14.875 15.775 14.875Z" fill="#FFF"/>
<path d="M47.3625 17.5H35.4625V10.9375C35.4625 8.76636 33.6961 7 31.525 7H10.4375C8.26636 7 6.5 8.76636 6.5 10.9375V18.8125C6.5 20.9836 8.26636 22.75 10.4375 22.75H11.8375V26.6875C11.8375 27.2183 12.1572 27.697 12.6477 27.9001C12.8098 27.9672 12.9801 27.9998 13.1489 28H10.4375C8.26636 28 6.5 29.7663 6.5 31.9375V39.8125C6.5 41.9836 8.26636 43.75 10.4375 43.75H11.8375V47.6875C11.8375 48.2183 12.1572 48.697 12.6477 48.9001C13.1382 49.1032 13.7027 48.9909 14.0781 48.6155L18.9436 43.75H31.525C33.6961 43.75 35.4625 41.9836 35.4625 39.8125V33.25H39.6603L43.6417 38.0277C43.9955 38.4523 44.5774 38.6098 45.0968 38.4216C45.6164 38.2335 45.9626 37.74 45.9626 37.1875V33.25H47.3626C49.5337 33.25 51.3001 31.4836 51.3001 29.3125V21.4375C51.3 19.2664 49.5336 17.5 47.3625 17.5ZM10.4375 20.125C9.71379 20.125 9.125 19.5362 9.125 18.8125V10.9375C9.125 10.2138 9.71379 9.625 10.4375 9.625H31.525C32.2487 9.625 32.8375 10.2138 32.8375 10.9375V17.5H26.275C24.5639 17.5 23.105 18.5974 22.5632 20.125H18.4C18.0518 20.125 17.718 20.2633 17.472 20.5095L14.4625 23.5188V21.4375C14.4625 20.7126 13.8748 20.125 13.15 20.125H10.4375ZM22.3375 22.75V28H13.1506C13.4919 27.9997 13.8272 27.8664 14.078 27.6155L18.9436 22.75H22.3375ZM32.8375 39.8125C32.8375 40.5362 32.2487 41.125 31.525 41.125H18.4C18.0518 41.125 17.718 41.2633 17.472 41.5095L14.4625 44.5188V42.4375C14.4625 41.7126 13.8748 41.125 13.15 41.125H10.4375C9.71379 41.125 9.125 40.5362 9.125 39.8125V31.9375C9.125 31.2138 9.71379 30.625 10.4375 30.625H31.525C32.2487 30.625 32.8375 31.2138 32.8375 31.9375V39.8125ZM48.675 29.3125C48.675 30.0362 48.0862 30.625 47.3625 30.625H44.65C43.9251 30.625 43.3375 31.2126 43.3375 31.9375V33.5623L41.2832 31.0972C41.0339 30.798 40.6645 30.625 40.275 30.625H35.2367C34.6949 29.0974 33.236 28 31.525 28H24.9625V21.4375C24.9625 20.7138 25.5513 20.125 26.275 20.125H47.3625C48.0862 20.125 48.675 20.7138 48.675 21.4375V29.3125Z" fill="#FFF"/>
<path d="M26.275 37.1875C26.9999 37.1875 27.5875 36.5999 27.5875 35.875C27.5875 35.1501 26.9999 34.5625 26.275 34.5625C25.5501 34.5625 24.9625 35.1501 24.9625 35.875C24.9625 36.5999 25.5501 37.1875 26.275 37.1875Z" fill="#FFF"/>
<path d="M21.025 37.1875C21.7499 37.1875 22.3375 36.5999 22.3375 35.875C22.3375 35.1501 21.7499 34.5625 21.025 34.5625C20.3001 34.5625 19.7125 35.1501 19.7125 35.875C19.7125 36.5999 20.3001 37.1875 21.025 37.1875Z" fill="#FFF"/>
<path d="M15.775 37.1875C16.4999 37.1875 17.0875 36.5999 17.0875 35.875C17.0875 35.1501 16.4999 34.5625 15.775 34.5625C15.0501 34.5625 14.4625 35.1501 14.4625 35.875C14.4625 36.5999 15.0501 37.1875 15.775 37.1875Z" fill="#FFF"/>
</svg>
