<svg width="57" height="56" viewBox="0 0 57 56" fill="none" xmlns="http://www.w3.org/2000/svg">
<path fill-rule="evenodd" clip-rule="evenodd" d="M7.5 42.8271C7.5 43.5067 8.0509 44.0576 8.73047 44.0576H48.2695C48.9491 44.0576 49.5 43.5067 49.5 42.8271V8.23047C49.5 7.5509 48.9491 7 48.2695 7H8.73047C8.0509 7 7.5 7.5509 7.5 8.23047V42.8271ZM9.96094 41.5967V9.46094H47.0391V41.5967H9.96094Z" fill="#FFF"/>
<path fill-rule="evenodd" clip-rule="evenodd" d="M22.3271 47.7695C22.3271 48.4491 22.878 49 23.5576 49H33.4424C34.122 49 34.6729 48.4491 34.6729 47.7695V42.8271C34.6729 42.1476 34.122 41.5967 33.4424 41.5967H23.5576C22.878 41.5967 22.3271 42.1476 22.3271 42.8271V47.7695ZM24.7881 46.5391V44.0576H32.2119V46.5391H24.7881Z" fill="#FFF"/>
<path fill-rule="evenodd" clip-rule="evenodd" d="M17.3848 47.7695C17.3848 48.4491 17.9357 49 18.6152 49H38.3848C39.0643 49 39.6152 48.4491 39.6152 47.7695C39.6152 47.09 39.0643 46.5391 38.3848 46.5391H18.6152C17.9357 46.5391 17.3848 47.09 17.3848 47.7695Z" fill="#FFF"/>
<path fill-rule="evenodd" clip-rule="evenodd" d="M8.73047 39.1152H48.2695V36.6543H8.73047V39.1152Z" fill="#FFF"/>
<path fill-rule="evenodd" clip-rule="evenodd" d="M12.4424 23.0576C12.4424 29.1964 17.4189 34.1729 23.5576 34.1729C29.6964 34.1729 34.6729 29.1964 34.6729 23.0576C34.6729 22.378 34.122 21.8271 33.4424 21.8271H24.7881V13.1729C24.7881 12.4933 24.2372 11.9424 23.5576 11.9424C17.4189 11.9424 12.4424 16.9189 12.4424 23.0576ZM23.5576 31.7119C18.778 31.7119 14.9033 27.8372 14.9033 23.0576C14.9033 18.6957 18.1303 15.0875 22.3271 14.4901V23.0576C22.3271 23.7372 22.878 24.2881 23.5576 24.2881H32.1251C31.5277 28.4849 27.9195 31.7119 23.5576 31.7119Z" fill="#FFF"/>
<path fill-rule="evenodd" clip-rule="evenodd" d="M22.3271 23.0576C22.3271 23.7372 22.878 24.2881 23.5576 24.2881H33.4424C34.122 24.2881 34.6729 23.7372 34.6729 23.0576C34.6729 16.9189 29.6964 11.9424 23.5576 11.9424C22.878 11.9424 22.3271 12.4933 22.3271 13.1729V23.0576ZM24.7881 21.8271V14.4901C28.583 15.0303 31.5849 18.0322 32.1251 21.8271H24.7881Z" fill="#FFF"/>
<path fill-rule="evenodd" clip-rule="evenodd" d="M37.1543 13.1729C37.1543 13.8524 37.7052 14.4033 38.3848 14.4033H43.3271C44.0067 14.4033 44.5576 13.8524 44.5576 13.1729C44.5576 12.4933 44.0067 11.9424 43.3271 11.9424H38.3848C37.7052 11.9424 37.1543 12.4933 37.1543 13.1729Z" fill="#FFF"/>
<path fill-rule="evenodd" clip-rule="evenodd" d="M37.1543 18.1152C37.1543 18.7948 37.7052 19.3457 38.3848 19.3457H43.3271C44.0067 19.3457 44.5576 18.7948 44.5576 18.1152C44.5576 17.4357 44.0067 16.8848 43.3271 16.8848H38.3848C37.7052 16.8848 37.1543 17.4357 37.1543 18.1152Z" fill="#FFF"/>
<path fill-rule="evenodd" clip-rule="evenodd" d="M37.1543 32.9424C37.1543 33.622 37.7052 34.1729 38.3848 34.1729H43.3271C44.0067 34.1729 44.5576 33.622 44.5576 32.9424V23.0576C44.5576 22.378 44.0067 21.8271 43.3271 21.8271H38.3848C37.7052 21.8271 37.1543 22.378 37.1543 23.0576V32.9424ZM39.6152 31.7119V24.2881H42.0967V31.7119H39.6152Z" fill="#FFF"/>
</svg>
