<svg width="43" height="42" viewBox="0 0 43 42" fill="none" xmlns="http://www.w3.org/2000/svg">
<path fill-rule="evenodd" clip-rule="evenodd" d="M2.13486 40.1975C4.53915 42.6017 8.43311 42.5999 10.8355 40.1975L23.0164 28.0167C23.2471 27.7859 23.3767 27.473 23.3767 27.1466C23.3767 26.8203 23.2471 26.5073 23.0164 26.2766L16.0559 19.3161C15.5753 18.8356 14.7963 18.8356 14.3157 19.3161L2.13484 31.497C-0.267617 33.8995 -0.267598 37.795 2.13486 40.1975ZM3.87495 38.4574C3.87493 38.4574 3.87496 38.4574 3.87495 38.4574C5.31779 39.9001 7.65362 39.8992 9.09543 38.4574L20.4062 27.1466L15.1858 21.9263L3.87498 33.2371C3.87498 33.2371 3.87499 33.2371 3.87498 33.2371C2.43355 34.6786 2.43352 37.0158 3.87495 38.4574Z" fill="#FFF"/>
<path fill-rule="evenodd" clip-rule="evenodd" d="M27.6484 39.4964C30.304 42.1519 34.2385 42.6745 37.4278 41.158C37.7889 40.9863 38.044 40.6499 38.112 40.2559C38.1799 39.8619 38.0522 39.4594 37.7695 39.1767L33.2292 34.6365V32.8963H34.9693L39.5097 37.4366C39.7924 37.7194 40.1948 37.8471 40.5889 37.7791C40.9829 37.7112 41.3193 37.456 41.491 37.0949C43.0074 33.9056 42.4849 29.9711 39.8294 27.3156C37.3969 24.8832 33.8913 24.2403 30.8683 25.315L17.0174 11.4641C18.092 8.44104 17.4493 4.93548 15.0168 2.50304C12.3613 -0.152475 8.42683 -0.675019 5.23746 0.841428C4.87638 1.01311 4.62122 1.34954 4.55327 1.74354C4.48532 2.13755 4.61304 2.54001 4.89576 2.82273L9.43601 7.36298V9.10315H7.696L3.15566 4.56289C2.87295 4.28018 2.47049 4.15245 2.07649 4.2204C1.68249 4.28835 1.34607 4.5435 1.17438 4.90458C-0.342073 8.09387 0.180466 12.0284 2.836 14.6839C5.26843 17.1163 8.77398 17.7592 11.797 16.6844L25.6479 30.5354C24.5732 33.5584 25.216 37.064 27.6484 39.4964ZM34.5875 39.475C32.7393 39.742 30.8042 39.1719 29.3886 37.7563C27.5047 35.8724 27.1182 33.0686 28.2093 30.7738C28.4329 30.3036 28.3363 29.7435 27.9681 29.3754L12.957 14.3642C12.5889 13.996 12.0288 13.8994 11.5586 14.123C9.26379 15.2142 6.45999 14.8276 4.57611 12.9437C3.16049 11.5282 2.59037 9.59306 2.8574 7.74484L6.31628 11.2037C6.54704 11.4344 6.86 11.564 7.18634 11.564H10.6665C11.346 11.564 11.8969 11.0132 11.8969 10.3336V6.85331C11.8969 6.52697 11.7673 6.214 11.5365 5.98324L8.07773 2.52446C9.92597 2.25742 11.8611 2.82753 13.2767 4.24316C15.1606 6.12703 15.5471 8.93084 14.456 11.2257C14.2325 11.6959 14.3291 12.2559 14.6972 12.6241L29.7083 27.6353C30.0765 28.0034 30.6365 28.1 31.1068 27.8764C33.4015 26.7853 36.2053 27.1718 38.0892 29.0557C39.5049 30.4713 40.075 32.4064 39.8079 34.2547L36.3491 30.7958C36.1183 30.565 35.8053 30.4354 35.479 30.4354H31.9988C31.3192 30.4354 30.7683 30.9863 30.7683 31.6658V35.1461C30.7683 35.4725 30.898 35.7854 31.1287 36.0162L34.5875 39.475Z" fill="#FFF"/>
<path fill-rule="evenodd" clip-rule="evenodd" d="M9.51762 32.8147C9.99815 33.2952 10.7772 33.2952 11.2577 32.8147L19.9583 24.1141C20.4389 23.6336 20.4389 22.8545 19.9583 22.374C19.4778 21.8935 18.6987 21.8935 18.2182 22.374L9.51762 31.0746C9.0371 31.5551 9.0371 32.3342 9.51762 32.8147Z" fill="#FFF"/>
<path fill-rule="evenodd" clip-rule="evenodd" d="M22.2027 20.1297C22.6832 20.6102 23.4623 20.6102 23.9428 20.1297L32.4013 11.6712C32.8818 11.1907 32.8818 10.4116 32.4013 9.93112C31.9208 9.45059 31.1417 9.45059 30.6612 9.93112L22.2027 18.3896C21.7222 18.8701 21.7222 19.6492 22.2027 20.1297Z" fill="#FFF"/>
<path fill-rule="evenodd" clip-rule="evenodd" d="M30.6612 11.6712C30.935 11.9451 31.3218 12.074 31.7052 12.0193L37.7956 11.1492C38.1953 11.0921 38.5416 10.8425 38.7222 10.4814L42.2025 3.52087C42.4393 3.04716 42.3465 2.47503 41.972 2.10053L40.2319 0.360425C39.8574 -0.0140727 39.2853 -0.106918 38.8116 0.129931L31.851 3.61014C31.4898 3.79071 31.2402 4.13698 31.1831 4.53669L30.3131 10.6272C30.2584 11.0106 30.3873 11.3974 30.6612 11.6712ZM32.9813 9.35107L33.5281 5.52293L39.1189 2.72764L39.6047 3.21354L36.8094 8.80418L32.9813 9.35107Z" fill="#FFF"/>
</svg>
