<svg width="57" height="56" viewBox="0 0 57 56" fill="none" xmlns="http://www.w3.org/2000/svg">
<path d="M29.7305 18.0742C29.7305 18.7538 29.1795 19.3047 28.5 19.3047C27.8204 19.3047 27.2695 18.7538 27.2695 18.0742C27.2695 17.3947 27.8204 16.8438 28.5 16.8438C29.1795 16.8438 29.7305 17.3947 29.7305 18.0742Z" fill="#FFF"/>
<path fill-rule="evenodd" clip-rule="evenodd" d="M34.5905 11.9837C31.2268 8.62001 25.7732 8.62001 22.4095 11.9837C21.9289 12.4642 21.1499 12.4642 20.6693 11.9837C20.1888 11.5032 20.1888 10.7241 20.6693 10.2436C24.9941 5.91881 32.0059 5.91881 36.3307 10.2436C36.8112 10.7241 36.8112 11.5032 36.3307 11.9837C35.8501 12.4642 35.071 12.4642 34.5905 11.9837ZM31.1102 15.464C29.6686 14.0224 27.3313 14.0224 25.8898 15.464C25.4093 15.9445 24.6302 15.9446 24.1497 15.464C23.6691 14.9835 23.6691 14.2044 24.1496 13.7239C26.5522 11.3212 30.4477 11.3212 32.8504 13.7239C33.3309 14.2044 33.3309 14.9835 32.8504 15.464C32.3699 15.9446 31.5908 15.9446 31.1102 15.464ZM10.3711 22.75C10.1445 22.75 9.96094 22.9336 9.96094 23.1602V46.1289C9.96094 46.3555 10.1445 46.5391 10.3711 46.5391H20.2148C20.4414 46.5391 20.625 46.3555 20.625 46.1289V23.1602C20.625 22.9336 20.4414 22.75 20.2148 22.75H10.3711ZM7.5 23.1602C7.5 21.5745 8.78541 20.2891 10.3711 20.2891H20.2148C21.8005 20.2891 23.0859 21.5745 23.0859 23.1602V46.1289C23.0859 47.7146 21.8005 49 20.2148 49H10.3711C8.78541 49 7.5 47.7146 7.5 46.1289V23.1602ZM33.9141 23.1602C33.9141 21.5745 35.1995 20.2891 36.7851 20.2891H46.6289C48.2146 20.2891 49.5 21.5745 49.5 23.1602V46.1289C49.5 47.7146 48.2146 49 46.6289 49H36.7851C35.1995 49 33.9141 47.7146 33.9141 46.1289V23.1602ZM36.7851 22.75C36.5586 22.75 36.375 22.9336 36.375 23.1602V46.1289C36.375 46.3555 36.5586 46.5391 36.7851 46.5391H46.6289C46.8554 46.5391 47.039 46.3555 47.039 46.1289V23.1602C47.039 22.9336 46.8554 22.75 46.6289 22.75H36.7851ZM11.6016 26.4414C11.6016 25.7619 12.1525 25.2109 12.832 25.2109H17.7539C18.4335 25.2109 18.9844 25.7619 18.9844 26.4414C18.9844 27.121 18.4335 27.6719 17.7539 27.6719H12.832C12.1525 27.6719 11.6016 27.121 11.6016 26.4414ZM38.0156 26.4414C38.0156 25.7619 38.5665 25.2109 39.2461 25.2109H44.168C44.8475 25.2109 45.3984 25.7619 45.3984 26.4414C45.3984 27.121 44.8475 27.6719 44.168 27.6719H39.2461C38.5665 27.6719 38.0156 27.121 38.0156 26.4414ZM27.6299 26.3917C28.1104 25.9111 28.8895 25.9111 29.3701 26.3917L31.831 28.8526C32.3115 29.3331 32.3115 30.1122 31.831 30.5927L29.3701 33.0537C28.8895 33.5342 28.1104 33.5342 27.6299 33.0537C27.1494 32.5731 27.1494 31.7941 27.6299 31.3135L27.9903 30.9531H26.0391C25.3595 30.9531 24.8086 30.4022 24.8086 29.7227C24.8086 29.0431 25.3595 28.4922 26.0391 28.4922H27.9903L27.6299 28.1318C27.1494 27.6513 27.1494 26.8722 27.6299 26.3917ZM11.6016 31.3633C11.6016 30.6837 12.1525 30.1328 12.832 30.1328H17.7539C18.4335 30.1328 18.9844 30.6837 18.9844 31.3633C18.9844 32.0429 18.4335 32.5938 17.7539 32.5938H12.832C12.1525 32.5938 11.6016 32.0429 11.6016 31.3633ZM38.0156 31.3633C38.0156 30.6837 38.5665 30.1328 39.2461 30.1328H44.168C44.8475 30.1328 45.3984 30.6837 45.3984 31.3633C45.3984 32.0429 44.8475 32.5938 44.168 32.5938H39.2461C38.5665 32.5938 38.0156 32.0429 38.0156 31.3633ZM11.6016 40.3867C11.6016 38.3481 13.2543 36.6953 15.293 36.6953C17.3316 36.6953 18.9844 38.3481 18.9844 40.3867C18.9844 42.4254 17.3316 44.0781 15.293 44.0781C13.2543 44.0781 11.6016 42.4254 11.6016 40.3867ZM15.293 39.1563C14.6134 39.1563 14.0625 39.7072 14.0625 40.3867C14.0625 41.0662 14.6134 41.6172 15.293 41.6172C15.9725 41.6172 16.5234 41.0662 16.5234 40.3867C16.5234 39.7072 15.9725 39.1563 15.293 39.1563ZM41.707 39.1563C41.0275 39.1563 40.4766 39.7072 40.4766 40.3867C40.4766 41.0662 41.0275 41.6172 41.707 41.6172C42.3865 41.6172 42.9375 41.0662 42.9375 40.3867C42.9375 39.7072 42.3865 39.1563 41.707 39.1563ZM38.0156 40.3867C38.0156 38.3481 39.6684 36.6953 41.707 36.6953C43.7457 36.6953 45.3984 38.3481 45.3984 40.3867C45.3984 42.4254 43.7457 44.0781 41.707 44.0781C39.6684 44.0781 38.0156 42.4254 38.0156 40.3867ZM29.3701 37.876C29.8506 38.3566 29.8506 39.1356 29.3701 39.6162L29.0097 39.9766H30.9609C31.6405 39.9766 32.1914 40.5275 32.1914 41.207C32.1914 41.8866 31.6405 42.4375 30.9609 42.4375H29.0097L29.3701 42.7979C29.8506 43.2784 29.8506 44.0575 29.3701 44.538C28.8895 45.0186 28.1104 45.0186 27.6299 44.538L25.169 42.0771C24.9382 41.8464 24.8086 41.5334 24.8086 41.207C24.8086 40.8807 24.9382 40.5677 25.169 40.337L27.6299 37.876C28.1104 37.3955 28.8895 37.3955 29.3701 37.876Z" fill="#FFF"/>
</svg>
