<svg width="49" height="42" viewBox="0 0 49 42" fill="none" xmlns="http://www.w3.org/2000/svg">
<path d="M48.1387 22.3312C48.1387 21.5604 47.5138 20.9355 46.743 20.9355H40.3021V19.1098C40.3021 13.6068 35.8251 9.12978 30.322 9.12978H27.0163L27.0815 9.04502C27.5518 8.43428 27.4378 7.55799 26.8271 7.08774C26.2163 6.61759 25.3398 6.73147 24.8698 7.34231L23.0748 9.67409C22.6885 10.176 22.6885 10.8749 23.0748 11.3768L24.8698 13.7087C25.1446 14.0658 25.5583 14.2531 25.9766 14.2531C26.2737 14.2531 26.5733 14.1585 26.827 13.9632C27.4377 13.4931 27.5518 12.6167 27.0815 12.006L27.0162 11.9211H30.3219C34.2859 11.9211 37.5107 15.1459 37.5107 19.1098V20.9355H31.1025C30.3318 20.9355 29.7069 21.5604 29.7069 22.3312V40.6043C29.7069 41.3751 30.3318 42 31.1025 42H46.743C47.5138 42 48.1387 41.3751 48.1387 40.6043V22.3312ZM45.3473 29.8194V33.1162H32.4983V29.8194H45.3473ZM32.4983 23.7268H45.3473V27.0237H32.4983V23.7268ZM45.3473 39.2087H32.4983V35.9118H45.3473V39.2087Z" fill="#FFF"/>
<path d="M23.6085 28.2914C23.1384 27.6806 22.2618 27.5665 21.6513 28.0368C21.0405 28.507 20.9265 29.3834 21.3967 29.9941L21.462 30.079H18.1563C14.1924 30.079 10.9676 26.8542 10.9676 22.8903V21.0646H17.536C18.3068 21.0646 18.9317 20.4397 18.9317 19.6689V1.39566C18.9317 0.624885 18.3068 0 17.536 0H1.89566C1.12489 0 0.5 0.624885 0.5 1.39566V19.6688C0.5 20.4396 1.12489 21.0645 1.89566 21.0645H8.17625V22.8902C8.17625 28.3932 12.6533 32.8702 18.1563 32.8702H21.462L21.3968 32.955C20.9266 33.5657 21.0405 34.442 21.6513 34.9123C21.905 35.1076 22.2044 35.2021 22.5017 35.2021C22.92 35.2021 23.3337 35.0148 23.6086 34.6577L25.4036 32.3259C25.7899 31.824 25.7899 31.1251 25.4036 30.6232L23.6085 28.2914ZM3.29133 12.1806V8.88377H16.1404V12.1806H3.29133ZM3.29133 2.79133H16.1404V6.08817H3.29133V2.79133ZM3.29133 14.9763H16.1404V18.2732H3.29133V14.9763Z" fill="#FFF"/>
</svg>
