<svg width="20" height="20" viewBox="0 0 20 20" fill="none" xmlns="http://www.w3.org/2000/svg">
<path d="M14.411 1.57293C12.7599 0.231215 10.6018 -0.285191 8.48965 0.156137C5.85016 0.707661 3.69672 2.87043 3.13109 5.53797C2.65418 7.78727 3.24188 10.0455 4.74352 11.7336C5.48828 12.5708 5.89844 13.6182 5.89844 14.6858V15.8577C5.89844 16.6215 6.38832 17.2728 7.07031 17.5147V18.2405C7.07031 19.2097 7.85887 19.9983 8.82812 19.9983H11.1719C12.1411 19.9983 12.9297 19.2097 12.9297 18.2405V17.5147C13.6117 17.2728 14.1016 16.6215 14.1016 15.8577V14.6858C14.1016 13.6319 14.5239 12.5697 15.2907 11.6948C16.4131 10.4143 17.0312 8.77133 17.0312 7.0686C17.0312 4.92926 16.0762 2.92614 14.411 1.57293ZM11.7578 18.2405C11.7578 18.5636 11.495 18.8264 11.1719 18.8264H8.82812C8.50504 18.8264 8.24219 18.5636 8.24219 18.2405V17.6155H11.7578V18.2405ZM12.9297 15.8577C12.9297 16.1807 12.6668 16.4436 12.3438 16.4436H7.65625C7.33316 16.4436 7.07031 16.1807 7.07031 15.8577V15.2717H12.9297V15.8577ZM10 9.94661C10.3957 9.94661 10.7913 9.88332 11.1719 9.75774V14.0999H8.82812V9.75774C9.20875 9.88332 9.6043 9.94661 10 9.94661ZM9.02051 8.57997L10 6.62098L10.9795 8.57993C10.3516 8.83829 9.6484 8.83829 9.02051 8.57997ZM14.4095 10.9224C13.5947 11.8519 13.0925 12.9622 12.9631 14.0998H12.3438V8.82821C12.3438 8.74825 12.3264 8.66016 12.2875 8.57743C12.2854 8.57313 12.284 8.56864 12.2819 8.56442L10.5241 5.04879C10.4248 4.85028 10.2219 4.72489 9.99996 4.72489C9.77801 4.72489 9.57516 4.85028 9.47586 5.04879L7.71805 8.56442C7.67926 8.64215 7.65621 8.73668 7.65621 8.82778V14.0999H7.03836C6.91273 12.9543 6.41984 11.8549 5.6191 10.9547C4.36766 9.54786 3.87863 7.66215 4.2775 5.78106C4.74828 3.56075 6.53734 1.76125 8.72934 1.30325C10.4945 0.934419 12.296 1.36422 13.672 2.48239C15.0621 3.61208 15.8594 5.28368 15.8594 7.0686C15.8594 8.48704 15.3445 9.85567 14.4095 10.9224Z" fill="#FFF"/>
<path d="M1.75781 7.0686H0.585938C0.262344 7.0686 0 7.33094 0 7.65454C0 7.97813 0.262344 8.24047 0.585938 8.24047H1.75781C2.08141 8.24047 2.34375 7.97813 2.34375 7.65454C2.34375 7.33094 2.08141 7.0686 1.75781 7.0686Z" fill="#FFF"/>
<path d="M2.00051 4.13891L1.17188 3.31028C0.943047 3.08145 0.57207 3.08145 0.343242 3.31028C0.114414 3.53911 0.114414 3.91008 0.343242 4.13891L1.17188 4.96754C1.40074 5.19641 1.77172 5.19633 2.00051 4.96754C2.22934 4.73872 2.22934 4.36774 2.00051 4.13891Z" fill="#FFF"/>
<path d="M2.00051 10.3415C1.77168 10.1127 1.4007 10.1127 1.17187 10.3415L0.343242 11.1702C0.114453 11.399 0.114453 11.77 0.343242 11.9988C0.572031 12.2276 0.943008 12.2276 1.17187 11.9988L2.00051 11.1702C2.2293 10.9413 2.2293 10.5704 2.00051 10.3415Z" fill="#FFF"/>
<path d="M19.4141 7.0686H18.2422C17.9186 7.0686 17.6562 7.33094 17.6562 7.65454C17.6562 7.97813 17.9186 8.24047 18.2422 8.24047H19.4141C19.7377 8.24047 20 7.97813 20 7.65454C20 7.33094 19.7377 7.0686 19.4141 7.0686Z" fill="#FFF"/>
<path d="M19.6568 3.31028C19.428 3.08145 19.057 3.08145 18.8281 3.31028L17.9995 4.13891C17.7707 4.36774 17.7707 4.73872 17.9995 4.96754C18.2283 5.19637 18.5993 5.19637 18.8281 4.96754L19.6568 4.13891C19.8856 3.91008 19.8856 3.53911 19.6568 3.31028Z" fill="#FFF"/>
<path d="M19.6568 11.1702L18.8281 10.3415C18.5994 10.1127 18.2284 10.1127 17.9995 10.3415C17.7706 10.5704 17.7707 10.9413 17.9995 11.1702L18.8281 11.9988C19.0569 12.2276 19.4279 12.2276 19.6568 11.9988C19.8856 11.77 19.8856 11.399 19.6568 11.1702Z" fill="#FFF"/>
</svg>
