<svg width="57" height="56" viewBox="0 0 57 56" fill="none" xmlns="http://www.w3.org/2000/svg">
<path d="M13.6523 11.9629C12.9746 11.9629 12.4219 12.5156 12.4219 13.1934C12.4219 13.871 12.9746 14.4238 13.6523 14.4238C14.3301 14.4238 14.8828 13.871 14.8828 13.1934C14.8828 12.5156 14.3301 11.9629 13.6523 11.9629Z" fill="#FFF"/>
<path d="M18.5742 11.9629C17.8965 11.9629 17.3438 12.5156 17.3438 13.1934C17.3438 13.871 17.8965 14.4238 18.5742 14.4238C19.2519 14.4238 19.8047 13.871 19.8047 13.1934C19.8047 12.5156 19.252 11.9629 18.5742 11.9629Z" fill="#FFF"/>
<path d="M23.4961 11.9629C22.8184 11.9629 22.2656 12.5156 22.2656 13.1934C22.2656 13.871 22.8184 14.4238 23.4961 14.4238C24.1738 14.4238 24.7266 13.871 24.7266 13.1934C24.7266 12.5156 24.1738 11.9629 23.4961 11.9629Z" fill="#FFF"/>
<path d="M13.6523 21.8887C12.9746 21.8887 12.4219 22.4415 12.4219 23.1191C12.4219 23.7969 12.9746 24.3496 13.6523 24.3496C14.3301 24.3496 14.8828 23.7968 14.8828 23.1191C14.8828 22.4414 14.3301 21.8887 13.6523 21.8887Z" fill="#FFF"/>
<path d="M18.5742 21.8887C17.8965 21.8887 17.3438 22.4415 17.3438 23.1191C17.3438 23.7969 17.8965 24.3496 18.5742 24.3496C19.2519 24.3496 19.8047 23.7968 19.8047 23.1191C19.8047 22.4414 19.252 21.8887 18.5742 21.8887Z" fill="#FFF"/>
<path d="M23.4961 21.8887C22.8184 21.8887 22.2656 22.4415 22.2656 23.1191C22.2656 23.7969 22.8184 24.3496 23.4961 24.3496C24.1738 24.3496 24.7266 23.7968 24.7266 23.1191C24.7266 22.4414 24.1738 21.8887 23.4961 21.8887Z" fill="#FFF"/>
<path d="M13.6523 31.8145C12.9746 31.8145 12.4219 32.3672 12.4219 33.0449C12.4219 33.7226 12.9746 34.2754 13.6523 34.2754C14.3301 34.2754 14.8828 33.7226 14.8828 33.0449C14.8828 32.3672 14.3301 31.8145 13.6523 31.8145Z" fill="#FFF"/>
<path d="M18.5742 31.8145C17.8965 31.8145 17.3438 32.3672 17.3438 33.0449C17.3438 33.7226 17.8965 34.2754 18.5742 34.2754C19.2519 34.2754 19.8047 33.7226 19.8047 33.0449C19.8047 32.3672 19.252 31.8145 18.5742 31.8145Z" fill="#FFF"/>
<path d="M23.4961 31.8145C22.8184 31.8145 22.2656 32.3672 22.2656 33.0449C22.2656 33.7226 22.8184 34.2754 23.4961 34.2754C24.1738 34.2754 24.7266 33.7226 24.7266 33.0449C24.7266 32.3672 24.1738 31.8145 23.4961 31.8145Z" fill="#FFF"/>
<path d="M48.7766 26.2212L39.4922 22.0218V8.23047C39.4922 7.55092 38.9413 7 38.2617 7H8.73047C8.05092 7 7.5 7.55092 7.5 8.23047V38.0078C7.5 38.6874 8.05092 39.2383 8.73047 39.2383H23.5781V44.3242H13.4473C12.7677 44.3242 12.2168 44.8751 12.2168 45.5547C12.2168 46.2342 12.7677 46.7852 13.4473 46.7852H35.0057L37.6064 48.7511C37.8259 48.9171 38.0871 49 38.3483 49C38.6098 49 38.8712 48.9169 39.0908 48.7508L46.0486 43.4862C48.3066 41.7778 49.5 38.9779 49.5 35.3892V27.3423C49.5 26.8589 49.217 26.4204 48.7766 26.2212ZM27.911 26.2197C27.6271 26.3481 27.4091 26.5763 27.2897 26.8516H9.96094V19.3867H37.0312V22.0959L27.911 26.2197ZM9.96094 9.46094H37.0312V16.9258H9.96094V9.46094ZM9.96094 29.3125H27.1875V35.3865C27.1875 35.8645 27.2093 36.3281 27.2514 36.7773H9.96094V29.3125ZM26.0391 44.3242V39.2383H27.7351C28.2931 41.0113 29.2713 42.4505 30.6426 43.487L31.7502 44.3242H26.0391ZM47.0391 35.3892C47.0391 38.217 46.2063 40.281 44.5639 41.5237L38.3482 46.2268L32.1267 41.5238C30.9924 40.6664 30.2439 39.4176 29.8886 37.7967C29.884 37.7703 29.8785 37.7442 29.8723 37.7182C29.7237 37.0102 29.6485 36.2328 29.6485 35.3865V28.1349L38.3438 24.2033L47.0391 28.1363V35.3892Z" fill="#FFF"/>
<path d="M37.7174 35.1577L36.5496 33.9899C36.0691 33.5095 35.29 33.5095 34.8094 33.9899C34.3289 34.4704 34.3289 35.2495 34.8094 35.7301L36.8473 37.768C37.0876 38.0083 37.4024 38.1284 37.7174 38.1284C38.0322 38.1284 38.3472 38.0082 38.5874 37.768L42.8456 33.5098C43.3262 33.0293 43.3262 32.2502 42.8456 31.7697C42.3651 31.2891 41.586 31.2891 41.1055 31.7697L37.7174 35.1577Z" fill="#FFF"/>
</svg>
