<svg width="57" height="56" viewBox="0 0 57 56" fill="none" xmlns="http://www.w3.org/2000/svg">
<path d="M20.3964 35.0004H20.3985C20.4004 35.0004 20.4022 35 20.404 35H45.7867C46.4116 35 46.961 34.5855 47.1327 33.9846L52.7327 14.3846C52.8534 13.9621 52.7688 13.5078 52.5045 13.1571C52.2398 12.8064 51.826 12.6 51.3867 12.6H17.1676L16.1668 8.0963C16.0243 7.45573 15.4563 7 14.8 7H6.4C5.62672 7 5 7.62672 5 8.4C5 9.17328 5.62672 9.8 6.4 9.8H13.6771C13.8543 10.5981 18.4663 31.3523 18.7317 32.5464C17.2438 33.1931 16.2 34.6766 16.2 36.4C16.2 38.7158 18.0842 40.6 20.4 40.6H45.7867C46.5599 40.6 47.1867 39.9733 47.1867 39.2C47.1867 38.4267 46.5599 37.8 45.7867 37.8H20.4C19.6282 37.8 19 37.1718 19 36.4C19 35.6293 19.626 35.0022 20.3964 35.0004ZM49.5306 15.4L44.7305 32.2H21.5229L17.7896 15.4H49.5306Z" fill="#FFF"/>
<path d="M19 44.8C19 47.1158 20.8842 49 23.2 49C25.5158 49 27.4 47.1158 27.4 44.8C27.4 42.4842 25.5158 40.6 23.2 40.6C20.8842 40.6 19 42.4842 19 44.8ZM23.2 43.4C23.9718 43.4 24.6 44.0282 24.6 44.8C24.6 45.5718 23.9718 46.2 23.2 46.2C22.4282 46.2 21.8 45.5718 21.8 44.8C21.8 44.0282 22.4282 43.4 23.2 43.4Z" fill="#FFF"/>
<path d="M38.7867 44.8C38.7867 47.1158 40.6708 49 42.9867 49C45.3025 49 47.1867 47.1158 47.1867 44.8C47.1867 42.4842 45.3025 40.6 42.9867 40.6C40.6708 40.6 38.7867 42.4842 38.7867 44.8ZM42.9867 43.4C43.7585 43.4 44.3867 44.0282 44.3867 44.8C44.3867 45.5718 43.7585 46.2 42.9867 46.2C42.2148 46.2 41.5867 45.5718 41.5867 44.8C41.5867 44.0282 42.2148 43.4 42.9867 43.4Z" fill="#FFF"/>
</svg>
