<svg width="42" height="34" viewBox="0 0 42 34" fill="none" xmlns="http://www.w3.org/2000/svg">
<path d="M41.6396 24.8018L38.3864 21.5486V10.3898L40.5103 9.62413C40.9978 9.44827 41.3229 8.98591 41.3234 8.46752C41.3238 7.94929 40.9993 7.48627 40.5119 7.30984L21.0806 0.272732C20.81 0.174714 20.5133 0.174714 20.2427 0.272732L0.811464 7.30984C0.325968 7.4857 0.00197614 7.94585 7.57776e-06 8.46219C-0.00179694 8.97852 0.318832 9.44105 0.802934 9.62044L7.97415 12.2769V20.3854C7.97415 20.6371 8.05125 20.8827 8.1952 21.0891C8.27436 21.2026 9.02413 22.2265 10.9438 23.1928C13.369 24.4136 16.5499 25.0326 20.3979 25.0326C24.2431 25.0326 27.4401 24.4149 29.8999 23.1964C31.8385 22.2362 32.6132 21.223 32.6952 21.1107C32.8488 20.9001 32.9315 20.6463 32.9315 20.3856V12.3563L35.9258 11.2768V21.5486L32.6726 24.8018C32.4419 25.0325 32.3122 25.3455 32.3122 25.6717C32.3122 25.998 32.4418 26.311 32.6726 26.5417L35.9258 29.7948V32.5243C35.9258 33.2038 36.4767 33.7547 37.1562 33.7547C37.8356 33.7547 38.3865 33.2038 38.3865 32.5243V29.7948L41.6396 26.5417C42.1201 26.0614 42.1201 25.2822 41.6396 24.8018ZM20.6617 2.73811L36.4726 8.46407L20.4037 14.2573L4.80748 8.47974L20.6617 2.73811ZM30.4708 19.8951C26.2647 23.6798 13.7661 23.2458 10.4349 19.9074V13.1885L19.9705 16.721C20.1218 16.7449 20.2647 16.8754 20.8151 16.7247L30.4708 13.2437L30.4708 19.8951ZM37.1561 27.5453L35.2824 25.6717L37.1561 23.7981L39.0297 25.6717L37.1561 27.5453Z" fill="#FFF"/>
</svg>
