<svg width="56" height="56" viewBox="0 0 56 56" fill="none" xmlns="http://www.w3.org/2000/svg">
<path d="M48.9999 47.7695V19.4687C48.9999 18.7892 48.449 18.2383 47.7695 18.2383H35.3868V16.8478C35.3868 13.1938 32.7199 10.1516 29.2303 9.56405V8.23047C29.2303 7.55092 28.6794 7 27.9999 7C27.3203 7 26.7694 7.55092 26.7694 8.23047V9.56396C23.28 10.1516 20.613 13.1938 20.613 16.8478V18.2383H8.23047C7.55092 18.2383 7 18.7892 7 19.4687V47.7695C7 48.4524 7.55904 49 8.23137 49C10.0116 49 46.7176 48.9997 47.7751 48.9997C48.4535 48.9965 48.9999 48.4421 48.9999 47.7695ZM9.46093 25.6068L22.491 35.2847L9.46093 45.2755V25.6068ZM24.5453 36.8106L27.2663 38.8315C27.7019 39.155 28.298 39.155 28.7336 38.8315L31.4766 36.7942L44.1504 46.539H11.8575L24.5453 36.8106ZM33.5301 35.269L46.5389 25.6068V45.2713L33.5301 35.269ZM23.074 16.8478C23.074 14.1317 25.2837 11.9219 28 11.9219C30.7162 11.9219 32.9259 14.1316 32.9259 16.8478C32.991 23.0371 32.7741 23.2856 33.1367 24.3086H22.8631C23.2271 23.2821 23.0095 22.9812 23.074 16.8478ZM29.2304 26.7695C29.2304 27.448 28.6784 28 28 28C27.3215 28 26.7695 27.448 26.7695 26.7695H29.2304ZM20.6131 20.6992V23.0781C20.6131 23.7566 20.0611 24.3086 19.3826 24.3086C18.703 24.3086 18.1521 24.8595 18.1521 25.539C18.1521 26.2186 18.703 26.7695 19.3826 26.7695H24.3086C24.3086 28.8049 25.9645 30.4609 28 30.4609C30.0354 30.4609 31.6914 28.8049 31.6914 26.7695H36.6173C37.2969 26.7695 37.8478 26.2186 37.8478 25.539C37.8478 24.8595 37.2969 24.3086 36.6173 24.3086C35.9388 24.3086 35.3869 23.7566 35.3869 23.0781V20.6992H46.539V22.5413L28 36.3109L9.46093 22.5413V20.6992H20.6131Z" fill="#FFF"/>
<path d="M19.8685 10.4733C20.3489 10.9538 21.1281 10.9539 21.6086 10.4733C22.0891 9.99275 22.0891 9.2137 21.6086 8.73316L20.2358 7.36045C19.7553 6.87991 18.9762 6.87991 18.4957 7.36045C18.0151 7.84098 18.0151 8.62004 18.4957 9.10057L19.8685 10.4733Z" fill="#FFF"/>
<path d="M36.1315 10.4733L37.5042 9.10057C37.9847 8.62004 37.9847 7.84098 37.5042 7.36045C37.0237 6.87991 36.2446 6.87991 35.764 7.36045L34.3913 8.73316C33.9108 9.2137 33.9108 9.99275 34.3913 10.4733C34.8717 10.9538 35.6509 10.9539 36.1315 10.4733Z" fill="#FFF"/>
<path d="M36.7613 14.5335C36.9366 15.1878 37.6099 15.58 38.2683 15.4035L40.1435 14.9011C40.7999 14.7252 41.1894 14.0505 41.0135 13.3941C40.8377 12.7377 40.163 12.348 39.5065 12.5241L37.6313 13.0265C36.9749 13.2024 36.5854 13.877 36.7613 14.5335Z" fill="#FFF"/>
<path d="M15.8563 14.9011L17.7316 15.4035C18.392 15.5806 19.0638 15.1858 19.2386 14.5335C19.4144 13.8771 19.025 13.2024 18.3685 13.0265L16.4933 12.5241C15.8367 12.348 15.1621 12.7377 14.9863 13.3941C14.8104 14.0505 15.2 14.7252 15.8563 14.9011Z" fill="#FFF"/>
</svg>
