<svg width="57" height="56" viewBox="0 0 57 56" fill="none" xmlns="http://www.w3.org/2000/svg">
<path d="M31.2793 49H24.5534C23.4299 49 22.5161 48.0861 22.5161 46.9627V31.792H18.592C17.4686 31.792 16.5547 30.8778 16.5547 29.7547V23.254C16.5547 22.1306 17.4686 21.2167 18.592 21.2167H22.5161V17.9614C22.5161 14.7337 23.5296 11.9876 25.4467 10.0204C27.3726 8.0443 30.0639 7 33.2298 7L38.3593 7.00833C39.4808 7.01025 40.3931 7.92413 40.3931 9.04565V15.0814C40.3931 16.2048 39.4795 17.1187 38.3564 17.1187L34.9028 17.12C33.8495 17.12 33.5813 17.3311 33.5239 17.3959C33.4294 17.5032 33.3169 17.8067 33.3169 18.6446V21.2164H38.0969C38.4567 21.2164 38.8053 21.3052 39.1049 21.4724C39.7513 21.8336 40.1531 22.5164 40.1531 23.2544L40.1505 29.755C40.1505 30.8778 39.2366 31.7917 38.1132 31.7917H33.3169V46.9627C33.3169 48.0861 32.4027 49 31.2793 49ZM24.9783 46.5378H30.8544V30.6897C30.8544 29.9396 31.4648 29.3295 32.2146 29.3295H37.6883L37.6906 23.6789H32.2143C31.4645 23.6789 30.8544 23.0688 30.8544 22.3187V18.6446C30.8544 17.6826 30.9521 16.5887 31.6782 15.7664C32.5556 14.7725 33.9383 14.6577 34.9021 14.6577L37.9309 14.6565V9.46991L33.2279 9.46222C28.14 9.46222 24.9783 12.7191 24.9783 17.9614V22.3187C24.9783 23.0685 24.3682 23.6789 23.6183 23.6789H19.0169V29.3295H23.6183C24.3682 29.3295 24.9783 29.9396 24.9783 30.6897V46.5378Z" fill="#FFF"/>
</svg>
