<svg width="43" height="42" viewBox="0 0 43 42" fill="none" xmlns="http://www.w3.org/2000/svg">
<path fill-rule="evenodd" clip-rule="evenodd" d="M21.5 0C22.1796 0 22.7305 0.5509 22.7305 1.23047V2.58333C31.9436 3.18976 39.3102 10.5564 39.9167 19.7695H41.2695C41.9491 19.7695 42.5 20.3204 42.5 21C42.5 21.6796 41.9491 22.2305 41.2695 22.2305H39.9167C39.3102 31.4436 31.9436 38.8102 22.7305 39.4167V40.7695C22.7305 41.4491 22.1796 42 21.5 42C20.8204 42 20.2695 41.4491 20.2695 40.7695V39.4167C11.0564 38.8103 3.68975 31.4436 3.08333 22.2305H1.73047C1.0509 22.2305 0.5 21.6796 0.5 21C0.5 20.3204 1.0509 19.7695 1.73047 19.7695H3.08333C3.68975 10.5564 11.0564 3.18975 20.2695 2.58333V1.23047C20.2695 0.5509 20.8204 0 21.5 0ZM20.2695 5.05053C12.4162 5.64795 6.14794 11.9162 5.55053 19.7695H6.81641C7.49598 19.7695 8.04688 20.3204 8.04688 21C8.04688 21.6796 7.49598 22.2305 6.81641 22.2305H5.55053C6.14794 30.0838 12.4162 36.3521 20.2695 36.9495V35.6836C20.2695 35.004 20.8204 34.4531 21.5 34.4531C22.1796 34.4531 22.7305 35.004 22.7305 35.6836V36.9495C30.5838 36.3521 36.852 30.0838 37.4495 22.2305H36.1836C35.504 22.2305 34.9531 21.6796 34.9531 21C34.9531 20.3204 35.504 19.7695 36.1836 19.7695H37.4495C36.852 11.9162 30.5838 5.64795 22.7305 5.05053V6.31641C22.7305 6.99598 22.1796 7.54688 21.5 7.54688C20.8204 7.54688 20.2695 6.99598 20.2695 6.31641V5.05053ZM21.5 12.3867C16.4471 12.3867 13.5577 18.1501 16.5808 22.1989L21.5 28.7871L26.4191 22.1989L26.4192 22.1988C29.4423 18.1501 26.5529 12.3867 21.5 12.3867ZM14.6089 23.6712C10.374 17.9994 14.4216 9.92578 21.5 9.92578C28.5784 9.92578 32.6261 17.9994 28.391 23.6712L22.486 31.5799C22.2537 31.891 21.8882 32.0742 21.5 32.0742C21.1118 32.0742 20.7463 31.891 20.514 31.5799L14.6089 23.6712L15.5948 22.935L14.6089 23.6712ZM21.5 17.3086C20.8205 17.3086 20.2695 17.8595 20.2695 18.5391C20.2695 19.2186 20.8205 19.7695 21.5 19.7695C22.1795 19.7695 22.7305 19.2186 22.7305 18.5391C22.7305 17.8595 22.1795 17.3086 21.5 17.3086ZM17.8086 18.5391C17.8086 16.5004 19.4613 14.8477 21.5 14.8477C23.5387 14.8477 25.1914 16.5004 25.1914 18.5391C25.1914 20.5777 23.5387 22.2305 21.5 22.2305C19.4613 22.2305 17.8086 20.5777 17.8086 18.5391Z" fill="#FFF"/>
</svg>
