<svg width="57" height="56" viewBox="0 0 57 56" fill="none" xmlns="http://www.w3.org/2000/svg">
<path d="M26.1616 35.5697C25.9275 35.5442 25.6566 35.5319 25.3445 35.5311C25.1557 35.5155 24.8009 35.5163 23.8426 35.6058C23.1003 35.7109 22.3251 35.8834 21.4834 36.1371C21.3019 36.2061 21.0482 36.3112 20.6959 36.4598C20.319 36.6331 19.9339 36.8778 19.5241 37.212C19.1341 37.5586 18.8031 37.9856 18.556 38.4544C18.2324 39.0145 18.0674 39.6829 18.0674 40.44C18.0674 41.9214 18.735 43.1499 20.0349 44.0786C21.2124 44.9646 22.8096 45.4261 24.805 45.4499C26.6042 45.4253 28.0223 45.0024 29.0184 44.1935C29.02 44.1927 29.0209 44.1919 29.0225 44.1911C30.0481 43.3494 30.5688 42.2507 30.5688 40.927C30.5688 39.8521 30.2124 38.9028 29.4815 38.0751C28.8378 37.4157 27.8762 36.643 26.5442 35.7134C26.4301 35.6338 26.2987 35.5853 26.1616 35.5697ZM28.9256 40.927C28.9256 41.7457 28.6169 42.3977 27.9821 42.9191C27.28 43.489 26.2026 43.7879 24.8034 43.8076C23.1865 43.7887 21.9145 43.4381 21.0063 42.7549C20.1351 42.1316 19.7105 41.3745 19.7105 40.4408C19.7105 39.9752 19.8 39.5835 19.993 39.2502C20.1638 38.9283 20.3732 38.6556 20.5884 38.4635C20.8626 38.2401 21.1295 38.0685 21.3586 37.9634C21.6633 37.8345 21.8997 37.7367 22.0114 37.6916C22.7176 37.4805 23.4115 37.3262 24.0348 37.2367C24.7007 37.1751 25.0021 37.1652 25.1253 37.1652C25.1762 37.1652 25.1967 37.1669 25.2025 37.1669C25.4127 37.194 25.6114 37.1751 25.7847 37.1858C26.9236 37.9897 27.7702 38.6729 28.2794 39.191C28.7138 39.687 28.9256 40.2553 28.9256 40.927Z" fill="#FFF"/>
<path d="M35.8137 11.3223H26.3498C25.0483 11.3223 23.6342 11.4758 22.1258 11.7829C20.5565 12.1492 19.0333 12.9342 17.547 14.1618C15.4316 16.2074 14.3592 18.5337 14.3592 21.076C14.3592 23.2102 15.1336 25.1022 16.6289 26.6632C18.1021 28.3975 20.2469 29.2951 23.0143 29.3295C23.1243 29.3295 23.2368 29.3279 23.3518 29.3246C23.2811 29.6071 23.2466 29.9208 23.2466 30.2722C23.2466 31.1238 23.4462 31.8727 23.8075 32.4393C23.8642 32.5485 23.9233 32.6577 23.984 32.7645C23.1456 32.8367 22.198 32.95 21.1453 33.1061C19.3732 33.4115 17.6578 34.0332 16.0336 34.9611C14.5333 35.8561 13.474 36.9269 12.8918 38.1324C12.2997 39.3173 12 40.4259 12 41.4269C12 43.4815 12.9394 45.2568 14.7657 46.684C16.5427 48.1875 19.2172 48.966 22.7334 48.9988C26.8737 48.934 30.1083 47.9108 32.3501 45.9573C34.5516 44.0333 35.6675 41.7743 35.6675 39.2295C35.6355 37.4508 35.2126 35.976 34.3939 34.8223C33.6081 33.7917 32.6802 32.8351 31.6365 31.9803L30.0631 30.6918C29.8554 30.4825 29.6435 30.2419 29.4062 29.9454C29.3093 29.8378 29.1812 29.6498 29.1812 29.2696C29.1812 28.9378 29.2674 28.6586 29.4719 28.3786C29.6862 28.0502 29.9161 27.757 30.105 27.5567C30.6075 27.1181 31.0822 26.687 31.5585 26.2338C31.9797 25.7895 32.3804 25.3026 32.7541 24.7811C33.5678 23.6307 33.9965 22.1091 34.026 20.2442L34.0269 19.9363C34.0301 19.2309 34.0318 18.8417 33.7994 18.0714C33.4783 17.1936 33.1753 16.5145 32.7089 16.0308L32.6875 16.0095H33.4882C33.7444 16.0095 33.985 15.8904 34.141 15.6867L36.4682 12.6419C36.657 12.3939 36.6907 12.0597 36.5519 11.7788C36.4107 11.4996 36.1266 11.3223 35.8137 11.3223ZM33.0809 14.368H30.5665C30.2035 14.368 29.8907 14.6118 29.7872 14.9608C29.6837 15.309 29.8307 15.6892 30.1354 15.8871C30.3201 16.007 31.0075 16.6721 31.3006 16.9563L31.5511 17.196C31.8409 17.4982 32.1316 18.2948 32.2408 18.5896C32.3886 19.0806 32.3878 19.2777 32.3845 19.9305L32.3837 20.2319C32.3599 21.7461 32.0331 22.9581 31.4156 23.8294C31.0896 24.286 30.7365 24.7146 30.3981 25.0735C29.9679 25.4808 29.5113 25.8963 28.9751 26.3684C28.6622 26.6928 28.3666 27.0681 28.1219 27.4466C27.7351 27.9738 27.5397 28.5872 27.5397 29.2712C27.5397 29.9692 27.7565 30.5654 28.1531 31.0064C28.4093 31.3283 28.6704 31.623 28.9291 31.8825C28.948 31.9014 28.9693 31.9203 28.9899 31.9376L30.596 33.2531C31.5412 34.0266 32.3804 34.8905 33.0727 35.797C33.6795 36.6527 34.0006 37.8179 34.026 39.2459C34.026 41.3095 33.1244 43.1013 31.271 44.7214C29.3315 46.4122 26.4508 47.2999 22.7301 47.3582C19.627 47.3286 17.3047 46.6807 15.8028 45.4112C14.3502 44.2755 13.6431 42.9723 13.6431 41.4277C13.6431 40.6838 13.8854 39.8224 14.3666 38.8575C14.8117 37.9361 15.6558 37.1002 16.8629 36.38C18.3065 35.5548 19.8413 34.998 21.4048 34.7279C23.0307 34.4881 24.3987 34.3518 25.4704 34.3206C25.7783 34.3115 26.0558 34.1317 26.188 33.8533C26.3211 33.5758 26.2866 33.2465 26.1002 33.0018C25.7914 32.5961 25.5098 32.1519 25.2306 31.6222C25.0015 31.2585 24.8898 30.8167 24.8898 30.2722C24.8898 29.9717 24.9284 29.7229 25.0236 29.4962C25.1238 29.2055 25.2191 28.9395 25.3078 28.6964C25.4047 28.4295 25.357 28.1315 25.1821 27.9081C25.0253 27.7094 24.7871 27.5952 24.5367 27.5952C24.5063 27.5952 24.4759 27.5969 24.4455 27.6002C23.9315 27.6577 23.4503 27.6872 23.0258 27.6872C20.7322 27.6585 19.0497 26.9753 17.8483 25.5645C16.6059 24.2654 16.0023 22.7972 16.0023 21.076C16.0023 18.9673 16.881 17.0918 18.6407 15.3862C19.8807 14.3647 21.179 13.6913 22.4772 13.3875C23.8559 13.1075 25.1591 12.9646 26.3506 12.9646H34.1541L33.0809 14.368Z" fill="#FFF"/>
<path d="M23.9774 15.457C22.8565 15.4841 21.9114 15.9399 21.1707 16.8128C21.1518 16.8349 21.1346 16.8579 21.1173 16.8826C20.5294 17.7464 20.2444 18.722 20.269 19.7624C20.269 21.0713 20.6501 22.4394 21.4088 23.8411C21.7956 24.5284 22.3006 25.1188 22.9083 25.5935C23.5808 26.1223 24.3609 26.39 25.2231 26.39C25.2338 26.39 25.2437 26.39 25.2535 26.39C26.3259 26.3498 27.2333 25.9556 27.9518 25.219C27.9872 25.1829 28.0192 25.1426 28.0479 25.1008C28.3846 24.5933 28.6055 24.062 28.7122 23.4625C28.7615 23.0027 28.7878 22.6036 28.7878 22.276C28.7878 20.8685 28.4265 19.4388 27.7186 18.033C27.359 17.2997 26.8728 16.6896 26.2471 16.201C25.5992 15.7338 24.8511 15.4841 23.9774 15.457ZM27.1455 22.276C27.1455 22.5445 27.1233 22.8844 27.088 23.2277C27.0346 23.5258 26.9114 23.8271 26.7234 24.126C26.3161 24.5186 25.8193 24.723 25.2083 24.7485C24.7214 24.7452 24.301 24.5999 23.9216 24.3018C23.4839 23.9593 23.1201 23.534 22.8467 23.0487C22.2259 21.9023 21.9114 20.7962 21.9114 19.7443C21.8941 19.0398 22.0707 18.4173 22.4509 17.8442C22.8803 17.3523 23.3788 17.1158 23.9708 17.1002C24.4734 17.1158 24.9037 17.2578 25.2609 17.5149C25.6641 17.8302 25.995 18.2482 26.2479 18.7647C26.8441 19.9455 27.1455 21.1272 27.1455 22.276Z" fill="#FFF"/>
<path d="M44.8466 9.46349H42.3832V7H40.7408V9.46349H38.2773V11.1058H40.7408V13.5693H42.3832V11.1058H44.8466V9.46349Z" fill="#FFF"/>
</svg>
