<svg width="48" height="42" viewBox="0 0 48 42" fill="none" xmlns="http://www.w3.org/2000/svg">
<path d="M46.6334 10.4974C45.8569 7.45238 44.2019 4.82669 41.8473 2.90419C39.5534 1.0315 36.7432 0 33.935 0C31.782 0 29.7279 0.579772 27.8303 1.72295C26.3318 2.62604 24.9841 3.85424 23.8064 5.38725C21.1284 1.89688 17.5929 0 13.6825 0C10.875 0 8.06616 1.0315 5.77268 2.90419C3.41874 4.82669 1.76408 7.45238 0.98761 10.4971C0.143562 13.8082 -0.0200545 19.0997 3.99673 25.5053C7.71474 31.4343 14.1594 36.9279 23.1523 41.8332C23.3561 41.9442 23.5809 42 23.8061 42C24.0312 42 24.256 41.9445 24.4598 41.8332C33.4552 36.9275 39.902 31.4339 43.6214 25.5053C47.64 19.0997 47.4775 13.8085 46.6334 10.4974ZM23.8061 39.0752C13.1465 33.1427 7.8716 27.2589 5.36471 22.3657H9.18231C9.69983 22.3657 10.1725 22.0733 10.4037 21.6109L12.1078 18.2027L16.7371 27.4616C16.9683 27.9244 17.4414 28.2167 17.9586 28.2167C18.4757 28.2167 18.9488 27.9244 19.18 27.4616L23.8093 18.2027L25.5134 21.6109C25.7449 22.0736 26.2176 22.3657 26.7348 22.3657H37.0917C37.8458 22.3657 38.4572 21.7542 38.4572 21.0002C38.4572 20.2461 37.8458 19.6347 37.0917 19.6347H27.5788L25.0311 14.5384C24.7995 14.0756 24.3268 13.7836 23.8093 13.7836C23.2921 13.7836 22.8194 14.0756 22.5882 14.5384L17.9586 23.7973L13.3293 14.5384C13.0977 14.0756 12.625 13.7836 12.1078 13.7836C11.5903 13.7836 11.1176 14.0756 10.8864 14.5384L8.33826 19.6347H4.19841C2.84501 15.6777 3.2601 12.639 3.63428 11.1722C4.9016 6.20249 9.03327 2.73133 13.6825 2.73133C17.1988 2.73133 20.3794 4.78578 22.638 8.51553C22.8852 8.92421 23.328 9.17391 23.8057 9.17391H23.8061C24.2834 9.17391 24.7266 8.92457 24.9741 8.51588C27.2345 4.78578 30.4169 2.73133 33.935 2.73133C38.586 2.73133 42.7194 6.20249 43.9867 11.1722C44.8656 14.6195 45.9725 26.7413 23.8061 39.0752Z" fill="#FFF"/>
</svg>
