<svg width="43" height="42" viewBox="0 0 43 42" fill="none" xmlns="http://www.w3.org/2000/svg">
<path d="M37.9809 24.2248C35.3808 23.043 31.9844 22.3705 28.3724 22.3165C29.6662 20.0712 30.3618 17.4924 30.3618 14.8477C30.3618 10.9063 28.8256 7.18659 26.0362 4.37391C23.239 1.55334 19.5314 0 15.5962 0C7.43113 0 0.666504 6.70827 0.666504 14.8477C0.666504 22.1392 6.05087 28.3078 13.0584 29.4901C13.055 29.5583 13.0532 29.6267 13.0532 29.6953V34.6172C13.0532 36.7709 14.7331 38.7143 17.7834 40.0893C20.5168 41.3214 24.1099 42 27.9009 42C35.7504 42 42.6665 39.0545 42.6665 34.6172V29.6953C42.6665 27.541 41.0024 25.5983 37.9809 24.2248ZM3.12744 14.8477C3.12744 8.13332 8.83739 2.46094 15.5962 2.46094C18.5417 2.46094 21.2484 3.50864 23.369 5.25271L5.93824 22.6834C4.18031 20.5385 3.12744 17.8027 3.12744 14.8477ZM13.9131 27.1299C11.561 26.824 9.42039 25.856 7.67739 24.4246L25.1059 6.99604C26.8515 9.13467 27.9009 11.8701 27.9009 14.8477C27.9009 17.6039 26.9995 20.2715 25.3536 22.4167C21.4793 22.7359 16.093 24.0397 13.9131 27.1299ZM20.4119 25.8582L32.2111 34.2862C30.8492 34.5037 29.3963 34.6172 27.9009 34.6172C20.8114 34.6172 15.5142 32.0187 15.5142 29.6953C15.5142 28.3114 17.3938 26.83 20.4119 25.8582ZM40.2056 34.6172C40.2056 36.8725 35.2013 39.5391 27.9009 39.5391C20.8114 39.5391 15.5142 36.9406 15.5142 34.6172V33.8594C17.665 35.4611 21.9033 37.0781 27.9009 37.0781C33.8928 37.0781 38.0804 35.4629 40.2056 33.8766V34.6172ZM35.3901 33.5326L23.5957 25.108C24.9238 24.8948 26.3704 24.7734 27.9009 24.7734C35.204 24.7734 40.2056 27.4416 40.2056 29.6953C40.2056 31.5357 37.2024 32.9405 35.3901 33.5326Z" fill="#FFF"/>
</svg>
