<svg width="57" height="56" viewBox="0 0 57 56" fill="none" xmlns="http://www.w3.org/2000/svg">
<path fill-rule="evenodd" clip-rule="evenodd" d="M15.7947 8.23047C15.7947 7.5509 16.3456 7 17.0251 7H21.947C22.6266 7 23.1775 7.5509 23.1775 8.23047V10.4082C23.5871 10.6044 23.9775 10.8318 24.3471 11.0874L26.1653 10.0375C26.4479 9.87434 26.7838 9.83011 27.099 9.91457C27.4142 9.99903 27.683 10.2053 27.8462 10.4879L30.3071 14.7504C30.6469 15.3389 30.4452 16.0915 29.8567 16.4312L28.0667 17.4647C28.0874 17.689 28.0994 17.9197 28.0994 18.1562C28.0994 18.3928 28.0874 18.6235 28.0667 18.8478L29.592 19.7284C29.7432 19.7499 29.893 19.8002 30.0334 19.8813L31.8516 20.9311C32.2212 20.6756 32.6116 20.4482 33.0212 20.2519V18.1562C33.0212 17.4767 33.5721 16.9258 34.2517 16.9258H39.1736C39.8531 16.9258 40.404 17.4767 40.404 18.1562V20.2519C40.8137 20.4482 41.2041 20.6756 41.5736 20.9311L43.3918 19.8813C43.6744 19.7181 44.0103 19.6739 44.3255 19.7583C44.6408 19.8428 44.9095 20.049 45.0727 20.3316L47.5336 24.5941C47.8734 25.1827 47.6718 25.9352 47.0833 26.275L45.2933 27.3084C45.3139 27.5327 45.3259 27.7634 45.3259 28C45.3259 28.2366 45.3139 28.4673 45.2933 28.6916L47.0833 29.725C47.6718 30.0648 47.8734 30.8173 47.5336 31.4059L45.0727 35.6684C44.9095 35.951 44.6408 36.1572 44.3255 36.2417C44.0103 36.3261 43.6744 36.2819 43.3918 36.1187L41.5736 35.0689C41.2041 35.3244 40.8137 35.5519 40.404 35.7481V37.8438C40.404 38.5233 39.8531 39.0742 39.1736 39.0742H34.2517C33.5721 39.0742 33.0212 38.5233 33.0212 37.8438V35.748C32.6116 35.5518 32.2212 35.3244 31.8516 35.0689L30.0334 36.1187C29.893 36.1998 29.7432 36.2501 29.592 36.2716L28.0667 37.1522C28.0874 37.3765 28.0994 37.6072 28.0994 37.8438C28.0994 38.0803 28.0874 38.311 28.0667 38.5353L29.8567 39.5687C30.4452 39.9085 30.6469 40.6611 30.3071 41.2496L27.8462 45.5121C27.683 45.7947 27.4142 46.001 27.099 46.0854C26.7838 46.1699 26.4479 46.1257 26.1653 45.9625L24.3471 44.9126C23.9775 45.1682 23.5872 45.3956 23.1775 45.5918V47.7695C23.1775 48.4491 22.6266 49 21.947 49H17.0251C16.3456 49 15.7947 48.4491 15.7947 47.7695V45.5917C15.385 45.3955 14.9946 45.1682 14.6251 44.9126L12.8069 45.9625C12.5243 46.1257 12.1884 46.1699 11.8732 46.0854C11.5579 46.001 11.2892 45.7947 11.126 45.5121L8.66506 41.2496C8.32527 40.6611 8.52692 39.9085 9.11544 39.5687L10.9054 38.5353C10.8848 38.311 10.8728 38.0803 10.8728 37.8438C10.8728 37.6072 10.8848 37.3765 10.9054 37.1522L9.11544 36.1187C8.52692 35.779 8.32527 35.0264 8.66506 34.4379L11.126 30.1754C11.2892 29.8928 11.5579 29.6865 11.8732 29.6021C12.1884 29.5176 12.5243 29.5618 12.8069 29.725L14.6251 30.7749C14.9946 30.5193 15.385 30.2919 15.7947 30.0957L15.7947 25.9042C15.385 25.708 14.9946 25.4807 14.6251 25.2251L12.8069 26.275C12.5243 26.4382 12.1884 26.4824 11.8732 26.3979C11.5579 26.3135 11.2892 26.1072 11.126 25.8246L8.66505 21.5621C8.32527 20.9736 8.52692 20.221 9.11544 19.8813L10.9054 18.8478C10.8848 18.6235 10.8728 18.3928 10.8728 18.1562C10.8728 17.9197 10.8848 17.689 10.9054 17.4647L9.11544 16.4312C8.52692 16.0915 8.32527 15.3389 8.66505 14.7504L11.126 10.4879C11.2892 10.2053 11.5579 9.99903 11.8732 9.91457C12.1884 9.83011 12.5243 9.87434 12.8069 10.0375L14.6251 11.0874C14.9946 10.8318 15.385 10.6044 15.7947 10.4082V8.23047ZM29.736 33.4487L31.3327 32.5268C31.7839 32.2663 32.3503 32.3182 32.7466 32.6563C33.3133 33.1398 33.9564 33.5176 34.6648 33.7701C35.1549 33.9448 35.4821 34.4089 35.4821 34.9292V36.6133H37.9431V34.9293C37.9431 34.4091 38.2703 33.945 38.7604 33.7703C39.4687 33.5179 40.1119 33.1399 40.6786 32.6563C41.0749 32.3182 41.6413 32.2663 42.0925 32.5268L43.5567 33.3722L44.7872 31.241L43.3446 30.4081C42.8933 30.1476 42.6551 29.631 42.7499 29.1186C42.8218 28.7304 42.865 28.3626 42.865 28C42.865 27.6374 42.8218 27.2696 42.7499 26.8814C42.6551 26.369 42.8933 25.8524 43.3446 25.5919L44.7872 24.759L43.5567 22.6278L42.0925 23.4732C41.6413 23.7337 41.0749 23.6818 40.6786 23.3437C40.1119 22.8602 39.4687 22.4822 38.7603 22.2297C38.2703 22.0549 37.9431 21.5909 37.9431 21.0707V19.3867H35.4821V21.0707C35.4821 21.5909 35.155 22.0549 34.6649 22.2297C33.9565 22.4822 33.3133 22.8602 32.7466 23.3437C32.3503 23.6818 31.7839 23.7337 31.3327 23.4732L29.736 22.5513L28.5056 24.6825L30.0807 25.5918C30.532 25.8524 30.7702 26.369 30.6754 26.8814C30.6035 27.2698 30.5603 27.6375 30.5603 28C30.5603 28.3625 30.6035 28.7302 30.6754 29.1186C30.7702 29.631 30.532 30.1476 30.0807 30.4081L28.5056 31.3175L29.736 33.4487ZM26.606 29.5726L28.132 28.6916C28.1113 28.4673 28.0993 28.2366 28.0993 28C28.0993 27.7634 28.1113 27.5327 28.132 27.3084L26.606 26.4274C26.4521 26.4054 26.3024 26.3542 26.1653 26.275L24.3471 25.2251C23.9775 25.4807 23.5872 25.7081 23.1775 25.9043L23.1775 30.0957C23.5871 30.2919 23.9775 30.5193 24.3471 30.7749L26.1653 29.725C26.3024 29.6458 26.4521 29.5946 26.606 29.5726ZM26.3302 23.5285L27.5606 21.3973L26.1181 20.5644C25.6668 20.3038 25.4285 19.7873 25.5234 19.2749C25.5952 18.8866 25.6384 18.5188 25.6384 18.1562C25.6384 17.7937 25.5952 17.4259 25.5234 17.0376C25.4285 16.5252 25.6668 16.0087 26.1181 15.7481L27.5606 14.9152L26.3302 12.784L24.866 13.6294C24.4148 13.89 23.8484 13.8381 23.4521 13.4999C22.8854 13.0164 22.2422 12.6385 21.5338 12.3859C21.0437 12.2112 20.7165 11.7472 20.7165 11.2269V9.46094H18.2556V11.2269C18.2556 11.7472 17.9284 12.2112 17.4383 12.3859C16.7299 12.6385 16.0868 13.0164 15.5201 13.4999C15.1237 13.8381 14.5574 13.89 14.1062 13.6294L12.642 12.784L11.4115 14.9152L12.8541 15.7481C13.3054 16.0087 13.5436 16.5252 13.4488 17.0376C13.3769 17.4259 13.3337 17.7937 13.3337 18.1562C13.3337 18.5188 13.3769 18.8866 13.4488 19.2749C13.5436 19.7873 13.3054 20.3038 12.8541 20.5644L11.4115 21.3973L12.642 23.5285L14.1062 22.6831C14.5574 22.4225 15.1237 22.4744 15.5201 22.8126C16.0868 23.2961 16.7298 23.6739 17.4382 23.9264C17.9283 24.1011 18.2556 24.5651 18.2556 25.0854V26.7695H20.7165V25.0856C20.7165 24.5653 21.0438 24.1012 21.5339 23.9266C22.2421 23.6741 22.8853 23.2961 23.4521 22.8126C23.8484 22.4744 24.4148 22.4225 24.866 22.6831L26.3302 23.5285ZM20.7165 29.2305H18.2556L18.2556 30.9144C18.2556 31.4347 17.9284 31.8987 17.4383 32.0734C16.7299 32.326 16.0868 32.7039 15.5201 33.1874C15.1237 33.5256 14.5574 33.5775 14.1062 33.3169L12.642 32.4715L11.4115 34.6027L12.8541 35.4356C13.3054 35.6962 13.5436 36.2127 13.4488 36.7251C13.3769 37.1134 13.3337 37.4812 13.3337 37.8438C13.3337 38.2064 13.3769 38.5741 13.4488 38.9624C13.5436 39.4748 13.3054 39.9913 12.8541 40.2519L11.4115 41.0848L12.642 43.216L14.1062 42.3706C14.5574 42.11 15.1237 42.1619 15.5201 42.5001C16.0868 42.9835 16.7298 43.3614 17.4382 43.6139C17.9283 43.7886 18.2556 44.2526 18.2556 44.7729V46.5391H20.7165V44.7731C20.7165 44.2528 21.0438 43.7887 21.5339 43.6141C22.2421 43.3616 22.8853 42.9836 23.4521 42.5001C23.8484 42.1619 24.4148 42.11 24.866 42.3706L26.3302 43.216L27.5606 41.0848L26.1181 40.2519C25.6668 39.9913 25.4285 39.4748 25.5234 38.9624C25.5952 38.5741 25.6384 38.2063 25.6384 37.8438C25.6384 37.4812 25.5952 37.1134 25.5234 36.7251C25.4285 36.2127 25.6668 35.6962 26.1181 35.4356L27.5606 34.6027L26.3302 32.4715L24.866 33.3169C24.4148 33.5775 23.8484 33.5256 23.4521 33.1874C22.8854 32.7039 22.2422 32.326 21.5338 32.0734C21.0437 31.8987 20.7165 31.4347 20.7165 30.9144L20.7165 29.2305ZM24.0476 14.8252C24.5281 15.3058 24.5281 16.0849 24.0476 16.5654L19.1257 21.4873C18.6452 21.9678 17.8661 21.9678 17.3855 21.4873L14.9246 19.0263C14.4441 18.5458 14.4441 17.7667 14.9246 17.2862C15.4051 16.8056 16.1842 16.8056 16.6647 17.2862L18.2556 18.877L22.3074 14.8252C22.7879 14.3447 23.567 14.3447 24.0476 14.8252ZM41.2741 24.669C41.7546 25.1495 41.7546 25.9286 41.2741 26.4091L36.3522 31.331C35.8717 31.8115 35.0926 31.8115 34.6121 31.331L32.1512 28.8701C31.6706 28.3895 31.6706 27.6105 32.1512 27.1299C32.6317 26.6494 33.4108 26.6494 33.8913 27.1299L35.4822 28.7208L39.534 24.669C40.0145 24.1885 40.7936 24.1885 41.2741 24.669ZM24.0476 34.5127C24.5281 34.9933 24.5281 35.7724 24.0476 36.2529L19.1257 41.1748C18.6452 41.6553 17.8661 41.6553 17.3855 41.1748L14.9246 38.7138C14.4441 38.2333 14.4441 37.4542 14.9246 36.9737C15.4051 36.4932 16.1842 36.4932 16.6647 36.9737L18.2556 38.5645L22.3074 34.5127C22.7879 34.0322 23.567 34.0322 24.0476 34.5127Z" fill="#FFF"/>
</svg>
