<svg width="57" height="56" viewBox="0 0 57 56" fill="none" xmlns="http://www.w3.org/2000/svg">
<path fill-rule="evenodd" clip-rule="evenodd" d="M6.91482 47.7695C6.91482 48.4491 7.46572 49 8.14529 49H47.6844C48.3639 49 48.9148 48.4491 48.9148 47.7695V22.9961C48.9148 22.6054 48.7292 22.2379 48.4148 22.0059L43.4109 18.3145C42.864 17.9111 42.0937 18.0274 41.6903 18.5742C41.2868 19.1211 41.4031 19.8914 41.95 20.2949L46.4539 23.6174V46.5391H9.37576V23.6174L13.8797 20.2949C14.4265 19.8914 14.5428 19.1211 14.1394 18.5742C13.736 18.0274 12.9656 17.9111 12.4187 18.3145L7.41482 22.0059C7.1004 22.2379 6.91482 22.6054 6.91482 22.9961V47.7695Z" fill="#FFF"/>
<path fill-rule="evenodd" clip-rule="evenodd" d="M20.3679 13.8906C20.7757 14.4343 21.5469 14.5445 22.0906 14.1367L27.9148 9.76855L33.739 14.1367C34.2827 14.5445 35.054 14.4343 35.4617 13.8906C35.8694 13.347 35.7593 12.5757 35.2156 12.168L28.6531 7.24609C28.2156 6.91797 27.614 6.91797 27.1765 7.24609L20.614 12.168C20.0704 12.5757 19.9602 13.347 20.3679 13.8906Z" fill="#FFF"/>
<path fill-rule="evenodd" clip-rule="evenodd" d="M13.1492 31.6094C13.8288 31.6094 14.3797 31.0585 14.3797 30.3789V14.3828H41.45V30.3789C41.45 31.0585 42.0009 31.6094 42.6804 31.6094C43.36 31.6094 43.9109 31.0585 43.9109 30.3789V13.1523C43.9109 12.4728 43.36 11.9219 42.6804 11.9219H13.1492C12.4696 11.9219 11.9187 12.4728 11.9187 13.1523V30.3789C11.9187 31.0585 12.4696 31.6094 13.1492 31.6094Z" fill="#FFF"/>
<path fill-rule="evenodd" clip-rule="evenodd" d="M27.3664 38.8632C27.7118 39.0352 28.1179 39.0352 28.4633 38.8632L48.2328 29.0194C48.8411 28.7165 49.0887 27.9778 48.7858 27.3695C48.4829 26.7612 47.7442 26.5136 47.1359 26.8165L27.9148 36.3872L8.69374 26.8165C8.08542 26.5136 7.34672 26.7612 7.04381 27.3695C6.74091 27.9778 6.98851 28.7165 7.59684 29.0194L27.3664 38.8632Z" fill="#FFF"/>
<path fill-rule="evenodd" clip-rule="evenodd" d="M19.3015 20.5352C19.3015 21.2147 19.8524 21.7656 20.532 21.7656H35.2976C35.9772 21.7656 36.5281 21.2147 36.5281 20.5352C36.5281 19.8556 35.9772 19.3047 35.2976 19.3047H20.532C19.8524 19.3047 19.3015 19.8556 19.3015 20.5352Z" fill="#FFF"/>
<path fill-rule="evenodd" clip-rule="evenodd" d="M19.3015 25.457C19.3015 26.1366 19.8524 26.6875 20.532 26.6875H27.9148C28.5944 26.6875 29.1453 26.1366 29.1453 25.457C29.1453 24.7775 28.5944 24.2266 27.9148 24.2266H20.532C19.8524 24.2266 19.3015 24.7775 19.3015 25.457Z" fill="#FFF"/>
</svg>
