<svg width="56" height="56" viewBox="0 0 56 56" fill="none" xmlns="http://www.w3.org/2000/svg">
<path fill-rule="evenodd" clip-rule="evenodd" d="M16.5615 18.4383C16.5615 12.1211 21.6827 7 28 7C34.3173 7 39.4386 12.1211 39.4386 18.4383C39.4386 19.652 39.0108 21.1772 38.4214 22.7466C37.8184 24.3522 36.992 26.1414 36.0869 27.932C34.9272 30.2262 33.6211 32.5565 32.4521 34.5567C34.6396 34.7813 36.5888 35.1696 38.1147 35.6851C39.0963 36.0168 39.9728 36.4242 40.6289 36.9253C41.2644 37.4106 41.8953 38.1474 41.8953 39.1443C41.8953 40.2693 41.0994 41.0617 40.353 41.5602C39.5609 42.0892 38.4957 42.5177 37.2899 42.8583C34.8614 43.5444 31.5773 43.9526 28.0001 43.9526C24.4228 43.9526 21.1387 43.5444 18.7102 42.8583C17.5044 42.5177 16.4392 42.0892 15.6471 41.5602C14.9007 41.0617 14.1048 40.2693 14.1048 39.1443C14.1048 38.1474 14.7357 37.4106 15.3712 36.9253C16.0273 36.4242 16.9038 36.0168 17.8854 35.6851C19.4113 35.1696 21.3605 34.7813 23.5479 34.5567C22.379 32.5565 21.0728 30.2262 19.9132 27.932C19.0081 26.1414 18.1817 24.3522 17.5787 22.7466C16.9893 21.1772 16.5615 19.652 16.5615 18.4383ZM26.6811 35.0178C26.6734 35.0044 26.6655 34.9912 26.6574 34.9782C25.2969 32.7093 23.5783 29.7277 22.1095 26.8218C21.2251 25.0722 20.4419 23.3708 19.8825 21.8814C19.3096 20.3559 19.0225 19.1819 19.0225 18.4383C19.0225 13.4803 23.0418 9.46094 28 9.46094C32.9583 9.46094 36.9776 13.4803 36.9776 18.4383C36.9776 19.1819 36.6905 20.3559 36.1175 21.8814C35.5582 23.3708 34.775 25.0722 33.8906 26.8218C32.422 29.7271 30.7037 32.7083 29.3434 34.977C29.3348 34.9908 29.3264 35.0048 29.3182 35.019C29.0505 35.4652 28.7969 35.8835 28.5621 36.2677C28.3049 36.6884 27.6952 36.6884 27.438 36.2677C27.203 35.8831 26.9491 35.4645 26.6811 35.0178ZM24.9451 36.9049C22.4026 37.0884 20.2241 37.4925 18.6731 38.0166C17.8169 38.3059 17.2214 38.6088 16.8649 38.8811C16.7041 39.0039 16.626 39.0925 16.5894 39.144C16.6347 39.2089 16.7468 39.3353 17.0139 39.5137C17.5036 39.8408 18.2931 40.1833 19.3792 40.4901C21.5344 41.0989 24.5827 41.4916 28.0001 41.4916C31.4174 41.4916 34.4657 41.0989 36.6209 40.4901C37.707 40.1833 38.4966 39.8407 38.9862 39.5137C39.2533 39.3353 39.3654 39.2089 39.4108 39.144C39.3741 39.0925 39.2961 39.0039 39.1352 38.8811C38.7787 38.6088 38.1832 38.3059 37.327 38.0166C35.776 37.4925 33.5975 37.0884 31.0549 36.9049C30.9189 37.1296 30.7876 37.3453 30.6618 37.5511L30.6618 37.5511C29.445 39.5418 26.555 39.5418 25.3382 37.5511L25.3382 37.5511C25.2124 37.3453 25.0812 37.1296 24.9451 36.9049ZM39.441 39.1968C39.4409 39.1968 39.4403 39.1954 39.4395 39.1924C39.4407 39.1953 39.4411 39.1968 39.441 39.1968ZM16.5591 39.1968C16.559 39.1968 16.5594 39.1953 16.5606 39.1924C16.5598 39.1953 16.5592 39.1968 16.5591 39.1968ZM28 15.5165C26.82 15.5165 25.8635 16.4731 25.8635 17.6531C25.8635 18.833 26.82 19.7896 28 19.7896C29.1801 19.7896 30.1366 18.833 30.1366 17.6531C30.1366 16.4731 29.18 15.5165 28 15.5165ZM23.4025 17.6531C23.4025 15.1139 25.4609 13.0555 28 13.0555C30.5392 13.0555 32.5976 15.1139 32.5976 17.6531C32.5976 20.1921 30.5392 22.2505 28 22.2505C25.4609 22.2505 23.4025 20.1921 23.4025 17.6531ZM12.2533 36.9328C12.5806 37.5285 12.363 38.2765 11.7674 38.6037C9.97144 39.5904 9.46094 40.4838 9.46094 41.0529C9.46094 41.4518 9.69698 42.0191 10.5546 42.708C11.4009 43.3878 12.701 44.0543 14.4167 44.6372C17.8358 45.7988 22.6383 46.5391 28 46.5391C33.3618 46.5391 38.1643 45.7988 41.5834 44.6372C43.2991 44.0543 44.5991 43.3878 45.4454 42.708C46.303 42.0191 46.5391 41.4518 46.5391 41.0529C46.5391 40.4837 46.0286 39.5903 44.2327 38.6037C43.6371 38.2765 43.4195 37.5285 43.7467 36.9328C44.074 36.3372 44.822 36.1196 45.4177 36.4469C47.3542 37.5107 49 39.034 49 41.0529C49 42.5088 48.1297 43.7084 46.9865 44.6266C45.832 45.554 44.2369 46.3348 42.375 46.9674C38.639 48.2367 33.5567 49 28 49C22.4434 49 17.3611 48.2367 13.625 46.9674C11.7631 46.3348 10.168 45.554 9.0135 44.6266C7.87035 43.7084 7 42.5088 7 41.0529C7 39.0339 8.64594 37.5107 10.5824 36.4469C11.1781 36.1196 11.9261 36.3372 12.2533 36.9328Z" fill="#FFF"/>
</svg>
