<svg width="43" height="32" viewBox="0 0 43 32" fill="none" xmlns="http://www.w3.org/2000/svg">
<path d="M39.6275 14.0437H39.1334L37.5807 7.18906C37.3673 6.24767 36.5449 5.59027 35.5798 5.59027H29.3071V3.5385C29.3071 1.95456 28.0185 0.666016 26.4346 0.666016C25.461 0.666016 4.34636 0.666016 3.37257 0.666016C1.78855 0.666016 0.5 1.95456 0.5 3.5385V23.728C0.5 25.3112 1.78855 26.6005 3.37249 26.6005H5.6984C6.26548 29.235 8.61355 31.2163 11.4155 31.2163C14.2174 31.2163 16.5655 29.235 17.1326 26.6005H28.9451C29.5122 29.235 31.8602 31.2163 34.6622 31.2163C37.5018 31.2163 39.8753 29.1825 40.4006 26.4947C41.6104 26.1566 42.5 25.0445 42.5 23.728V16.9161C42.5 15.3321 41.2115 14.0437 39.6275 14.0437ZM40.0378 16.9162V23.0691C39.1433 20.9845 37.0701 19.5211 34.6622 19.5211C32.2723 19.5211 30.2131 20.9623 29.307 23.0215V16.5058H39.6274C39.854 16.5058 40.0378 16.6896 40.0378 16.9162ZM35.2515 8.05244L36.6089 14.0437H29.3071V8.05244H35.2515ZM18.9529 3.12818V7.57641L15.3623 6.13438C15.0691 6.01642 14.7392 6.01593 14.4447 6.13438L10.8541 7.57641V3.12818H18.9529ZM2.96217 23.728V3.5385C2.96217 3.31202 3.146 3.12818 3.37249 3.12818H8.39198V9.39758C8.39198 10.2674 9.27152 10.8646 10.0818 10.54L14.9035 8.60402L19.7253 10.54C20.537 10.8647 21.4151 10.266 21.4151 9.39758V3.12818H26.4346C26.6611 3.12818 26.8449 3.31202 26.8449 3.5385V24.1384H17.1326C16.5655 21.5023 14.2174 19.5211 11.4155 19.5211C8.61355 19.5211 6.26548 21.5023 5.6984 24.1384H3.37249C3.146 24.1384 2.96217 23.9538 2.96217 23.728ZM11.4155 28.7541C9.05061 28.7541 7.39235 26.3691 8.26065 24.1384C9.61408 20.6875 14.8009 21.6201 14.8009 25.3695C14.8009 27.2407 13.2781 28.7541 11.4155 28.7541ZM34.6622 28.7541C32.2866 28.7541 30.6408 26.3543 31.5081 24.1384C32.0014 22.8787 33.2292 21.9832 34.6622 21.9832C37.0427 21.9832 38.6843 24.3925 37.8154 26.6006C37.3229 27.8595 36.0952 28.7541 34.6622 28.7541Z" fill="#FFF"/>
<path d="M18.1197 15.5597H23.1035C23.7834 15.5597 24.3346 15.0086 24.3346 14.3287C24.3346 13.6488 23.7834 13.0977 23.1035 13.0977H18.1197C17.4398 13.0977 16.8887 13.6488 16.8887 14.3287C16.8887 15.0086 17.4398 15.5597 18.1197 15.5597Z" fill="#FFF"/>
<path d="M23.1041 18.6992H19.7561C19.0763 18.6992 18.5251 19.2504 18.5251 19.9303C18.5251 20.6101 19.0763 21.1613 19.7561 21.1613H23.1041C23.7839 21.1613 24.3351 20.6101 24.3351 19.9303C24.3351 19.2504 23.7839 18.6992 23.1041 18.6992Z" fill="#FFF"/>
</svg>
