<svg width="57" height="56" viewBox="0 0 57 56" fill="none" xmlns="http://www.w3.org/2000/svg">
<path d="M45.3901 13H10.7729C8.73341 13 7.08154 14.6621 7.08154 16.6914V38.8398C7.08154 40.8812 8.74555 42.5312 10.7729 42.5312H45.3901C47.4126 42.5312 49.0815 40.8882 49.0815 38.8398V16.6914C49.0815 14.6657 47.4362 13 45.3901 13ZM44.8732 15.4609C44.119 16.2111 31.1399 29.1218 30.6918 29.5676C29.9945 30.2649 29.0676 30.6488 28.0815 30.6488C27.0955 30.6488 26.1686 30.2648 25.469 29.5653C25.1676 29.2655 12.3318 16.4973 11.2899 15.4609H44.8732ZM9.54248 38.339V17.1938L20.1768 27.7722L9.54248 38.339ZM11.2915 40.0703L21.9217 29.5077L23.7312 31.3077C24.8932 32.4698 26.4382 33.1097 28.0815 33.1097C29.7249 33.1097 31.2699 32.4698 32.4296 31.31L34.2414 29.5077L44.8716 40.0703H11.2915ZM46.6206 38.339L35.9862 27.7722L46.6206 17.1938V38.339Z" fill="#FFF"/>
</svg>
