<svg width="57" height="56" viewBox="0 0 57 56" fill="none" xmlns="http://www.w3.org/2000/svg">
<path d="M49.3991 47.2783L41.9877 29.987C41.7929 29.533 41.3462 29.2385 40.8524 29.2385H36.1456C38.0506 25.9104 39.6172 22.227 39.6172 19.1105C39.6172 3.06121 17.3828 2.86542 17.3828 19.1105C17.3828 22.227 18.9494 25.9104 20.8544 29.2385H16.1476C15.6535 29.2385 15.2068 29.533 15.0123 29.987L7.60093 47.2783C7.2523 48.0916 7.84959 49 8.73623 49H48.2638C49.1485 49 49.7483 48.0935 49.3991 47.2783ZM40.0376 31.7087L43.6947 40.2406C43.5803 40.3002 31.6774 46.4811 31.5922 46.5298H29.0066C28.9412 46.4567 29.4969 47.0152 21.4463 38.9656L25.9179 36.677C26.8296 37.8405 27.4682 38.5798 27.5679 38.6945C28.06 39.261 28.9403 39.2601 29.4318 38.6945C29.6385 38.4567 32.1565 35.5392 34.637 31.7087H40.0376ZM28.5 9.47663C32.6644 9.47663 37.1466 12.4916 37.1466 19.1105C37.1466 24.6758 30.9081 32.9581 28.5 35.9471C26.0919 32.9578 19.8534 24.6758 19.8534 19.1105C19.8534 12.4557 24.1959 9.47663 28.5 9.47663ZM16.9621 31.7087C22.9459 31.7087 22.2659 31.7097 22.3618 31.7068C23.0574 32.7812 23.756 33.7838 24.4058 34.6759L13.2412 40.3899L16.9621 31.7087ZM11.7176 43.9448L19.1356 40.1483L25.518 46.5298H10.6095L11.7176 43.9448ZM36.946 46.5298L44.6707 42.5173L46.3905 46.5298H36.946Z" fill="#FFF"/>
<path d="M32.2055 18.1226C32.2055 16.0795 30.5431 14.4171 28.5 14.4171C26.4566 14.4171 24.7942 16.0795 24.7942 18.1226C24.7942 20.1657 26.4566 21.8278 28.5 21.8278C30.5431 21.8278 32.2055 20.1657 32.2055 18.1226ZM27.2647 18.1226C27.2647 17.4414 27.8188 16.8873 28.5 16.8873C29.1809 16.8873 29.7353 17.4414 29.7353 18.1226C29.7353 18.8035 29.1809 19.3576 28.5 19.3576C27.8188 19.3576 27.2647 18.8035 27.2647 18.1226Z" fill="#FFF"/>
</svg>
