<svg width="57" height="56" viewBox="0 0 57 56" fill="none" xmlns="http://www.w3.org/2000/svg">
<path fill-rule="evenodd" clip-rule="evenodd" d="M7.5 11.5117C7.5 9.02002 9.51989 7 12.0117 7H41.5429C44.0348 7 46.0547 9.02002 46.0547 11.5117V32.2768C48.1584 34.007 49.5 36.63 49.5 39.5664C49.5 44.7764 45.2764 49 40.0664 49C34.9387 49 30.7664 44.9087 30.6359 39.8125H15.8844L9.6913 47.5538C9.36486 47.9618 8.81628 48.1192 8.32317 47.9462C7.83007 47.7733 7.5 47.3077 7.5 46.7851V11.5117ZM33.1396 38.7622C33.1428 38.7407 33.1454 38.7189 33.1474 38.697C33.5754 35.2564 36.51 32.5938 40.0664 32.5938C41.5686 32.5938 42.9599 33.0688 44.0981 33.8769C44.1063 33.8829 44.1146 33.8888 44.123 33.8946C45.8886 35.1597 47.039 37.2287 47.039 39.5664C47.039 43.4173 43.9172 46.5391 40.0664 46.5391C36.2155 46.5391 33.0937 43.4173 33.0937 39.5664C33.0937 39.2944 33.1093 39.0261 33.1396 38.7622ZM43.5937 30.8144V11.5117C43.5937 10.3791 42.6756 9.46094 41.5429 9.46094H12.0117C10.8791 9.46094 9.96094 10.3791 9.96094 11.5117V43.2773L14.3321 37.8133C14.5656 37.5215 14.9192 37.3515 15.293 37.3515H30.8943C31.1828 36.1523 31.7005 35.0422 32.3984 34.0703H18.5742C18.2228 34.0703 17.8882 33.9201 17.6547 33.6575C17.4212 33.3949 17.3111 33.0451 17.3522 32.6961L18.9928 18.7508C19.0657 18.1311 19.5909 17.6641 20.2148 17.6641H22.6758V16.0235C22.6758 13.7582 24.5121 11.9219 26.7773 11.9219C29.0426 11.9219 30.8789 13.7582 30.8789 16.0235V17.6641H33.3398C33.9638 17.6641 34.489 18.1311 34.5619 18.7508L36.0086 31.0477C37.2377 30.4612 38.6137 30.1328 40.0664 30.1328C41.3135 30.1328 42.5041 30.3748 43.5937 30.8144ZM33.5967 31.6094L32.2456 20.125H30.8789V21.3555C30.8789 22.0351 30.328 22.586 29.6484 22.586C28.9689 22.586 28.418 22.0351 28.418 21.3555V20.125H25.1367V21.3555C25.1367 22.0351 24.5858 22.586 23.9062 22.586C23.2267 22.586 22.6758 22.0351 22.6758 21.3555V20.125H21.309L19.9579 31.6094H33.5967ZM25.1367 17.6641H28.418V16.0235C28.418 15.1174 27.6834 14.3828 26.7773 14.3828C25.8712 14.3828 25.1367 15.1174 25.1367 16.0235V17.6641ZM44.2177 36.6456C44.6982 37.1261 44.6982 37.9052 44.2177 38.3857L39.5773 43.0261C39.3465 43.2569 39.0335 43.3865 38.7072 43.3865C38.3809 43.3865 38.0679 43.2569 37.8371 43.0261L35.517 40.7059C35.0364 40.2253 35.0364 39.4462 35.517 38.9657C35.9975 38.4852 36.7766 38.4852 37.2571 38.9657L38.7072 40.4159L42.4776 36.6456C42.9581 36.165 43.7372 36.165 44.2177 36.6456Z" fill="#FFF"/>
</svg>
