<svg width="57" height="56" viewBox="0 0 57 56" fill="none" xmlns="http://www.w3.org/2000/svg">
<path d="M45.8086 7H11.1914C9.15596 7 7.5 8.65596 7.5 10.6914V45.3086C7.5 47.344 9.15596 49 11.1914 49H45.8086C47.844 49 49.5 47.344 49.5 45.3086C49.5 44.2168 49.5 11.7858 49.5 10.6914C49.5 8.65596 47.844 7 45.8086 7ZM9.96094 10.6914C9.96094 10.0129 10.5129 9.46094 11.1914 9.46094H45.8086C46.4871 9.46094 47.0391 10.0129 47.0391 10.6914V12.332H9.96094V10.6914ZM47.0391 45.3086C47.0391 45.9871 46.4871 46.5391 45.8086 46.5391H11.1914C10.5129 46.5391 9.96094 45.9871 9.96094 45.3086V14.793H47.0391V45.3086Z" fill="#FFF"/>
<path d="M16.0312 38.418H40.9688C41.6483 38.418 42.1992 37.867 42.1992 37.1875V18.8125C42.1992 18.133 41.6483 17.582 40.9688 17.582H16.0312C15.3517 17.582 14.8008 18.133 14.8008 18.8125V37.1875C14.8008 37.867 15.3517 38.418 16.0312 38.418ZM17.2617 35.957V33.7944L23.2657 28.3362L27.6898 32.2072C28.1772 32.6337 28.912 32.6093 29.3701 32.1512L35.6661 25.8552L39.7383 30.4366V35.957H17.2617ZM39.7383 20.043V26.7324L36.6384 23.245C36.1744 22.723 35.3557 22.6851 34.8487 23.1924L28.444 29.5971L24.0603 25.7614C23.5897 25.3495 22.885 25.3563 22.4224 25.7769L17.2617 30.4685V20.043H39.7383Z" fill="#FFF"/>
<path d="M26.5312 41.207H23.9062C23.2267 41.207 22.6758 41.758 22.6758 42.4375C22.6758 43.117 23.2267 43.668 23.9062 43.668H26.5312C27.2108 43.668 27.7617 43.117 27.7617 42.4375C27.7617 41.758 27.2108 41.207 26.5312 41.207Z" fill="#FFF"/>
<path d="M34.4062 41.207H31.7812C31.1017 41.207 30.5508 41.758 30.5508 42.4375C30.5508 43.117 31.1017 43.668 31.7812 43.668H34.4062C35.0858 43.668 35.6367 43.117 35.6367 42.4375C35.6367 41.758 35.0858 41.207 34.4062 41.207Z" fill="#FFF"/>
<path d="M17.7862 40.9112L17.3438 41.3536L16.9013 40.9111C16.4208 40.4307 15.6417 40.4307 15.1611 40.9111C14.6806 41.3916 14.6806 42.1707 15.1611 42.6513L16.4736 43.9638C16.9542 44.4443 17.7332 44.4443 18.2138 43.9638L19.5263 42.6513C20.0068 42.1708 20.0068 41.3917 19.5263 40.9111C19.0458 40.4307 18.2667 40.4307 17.7862 40.9112Z" fill="#FFF"/>
</svg>
