<svg width="16" height="24" viewBox="0 0 16 24" fill="none" xmlns="http://www.w3.org/2000/svg">
<path fill-rule="evenodd" clip-rule="evenodd" d="M0.799805 2.85714C0.799805 1.27919 2.07899 0 3.65695 0H12.7998C14.3777 0 15.6569 1.27919 15.6569 2.85714V21.1429C15.6569 22.7208 14.3777 24 12.7998 24H3.65695C2.07899 24 0.799805 22.7208 0.799805 21.1429V2.85714ZM3.65695 1.14286C2.71017 1.14286 1.94266 1.91037 1.94266 2.85714V21.1429C1.94266 22.0896 2.71017 22.8571 3.65695 22.8571H12.7998C13.7465 22.8571 14.5141 22.0896 14.5141 21.1429V2.85714C14.5141 1.91037 13.7465 1.14286 12.7998 1.14286H3.65695Z" fill="#FFF" />
<path fill-rule="evenodd" clip-rule="evenodd" d="M4.22852 0.571429C4.22852 0.25584 4.48436 0 4.79994 0H11.6571C11.9726 0 12.2285 0.25584 12.2285 0.571429V1.71429C12.2285 2.66106 11.461 3.42857 10.5142 3.42857H5.9428C4.99602 3.42857 4.22852 2.66106 4.22852 1.71429V0.571429ZM5.37137 1.14286V1.71429C5.37137 2.02987 5.62721 2.28571 5.9428 2.28571H10.5142C10.8298 2.28571 11.0857 2.02987 11.0857 1.71429V1.14286H5.37137Z" fill="#FFF" />
</svg>
