<svg width="56" height="56" viewBox="0 0 56 56" fill="none" xmlns="http://www.w3.org/2000/svg">
<path fill-rule="evenodd" clip-rule="evenodd" d="M24.3872 45.3102C24.3872 47.3488 26.0403 49 28.0778 49H44.8917C46.9297 49 48.5815 47.3482 48.5815 45.3102V28.4963C48.5815 26.4588 46.9303 24.8057 44.8917 24.8057H43.1486V21.1176C43.1486 20.7696 43.0013 20.4379 42.7431 20.2047C42.4849 19.9714 42.14 19.8583 41.7938 19.8934L41.9181 21.1176C41.7938 19.8934 41.7932 19.8935 41.7926 19.8936L41.7913 19.8937L41.7883 19.894L41.7812 19.8948C41.7759 19.8953 41.7695 19.8961 41.7621 19.8969C41.7473 19.8987 41.7284 19.901 41.7054 19.9041C41.6596 19.9102 41.5979 19.9193 41.522 19.9323C41.3705 19.9581 41.1614 19.9996 40.909 20.0643C40.4058 20.1935 39.7208 20.4179 38.9723 20.8027C37.6238 21.4961 36.0672 22.7146 35.0248 24.8057H29.5454C28.8658 24.8057 28.3149 25.3566 28.3149 26.0362V27.5037C28.3149 28.1826 27.7641 28.7334 27.0852 28.7334H25.6177C24.9381 28.7334 24.3872 29.2843 24.3872 29.9638V45.3102ZM40.6876 22.722V26.0362C40.6876 26.7158 41.2385 27.2667 41.9181 27.2667H44.8917C45.5701 27.2667 46.1206 27.8169 46.1206 28.4963V45.3102C46.1206 45.9891 45.5706 46.5391 44.8917 46.5391H28.0778C27.3984 46.5391 26.8482 45.9886 26.8482 45.3102V31.1943H27.0852C29.1232 31.1943 30.7758 29.5417 30.7758 27.5037V27.2667H35.8224C36.3272 27.2667 36.7808 26.9583 36.9665 26.4889C37.7207 24.583 39.0007 23.5554 40.0977 22.9913C40.3024 22.886 40.5007 22.797 40.6876 22.722Z" fill="#FFF"/>
<path fill-rule="evenodd" clip-rule="evenodd" d="M13.3692 36.1066L13.2449 34.8824C13.3692 36.1066 13.3698 36.1066 13.3704 36.1065L13.3718 36.1064L13.3747 36.106L13.3819 36.1053C13.3872 36.1047 13.3935 36.104 13.4009 36.1031C13.4157 36.1014 13.4347 36.099 13.4576 36.0959C13.5034 36.0898 13.5651 36.0807 13.641 36.0678C13.7926 36.0419 14.0017 36.0005 14.254 35.9357C14.7572 35.8065 15.4423 35.5822 16.1907 35.1973C17.5392 34.5039 19.0959 33.2854 20.1383 31.1943L27.0852 31.1943C29.1232 31.1943 30.7758 29.5417 30.7758 27.5037V10.6898C30.7758 8.65127 29.1227 7.00004 27.0852 7.00004H10.2713C8.2333 7.00004 6.58154 8.6518 6.58154 10.6898V27.5037C6.58154 29.5412 8.23277 31.1943 10.2713 31.1943H12.0145V34.8824C12.0145 35.2304 12.1618 35.5621 12.42 35.7954C12.6781 36.0287 13.023 36.1418 13.3692 36.1066ZM14.4754 33.278V29.9639C14.4754 29.2843 13.9245 28.7334 13.2449 28.7334H10.2713C9.59297 28.7334 9.04248 28.1831 9.04248 27.5037V10.6898C9.04248 10.0109 9.59244 9.46098 10.2713 9.46098H27.0852C27.7646 9.46098 28.3149 10.0115 28.3149 10.6898V27.5037C28.3149 28.1826 27.7641 28.7334 27.0852 28.7334L19.3407 28.7334C18.8359 28.7334 18.3823 29.0417 18.1965 29.5111C17.4423 31.417 16.1624 32.4447 15.0654 33.0088C14.8606 33.1141 14.6623 33.203 14.4754 33.278Z" fill="#FFF"/>
<path fill-rule="evenodd" clip-rule="evenodd" d="M12.5087 16.1334C12.5087 16.813 13.0596 17.3639 13.7392 17.3639H23.6178C24.2973 17.3639 24.8482 16.813 24.8482 16.1334C24.8482 15.4538 24.2973 14.9029 23.6178 14.9029H13.7392C13.0596 14.9029 12.5087 15.4538 12.5087 16.1334Z" fill="#FFF"/>
<path fill-rule="evenodd" clip-rule="evenodd" d="M18.6785 17.3639C19.358 17.3639 19.9089 16.813 19.9089 16.1334V14.1577C19.9089 13.4781 19.358 12.9272 18.6785 12.9272C17.9989 12.9272 17.448 13.4781 17.448 14.1577V16.1334C17.448 16.813 17.9989 17.3639 18.6785 17.3639Z" fill="#FFF"/>
<path fill-rule="evenodd" clip-rule="evenodd" d="M24.8483 24.0363C24.8483 23.3582 24.2998 22.8082 23.6223 22.8058C23.6215 22.8058 23.62 22.8058 23.6177 22.8057C23.611 22.8056 23.5977 22.8053 23.5783 22.8047C23.5395 22.8033 23.4766 22.8003 23.3929 22.7939C23.2252 22.7811 22.977 22.7549 22.6755 22.7013C22.0672 22.5932 21.273 22.3791 20.4924 21.9627C19.718 21.5497 18.9693 20.9452 18.4099 20.0501C17.853 19.159 17.4393 17.9094 17.4393 16.1334C17.4393 15.4538 16.8884 14.9029 16.2088 14.9029C15.5293 14.9029 14.9784 15.4538 14.9784 16.1334C14.9784 18.3088 15.4908 20.0228 16.323 21.3544C17.1528 22.682 18.2564 23.5592 19.3343 24.1341C20.4058 24.7056 21.4639 24.9854 22.2448 25.1243C22.6379 25.1942 22.9685 25.2297 23.206 25.2478C23.3249 25.2568 23.4211 25.2616 23.4909 25.264C23.5258 25.2653 23.5541 25.266 23.5754 25.2663C23.586 25.2665 23.5949 25.2666 23.602 25.2667C23.6039 25.2667 23.6057 25.2667 23.6074 25.2667C23.6088 25.2667 23.6101 25.2667 23.6113 25.2667L23.6149 25.2667L23.6164 25.2667C23.6171 25.2667 23.6178 25.2667 23.6178 24.0363V25.2667C24.2974 25.2667 24.8483 24.7158 24.8483 24.0363Z" fill="#FFF"/>
<path fill-rule="evenodd" clip-rule="evenodd" d="M12.5087 24.0363C12.5087 24.7158 13.0596 25.2667 13.7392 25.2667V24.0363C13.7392 25.2667 13.7398 25.2667 13.7405 25.2667L13.7421 25.2667L13.7457 25.2667C13.7483 25.2667 13.7514 25.2667 13.7549 25.2667C13.762 25.2666 13.7709 25.2665 13.7816 25.2663C13.8029 25.266 13.8312 25.2653 13.8661 25.264C13.9358 25.2616 14.032 25.2568 14.151 25.2478C14.3885 25.2297 14.719 25.1942 15.1122 25.1243C15.893 24.9854 16.9511 24.7056 18.0227 24.1341C19.1006 23.5592 20.2042 22.682 21.0339 21.3544C21.8661 20.0228 22.3786 18.3088 22.3786 16.1334C22.3786 15.4538 21.8277 14.9029 21.1481 14.9029C20.4686 14.9029 19.9177 15.4538 19.9177 16.1334C19.9177 17.9094 19.504 19.159 18.947 20.0501C18.3876 20.9452 17.6389 21.5497 16.8646 21.9627C16.0839 22.3791 15.2898 22.5932 14.6814 22.7013C14.38 22.7549 14.1317 22.7811 13.964 22.7939C13.8804 22.8003 13.8174 22.8033 13.7786 22.8047C13.7593 22.8053 13.746 22.8056 13.7392 22.8057C13.737 22.8058 13.7355 22.8058 13.7347 22.8058C13.0572 22.8082 12.5087 23.3582 12.5087 24.0363Z" fill="#FFF"/>
<path fill-rule="evenodd" clip-rule="evenodd" d="M30.995 42.9429C31.6028 43.2468 32.3419 43.0005 32.6458 42.3927L36.4846 34.7152L40.3233 42.3927C40.6272 43.0005 41.3663 43.2468 41.9741 42.9429C42.582 42.639 42.8283 41.8999 42.5244 41.2921L37.5852 31.4135C37.3767 30.9966 36.9507 30.7333 36.4846 30.7333C36.0185 30.7333 35.5925 30.9966 35.384 31.4135L30.4447 41.2921C30.1408 41.8999 30.3872 42.639 30.995 42.9429Z" fill="#FFF"/>
<path fill-rule="evenodd" clip-rule="evenodd" d="M40.1891 38.1423H32.7801V40.6032H40.1891V38.1423Z" fill="#FFF"/>
<path fill-rule="evenodd" clip-rule="evenodd" d="M47.3264 21.8092C48.006 21.8092 48.5569 21.2583 48.5569 20.5788C48.5569 14.4434 43.5832 9.4697 37.4478 9.4697H36.213C35.5334 9.4697 34.9825 10.0206 34.9825 10.7002C34.9825 11.3797 35.5334 11.9306 36.213 11.9306H37.4478C42.2241 11.9306 46.096 15.8025 46.096 20.5788C46.096 21.2583 46.6469 21.8092 47.3264 21.8092Z" fill="#FFF"/>
<path fill-rule="evenodd" clip-rule="evenodd" d="M38.3179 14.0399C38.7984 13.5594 38.7984 12.7803 38.3179 12.2997L36.7183 10.7002L38.3179 9.10053C38.7984 8.61999 38.7984 7.8409 38.3179 7.36038C37.8374 6.87986 37.0583 6.87987 36.5777 7.36041L34.1081 9.83012C33.6276 10.3107 33.6276 11.0897 34.1081 11.5703L36.5778 14.0399C37.0583 14.5204 37.8374 14.5204 38.3179 14.0399Z" fill="#FFF"/>
<path fill-rule="evenodd" clip-rule="evenodd" d="M6.58156 35.3967C6.58156 41.5321 11.5553 46.5058 17.6906 46.5058H18.9254C19.605 46.5058 20.1559 45.9549 20.1559 45.2753C20.1559 44.5957 19.605 44.0448 18.9254 44.0448H17.6906C12.9144 44.0448 9.04249 40.1729 9.04249 35.3967C9.04249 34.7171 8.4916 34.1662 7.81203 34.1662C7.13246 34.1662 6.58156 34.7171 6.58156 35.3967Z" fill="#FFF"/>
<path fill-rule="evenodd" clip-rule="evenodd" d="M16.8206 48.6151C17.3011 49.0956 18.0802 49.0956 18.5607 48.615L21.0303 46.1453C21.5108 45.6648 21.5108 44.8857 21.0303 44.4052L18.5607 41.9356C18.0802 41.455 17.3011 41.455 16.8205 41.9356C16.34 42.4161 16.34 43.1952 16.8205 43.6757L18.4201 45.2753L16.8205 46.8749C16.34 47.3555 16.34 48.1346 16.8206 48.6151Z" fill="#FFF"/>
</svg>
