<svg width="43" height="42" viewBox="0 0 43 42" fill="none" xmlns="http://www.w3.org/2000/svg">
<path fill-rule="evenodd" clip-rule="evenodd" d="M0.666504 40.7701C0.666504 41.4494 1.2174 42 1.89697 42H14.5093C15.1888 42 15.7397 41.4494 15.7397 40.7701V28.164C15.7397 27.4847 15.1888 26.9341 14.5093 26.9341H1.89697C1.2174 26.9341 0.666504 27.4847 0.666504 28.164V40.7701ZM3.12744 39.5403V29.3939H13.2788V39.5403H3.12744Z" fill="#FFF"/>
<path fill-rule="evenodd" clip-rule="evenodd" d="M34.7095 14.1025C35.389 14.1025 35.9399 13.5519 35.9399 12.8726V7.95315C35.9399 7.27391 35.389 6.72328 34.7095 6.72328H29.7876C29.108 6.72328 28.5571 7.27391 28.5571 7.95315C28.5571 8.63239 29.108 9.18302 29.7876 9.18302H33.479V12.8726C33.479 13.5519 34.0299 14.1025 34.7095 14.1025Z" fill="#FFF"/>
<path fill-rule="evenodd" clip-rule="evenodd" d="M1.89697 25.7657C1.2174 25.7657 0.666504 25.2151 0.666504 24.5359L0.666504 22.4325C0.666504 21.7533 1.2174 21.2027 1.89697 21.2027C2.57654 21.2027 3.12744 21.7533 3.12744 22.4325V24.5359C3.12744 25.2151 2.57654 25.7657 1.89697 25.7657ZM1.89697 18.6143C1.2174 18.6143 0.666504 18.0637 0.666504 17.3845L0.666504 13.1778C0.666504 12.4985 1.2174 11.9479 1.89697 11.9479C2.57654 11.9479 3.12744 12.4985 3.12744 13.1778L3.12744 17.3845C3.12744 18.0637 2.57654 18.6143 1.89697 18.6143ZM1.89697 9.35956C1.2174 9.35956 0.666505 8.80893 0.666505 8.1297L0.666505 6.02635C0.666505 5.34712 1.2174 4.79649 1.89697 4.79649C2.57654 4.79649 3.12744 5.34712 3.12744 6.02635V8.1297C3.12744 8.80893 2.57654 9.35956 1.89697 9.35956Z" fill="#FFF"/>
<path fill-rule="evenodd" clip-rule="evenodd" d="M1.89697 4.50952C2.57654 4.50952 3.12744 3.95889 3.12744 3.27965V2.45974H3.94775C4.62732 2.45974 5.17822 1.90911 5.17822 1.22987C5.17822 0.550633 4.62732 2.58037e-06 3.94775 2.58037e-06H1.89697C1.2174 2.58037e-06 0.666504 0.550633 0.666504 1.22987V3.27965C0.666504 3.95889 1.2174 4.50952 1.89697 4.50952Z" fill="#FFF"/>
<path fill-rule="evenodd" clip-rule="evenodd" d="M8.1692 1.22987C8.1692 1.90911 8.7201 2.45974 9.39966 2.45974H11.4648C12.1444 2.45974 12.6953 1.90911 12.6953 1.22987C12.6953 0.550631 12.1444 0 11.4648 0H9.39966C8.7201 0 8.1692 0.550631 8.1692 1.22987ZM15.1906 1.22987C15.1906 1.90911 15.7415 2.45974 16.4211 2.45974H20.5513C21.2309 2.45974 21.7818 1.90911 21.7818 1.22987C21.7818 0.550631 21.2309 0 20.5513 0H16.4211C15.7415 0 15.1906 0.550631 15.1906 1.22987ZM24.2772 1.22987C24.2772 1.90911 24.8281 2.45974 25.5076 2.45974H29.6379C30.3174 2.45974 30.8683 1.90911 30.8683 1.22987C30.8683 0.550631 30.3174 0 29.6379 0H25.5076C24.8281 0 24.2772 0.550631 24.2772 1.22987ZM33.3637 1.22987C33.3637 1.90911 33.9146 2.45974 34.5942 2.45974H36.6593C37.3389 2.45974 37.8898 1.90911 37.8898 1.22987C37.8898 0.550631 37.3389 0 36.6593 0H34.5942C33.9146 0 33.3637 0.550631 33.3637 1.22987Z" fill="#FFF"/>
<path fill-rule="evenodd" clip-rule="evenodd" d="M41.436 4.50952C42.1156 4.50952 42.6665 3.95889 42.6665 3.27965V1.22987C42.6665 0.550633 42.1156 2.58037e-06 41.436 2.58037e-06H39.3853C38.7057 2.58037e-06 38.1548 0.550633 38.1548 1.22987C38.1548 1.90911 38.7057 2.45974 39.3853 2.45974H40.2056V3.27965C40.2056 3.95889 40.7565 4.50952 41.436 4.50952Z" fill="#FFF"/>
<path fill-rule="evenodd" clip-rule="evenodd" d="M41.436 37.2051C42.1156 37.2051 42.6665 36.6545 42.6665 35.9753V33.9112C42.6665 33.2319 42.1156 32.6813 41.436 32.6813C40.7565 32.6813 40.2056 33.2319 40.2056 33.9112V35.9753C40.2056 36.6545 40.7565 37.2051 41.436 37.2051ZM41.436 30.1871C42.1156 30.1871 42.6665 29.6365 42.6665 28.9573V24.829C42.6665 24.1498 42.1156 23.5991 41.436 23.5991C40.7565 23.5991 40.2056 24.1498 40.2056 24.829V28.9573C40.2056 29.6365 40.7565 30.1871 41.436 30.1871ZM41.436 21.105C42.1156 21.105 42.6665 20.5544 42.6665 19.8751V15.7469C42.6665 15.0676 42.1156 14.517 41.436 14.517C40.7565 14.517 40.2056 15.0676 40.2056 15.7469V19.8751C40.2056 20.5544 40.7565 21.105 41.436 21.105ZM41.436 12.0229C42.1156 12.0229 42.6665 11.4722 42.6665 10.793V8.72886C42.6665 8.04962 42.1156 7.49899 41.436 7.49899C40.7565 7.49899 40.2056 8.04962 40.2056 8.72886V10.793C40.2056 11.4722 40.7565 12.0229 41.436 12.0229Z" fill="#FFF"/>
<path fill-rule="evenodd" clip-rule="evenodd" d="M38.1548 40.7496C38.1548 41.4289 38.7057 41.9795 39.3853 41.9795H41.436C42.1156 41.9795 42.6665 41.4289 42.6665 40.7496V38.6999C42.6665 38.0206 42.1156 37.47 41.436 37.47C40.7565 37.47 40.2056 38.0206 40.2056 38.6999V39.5198H39.3853C38.7057 39.5198 38.1548 40.0704 38.1548 40.7496Z" fill="#FFF"/>
<path fill-rule="evenodd" clip-rule="evenodd" d="M25.2518 40.7496C25.2518 41.4289 25.8027 41.9795 26.4823 41.9795H28.158C28.8375 41.9795 29.3884 41.4289 29.3884 40.7496C29.3884 40.0704 28.8375 39.5198 28.158 39.5198H26.4823C25.8027 39.5198 25.2518 40.0704 25.2518 40.7496ZM30.9492 40.7496C30.9492 41.4289 31.5001 41.9795 32.1797 41.9795H33.8554C34.535 41.9795 35.0859 41.4289 35.0859 40.7496C35.0859 40.0704 34.535 39.5198 33.8554 39.5198H32.1797C31.5001 39.5198 30.9492 40.0704 30.9492 40.7496Z" fill="#FFF"/>
<path fill-rule="evenodd" clip-rule="evenodd" d="M20.7964 21.8594C21.277 22.3397 22.056 22.3397 22.5366 21.8594L35.5795 8.8228C36.0601 8.3425 36.0601 7.56379 35.5795 7.0835C35.099 6.60321 34.3199 6.60321 33.8394 7.0835L20.7964 20.1201C20.3159 20.6004 20.3159 21.3791 20.7964 21.8594Z" fill="#FFF"/>
</svg>
