<svg width="57" height="56" viewBox="0 0 57 56" fill="none" xmlns="http://www.w3.org/2000/svg">
<path fill-rule="evenodd" clip-rule="evenodd" d="M11.9297 9.46092C10.8497 9.46092 9.96092 10.3497 9.96092 11.4297V19.7969H13.8984V11.4189C13.8925 10.3438 13.0061 9.46092 11.9297 9.46092ZM16.3593 11.4134V11.3476C16.3593 11.317 16.3582 11.2866 16.356 11.2565C16.3311 10.614 16.1681 10.0058 15.896 9.46092H38.1793C39.262 9.46092 40.1483 10.3473 40.1483 11.4299V21.6776C37.0231 21.3028 33.7633 22.3147 31.3649 24.713C30.7567 25.3212 30.2377 25.9848 29.8078 26.6876H20.0507C19.3712 26.6876 18.8203 27.2385 18.8203 27.918C18.8203 28.5976 19.3712 29.1485 20.0507 29.1485H28.7065C28.4642 29.9519 28.3192 30.7784 28.2713 31.6094H20.0507C19.3712 31.6094 18.8203 32.1603 18.8203 32.8399C18.8203 33.5195 19.3712 34.0704 20.0507 34.0704H28.4142C28.5619 34.9116 28.8113 35.7385 29.1626 36.5312H20.0507C19.3712 36.5312 18.8203 37.0821 18.8203 37.7617C18.8203 38.4412 19.3712 38.9921 20.0507 38.9921H29.9765C30.1899 38.9921 30.3906 38.9378 30.5655 38.8423C30.8122 39.1514 31.0787 39.4499 31.3649 39.7361C33.7633 42.1344 37.0231 43.1463 40.1483 42.7716V45.994L38.5296 45.387C38.251 45.2826 37.9441 45.2826 37.6655 45.387L34.8163 46.4554L31.9671 45.387C31.6885 45.2826 31.3816 45.2826 31.103 45.387L28.2538 46.4554L25.4046 45.387C25.1261 45.2826 24.8191 45.2826 24.5406 45.387L21.6913 46.4554L18.8421 45.387C18.5636 45.2826 18.2566 45.2826 17.9781 45.387L16.3593 45.994V21.0359C16.3593 21.0331 16.3594 21.0302 16.3594 21.0273V11.4297C16.3594 11.4243 16.3593 11.4189 16.3593 11.4134ZM13.8984 22.2578H8.73046C8.0509 22.2578 7.5 21.7069 7.5 21.0273V11.4297C7.5 8.99054 9.49054 7 11.9297 7C11.9476 7 11.9655 7.00011 11.9833 7.00032C11.9928 7.00011 12.0022 7 12.0117 7H38.1793C40.6211 7 42.6092 8.98816 42.6092 11.4299V22.2762C43.9873 22.7924 45.2797 23.6046 46.3881 24.713C50.5366 28.8615 50.5366 35.5876 46.3881 39.7361C45.2797 40.8445 43.9873 41.6568 42.6092 42.1729V47.7695C42.6092 48.1731 42.4113 48.551 42.0796 48.7809C41.748 49.0107 41.3246 49.0633 40.9468 48.9217L38.0975 47.8533L35.2483 48.9217C34.9698 49.0261 34.6628 49.0261 34.3843 48.9217L31.5351 47.8533L28.6858 48.9217C28.4073 49.0261 28.1003 49.0261 27.8218 48.9217L24.9726 47.8533L22.1234 48.9217C21.8448 49.0261 21.5379 49.0261 21.2593 48.9217L18.4101 47.8533L15.5609 48.9217C15.183 49.0633 14.7597 49.0107 14.428 48.7809C14.0963 48.551 13.8984 48.1731 13.8984 47.7695V22.2578ZM18.8203 13.1524C18.8203 12.4728 19.3712 11.9219 20.0507 11.9219H29.9765C30.6561 11.9219 31.207 12.4728 31.207 13.1524C31.207 13.832 30.6561 14.3829 29.9765 14.3829H20.0507C19.3712 14.3829 18.8203 13.832 18.8203 13.1524ZM33.6679 13.1524C33.6679 12.4728 34.2188 11.9219 34.8983 11.9219H36.4569C37.1365 11.9219 37.6874 12.4728 37.6874 13.1524C37.6874 13.832 37.1365 14.3829 36.4569 14.3829H34.8983C34.2188 14.3829 33.6679 13.832 33.6679 13.1524ZM18.8203 18.0743C18.8203 17.3948 19.3712 16.8439 20.0507 16.8439H29.9765C30.6561 16.8439 31.207 17.3948 31.207 18.0743C31.207 18.7539 30.6561 19.3048 29.9765 19.3048H20.0507C19.3712 19.3048 18.8203 18.7539 18.8203 18.0743ZM33.6679 18.0743C33.6679 17.3948 34.2188 16.8439 34.8983 16.8439H36.4569C37.1365 16.8439 37.6874 17.3948 37.6874 18.0743C37.6874 18.7539 37.1365 19.3048 36.4569 19.3048H34.8983C34.2188 19.3048 33.6679 18.7539 33.6679 18.0743ZM44.6479 26.4531C41.4605 23.2657 36.2925 23.2657 33.1051 26.4531C29.9176 29.6406 29.9176 34.8085 33.1051 37.996C36.2925 41.1834 41.4605 41.1834 44.6479 37.996C47.8354 34.8085 47.8354 29.6406 44.6479 26.4531ZM18.8203 22.9963C18.8203 22.3167 19.3712 21.7658 20.0507 21.7658H29.9765C30.6561 21.7658 31.207 22.3167 31.207 22.9963C31.207 23.6758 30.6561 24.2267 29.9765 24.2267H20.0507C19.3712 24.2267 18.8203 23.6758 18.8203 22.9963ZM38.8563 29.6294C38.8631 29.6295 38.87 29.6295 38.8768 29.6295C38.8837 29.6295 38.8905 29.6295 38.8974 29.6294H40.2723C40.9518 29.6294 41.5027 29.0785 41.5027 28.3989C41.5027 27.7193 40.9518 27.1685 40.2723 27.1685H40.0954C40.0117 26.5703 39.498 26.11 38.8768 26.11C38.1973 26.11 37.6464 26.6609 37.6464 27.3405V27.3899C36.5457 27.8387 35.7697 28.9213 35.7697 30.1857C35.7697 31.2239 36.2761 32.1503 37.1277 32.7036C37.1859 32.7471 37.2488 32.7861 37.3161 32.8197L37.4186 32.871C37.4237 32.8736 37.4289 32.8762 37.4341 32.8788C37.4341 32.8788 37.4342 32.8788 37.4342 32.8789L39.2289 33.7762C39.4237 33.8773 39.5231 34.0418 39.5231 34.2632C39.5231 34.5749 39.2726 34.8196 38.973 34.8196H38.883C38.8809 34.8196 38.8789 34.8196 38.8768 34.8196C38.8748 34.8196 38.8727 34.8196 38.8707 34.8196H37.4814C36.8018 34.8196 36.2509 35.3705 36.2509 36.05C36.2509 36.7296 36.8018 37.2805 37.4814 37.2805H37.6583C37.7419 37.8787 38.2556 38.3391 38.8768 38.3391C39.5564 38.3391 40.1073 37.7882 40.1073 37.1086V37.0591C41.208 36.6102 41.984 35.5277 41.984 34.2632C41.984 33.2249 41.4773 32.2983 40.6255 31.7451C40.5674 31.7016 40.5047 31.6628 40.4376 31.6292L40.3405 31.5806C40.3335 31.5771 40.3266 31.5736 40.3196 31.5701L38.5268 30.6737C38.3306 30.5727 38.2306 30.4079 38.2306 30.1857C38.2306 29.8741 38.4811 29.6294 38.7807 29.6294H38.8563Z" fill="#FFF"/>
</svg>
