<svg width="56" height="56" viewBox="0 0 56 56" fill="none" xmlns="http://www.w3.org/2000/svg">
<path fill-rule="evenodd" clip-rule="evenodd" d="M38.9849 7.99026C39.1177 7.32379 39.7656 6.89116 40.4321 7.02396L44.836 7.90144C45.2374 7.92873 45.6175 8.15214 45.8282 8.52968C45.9388 8.72792 45.9887 8.94357 45.9841 9.15524C45.9823 9.29744 45.9558 9.43981 45.9043 9.57583L44.275 13.8739C44.0341 14.5094 43.3237 14.8292 42.6882 14.5883C42.0528 14.3475 41.7329 13.6371 41.9738 13.0016L42.4123 11.845L31.0163 18.2044C30.6553 18.4058 30.2173 18.4126 29.8504 18.2223L24.735 15.5705L11.8835 22.3282C11.282 22.6445 10.538 22.4133 10.2217 21.8118C9.90544 21.2104 10.1366 20.4664 10.7381 20.1501L24.1583 13.0933C24.5145 12.906 24.9399 12.9047 25.2973 13.09L30.3952 15.7328L41.2225 9.69074L39.9512 9.43744C39.2847 9.30465 38.8521 8.65672 38.9849 7.99026ZM36.4712 19.2766C36.4712 18.5971 37.0221 18.0462 37.7016 18.0462H44.834C45.5136 18.0462 46.0645 18.5971 46.0645 19.2766V47.7695C46.0645 48.4491 45.5136 49 44.834 49H37.7016C37.0221 49 36.4712 48.4491 36.4712 47.7695V19.2766ZM38.9321 20.5071V46.5391H43.6036V20.5071H38.9321ZM23.2356 29.286C23.2356 28.6064 23.7865 28.0555 24.466 28.0555H31.5985C32.278 28.0555 32.8289 28.6064 32.8289 29.286V47.7695C32.8289 48.4491 32.278 49 31.5985 49H24.466C23.7865 49 23.2356 48.4491 23.2356 47.7695V29.286ZM25.6965 30.5164V46.5391H30.368V30.5164H25.6965ZM10 35.9131C10 35.2335 10.5509 34.6826 11.2305 34.6826H18.3629C19.0424 34.6826 19.5933 35.2335 19.5933 35.9131V47.7695C19.5933 48.4491 19.0424 49 18.3629 49H11.2305C10.5509 49 10 48.4491 10 47.7695V35.9131ZM12.4609 37.1435V46.5391H17.1324V37.1435H12.4609Z" fill="#FFF"/>
</svg>
