<svg width="57" height="56" viewBox="0 0 57 56" fill="none" xmlns="http://www.w3.org/2000/svg">
<path fill-rule="evenodd" clip-rule="evenodd" d="M10.5 8.23047C10.5 7.5509 11.0509 7 11.7305 7H25.9834C26.314 7 26.6308 7.13307 26.8622 7.36923L28.1082 8.64062H44.4609C45.1405 8.64062 45.6914 9.19152 45.6914 9.87109V33.5289C45.6914 34.2085 45.1405 34.7594 44.4609 34.7594H41.1551V38.3532C41.1551 38.9027 40.7907 39.3856 40.2622 39.5364L38.2976 40.097L39.4118 42.2253C39.6619 42.7029 39.5719 43.2877 39.1898 43.668L35.7699 47.0723C35.3783 47.4622 34.7748 47.5431 34.2942 47.2703L32.301 46.1384L31.6837 48.1333C31.5243 48.6486 31.0477 49 30.5082 49H25.6832C25.1437 49 24.6672 48.6486 24.5077 48.1333L23.8904 46.1384L21.8972 47.2703C21.4166 47.5431 20.8131 47.4622 20.4215 47.0723L17.0016 43.668C16.6195 43.2877 16.5295 42.7029 16.7796 42.2253L17.8938 40.097L15.9292 39.5364C15.4007 39.3856 15.0363 38.9027 15.0363 38.3532V34.7594H11.7305C11.0509 34.7594 10.5 34.2085 10.5 33.5289V8.23047ZM17.4973 34.4242V37.4247L20.0227 38.1453C20.3786 38.2468 20.6699 38.5032 20.8158 38.8434C20.9618 39.1835 20.9468 39.5713 20.7751 39.8992L19.3803 42.5635L21.495 44.6686L24.0059 43.2427C24.33 43.0587 24.7201 43.0315 25.0666 43.1687C25.4131 43.306 25.6788 43.5929 25.789 43.949L26.5904 46.5391H29.601L30.4025 43.949C30.5126 43.5929 30.7783 43.306 31.1248 43.1687C31.4714 43.0315 31.8614 43.0587 32.1855 43.2427L34.6964 44.6686L36.8111 42.5635L35.4163 39.8992C35.2446 39.5713 35.2296 39.1835 35.3756 38.8434C35.5215 38.5032 35.8128 38.2468 36.1687 38.1453L38.6941 37.4247V34.4242L36.0662 33.5742C35.7114 33.4594 35.4278 33.19 35.295 32.8416C35.1623 32.4932 35.1946 32.1033 35.3831 31.7816L36.8243 29.3208L34.7393 27.2262L32.1423 28.6395C31.8173 28.8163 31.43 28.8376 31.0876 28.6973C30.7452 28.557 30.4842 28.2701 30.3767 27.916L29.5958 25.343H26.5956L25.8147 27.916C25.7072 28.2701 25.4462 28.557 25.1038 28.6973C24.7614 28.8376 24.3741 28.8163 24.0491 28.6395L21.4521 27.2262L19.3671 29.3208L20.8083 31.7816C20.9968 32.1033 21.0292 32.4932 20.8964 32.8416C20.7636 33.19 20.48 33.4594 20.1252 33.5742L17.4973 34.4242ZM40.1186 32.2984H43.2305V16.0234H32.413C32.0823 16.0234 31.7655 15.8903 31.534 15.6541L25.4664 9.46094H12.9609V32.2984H16.0728L17.9109 31.7039L16.7644 29.7465C16.4821 29.2644 16.56 28.6525 16.9542 28.2566L20.3584 24.8367C20.744 24.4494 21.3387 24.3628 21.8187 24.624L23.8985 25.7558L24.5057 23.7552C24.6631 23.2366 25.1412 22.8821 25.6832 22.8821H30.5082C31.0502 22.8821 31.5283 23.2366 31.6857 23.7552L32.2929 25.7558L34.3727 24.624C34.8527 24.3628 35.4474 24.4494 35.833 24.8367L39.2373 28.2566C39.6314 28.6525 39.7093 29.2644 39.427 29.7465L38.2805 31.7039L40.1186 32.2984ZM30.5192 11.1016L32.9301 13.5625H43.2305V11.1016H30.5192ZM28.0957 33.0859C26.51 33.0859 25.2246 34.3714 25.2246 35.957C25.2246 37.5427 26.51 38.8281 28.0957 38.8281C29.6814 38.8281 30.9668 37.5427 30.9668 35.957C30.9668 34.3714 29.6814 33.0859 28.0957 33.0859ZM22.7637 35.957C22.7637 33.0122 25.1509 30.625 28.0957 30.625C31.0405 30.625 33.4277 33.0122 33.4277 35.957C33.4277 38.9018 31.0405 41.2891 28.0957 41.2891C25.1509 41.2891 22.7637 38.9018 22.7637 35.957Z" fill="#FFF"/>
</svg>
