<svg width="57" height="56" viewBox="0 0 57 56" fill="none" xmlns="http://www.w3.org/2000/svg">
<path fill-rule="evenodd" clip-rule="evenodd" d="M5.57204 10.072V45.928H41.428V37.4287C41.428 37.3293 41.4374 37.2321 41.4554 37.138L35.3987 20.8483C35.1893 20.2852 35.3275 19.6517 35.7523 19.2269C36.1771 18.802 36.8106 18.6639 37.3737 18.8733L41.428 20.3807V10.072H29.9615V19.0031C29.9615 19.5151 29.7064 19.9934 29.2812 20.2786C28.856 20.5639 28.3167 20.6185 27.8429 20.4243L23.4344 18.6175L19.1723 20.418C18.698 20.6184 18.1548 20.5678 17.7257 20.2832C17.2965 19.9986 17.0385 19.518 17.0385 19.0031V10.072H5.57204ZM5.06003 7C3.64615 7 2.5 8.14615 2.5 9.56003V46.44C2.5 47.8539 3.64615 49 5.06003 49H41.94C43.3539 49 44.5 47.8539 44.5 46.44V37.4287C44.5 37.3788 44.4976 37.3295 44.493 37.2809L46.7366 32.3834L49.9181 35.5648C50.518 36.1647 51.4905 36.1647 52.0904 35.5648C52.6902 34.9649 52.6902 33.9924 52.0903 33.3925L48.9089 30.2111L54.0318 27.8643C54.5965 27.6055 54.9499 27.0321 54.927 26.4113C54.9041 25.7905 54.5096 25.2446 53.9273 25.0281L44.5 21.5229V9.56003C44.5 8.14615 43.3539 7 41.94 7H5.06003ZM43.1409 32.8562L44.8639 29.0952C45.0173 28.7604 45.2858 28.4919 45.6206 28.3385L49.3817 26.6155L39.4471 22.9217L43.1409 32.8562ZM20.1106 10.072V16.6867L22.8278 15.5389C23.2046 15.3797 23.6295 15.3774 24.008 15.5325L26.8894 16.7135V10.072H20.1106ZM8.72938 35.1429C8.72938 34.2945 9.41708 33.6068 10.2654 33.6068H16.7053C17.5536 33.6068 18.2413 34.2945 18.2413 35.1429C18.2413 35.9912 17.5536 36.6789 16.7053 36.6789H10.2654C9.41708 36.6789 8.72938 35.9912 8.72938 35.1429ZM8.72938 41.2908C8.72938 40.4425 9.41708 39.7548 10.2654 39.7548H14.656C15.5043 39.7548 16.192 40.4425 16.192 41.2908C16.192 42.1391 15.5043 42.8268 14.656 42.8268H10.2654C9.41708 42.8268 8.72938 42.1391 8.72938 41.2908Z" fill="#FFF"/>
</svg>
