<svg width="57" height="56" viewBox="0 0 57 56" fill="none" xmlns="http://www.w3.org/2000/svg">
<path fill-rule="evenodd" clip-rule="evenodd" d="M12.5 8.23047C12.5 7.5509 13.0509 7 13.7305 7H33.418C34.0975 7 34.6484 7.5509 34.6484 8.23047V12.214C36.0821 12.7207 37.1094 14.088 37.1094 15.6953C37.1094 16.367 36.93 16.9967 36.6166 17.5392C39.7897 18.8091 42.0313 21.9123 42.0313 25.5391V34.1523H43.2617C43.9413 34.1523 44.4922 34.7032 44.4922 35.3828C44.4922 36.0624 43.9413 36.6133 43.2617 36.6133H37.1094V37.8438C37.1094 39.4511 36.0821 40.8184 34.6484 41.3251V47.7695C34.6484 48.4491 34.0975 49 33.418 49H13.7305C13.0509 49 12.5 48.4491 12.5 47.7695V8.23047ZM14.9609 14.4648V39.0742H29.9366C29.8006 38.6894 29.7266 38.2752 29.7266 37.8438V36.6133H23.5742C22.8946 36.6133 22.3438 36.0624 22.3438 35.3828C22.3438 34.7032 22.8946 34.1523 23.5742 34.1523H24.8047V25.5391C24.8047 21.9123 27.0462 18.8091 30.2194 17.5392C29.9059 16.9967 29.7266 16.367 29.7266 15.6953C29.7266 15.2639 29.8006 14.8497 29.9366 14.4648L14.9609 14.4648ZM32.1875 12.0039L14.9609 12.0039V9.46094H32.1875V12.0039ZM33.418 14.4648C32.7384 14.4648 32.1875 15.0157 32.1875 15.6953C32.1875 16.3749 32.7384 16.9258 33.418 16.9258C34.0975 16.9258 34.6484 16.3749 34.6484 15.6953C34.6484 15.0157 34.0975 14.4648 33.418 14.4648ZM33.418 19.3867C30.0201 19.3867 27.2656 22.1412 27.2656 25.5391V34.1523H39.5703V25.5391C39.5703 22.1412 36.8158 19.3867 33.418 19.3867ZM34.6484 36.6133H32.1875V37.8438C32.1875 38.5233 32.7384 39.0742 33.418 39.0742C34.0975 39.0742 34.6484 38.5233 34.6484 37.8438V36.6133ZM32.1875 41.5352H24.8047V42.7656C24.8047 43.4452 24.2538 43.9961 23.5742 43.9961C22.8946 43.9961 22.3438 43.4452 22.3438 42.7656V41.5352H14.9609V46.5391H32.1875V41.5352Z" fill="#FFF"/>
</svg>
