<svg width="43" height="42" viewBox="0 0 43 42" fill="none" xmlns="http://www.w3.org/2000/svg">
<path fill-rule="evenodd" clip-rule="evenodd" d="M1.73047 7.62899C2.41004 7.62899 2.96094 7.07809 2.96094 6.39852V2.46094H6.89811C7.57768 2.46094 8.12858 1.91004 8.12858 1.23047C8.12858 0.5509 7.57768 0 6.89811 0H1.73047C1.0509 0 0.5 0.5509 0.5 1.23047V6.39852C0.5 7.07809 1.0509 7.62899 1.73047 7.62899Z" fill="#FFF"/>
<path fill-rule="evenodd" clip-rule="evenodd" d="M41.2695 7.62899C41.9491 7.62899 42.5 7.07809 42.5 6.39852V1.23047C42.5 0.5509 41.9491 0 41.2695 0H36.1019C35.4223 0 34.8714 0.5509 34.8714 1.23047C34.8714 1.91004 35.4223 2.46094 36.1019 2.46094H40.0391V6.39852C40.0391 7.07809 40.59 7.62899 41.2695 7.62899Z" fill="#FFF"/>
<path fill-rule="evenodd" clip-rule="evenodd" d="M0.5 40.7695C0.5 41.4491 1.0509 42 1.73047 42H6.89811C7.57768 42 8.12858 41.4491 8.12858 40.7695C8.12858 40.09 7.57768 39.5391 6.89811 39.5391H2.96094V35.6015C2.96094 34.9219 2.41004 34.371 1.73047 34.371C1.0509 34.371 0.5 34.9219 0.5 35.6015V40.7695Z" fill="#FFF"/>
<path fill-rule="evenodd" clip-rule="evenodd" d="M34.8714 40.7695C34.8714 41.4491 35.4223 42 36.1019 42H41.2695C41.9491 42 42.5 41.4491 42.5 40.7695V35.6015C42.5 34.9219 41.9491 34.371 41.2695 34.371C40.59 34.371 40.0391 34.9219 40.0391 35.6015V39.5391H36.1019C35.4223 39.5391 34.8714 40.09 34.8714 40.7695Z" fill="#FFF"/>
<path fill-rule="evenodd" clip-rule="evenodd" d="M5.91406 12.3047C5.91406 12.9843 6.46496 13.5352 7.14453 13.5352H12.3125C12.9921 13.5352 13.543 12.9843 13.543 12.3047V7.13672C13.543 6.45715 12.9921 5.90625 12.3125 5.90625H7.14453C6.46496 5.90625 5.91406 6.45715 5.91406 7.13672V12.3047ZM8.375 11.0742V8.36719H11.082V11.0742H8.375Z" fill="#FFF"/>
<path fill-rule="evenodd" clip-rule="evenodd" d="M29.457 12.3047C29.457 12.9843 30.0079 13.5352 30.6875 13.5352H35.8555C36.535 13.5352 37.0859 12.9843 37.0859 12.3047V7.13672C37.0859 6.45715 36.535 5.90625 35.8555 5.90625H30.6875C30.0079 5.90625 29.457 6.45715 29.457 7.13672V12.3047ZM31.918 11.0742V8.36719H34.625V11.0742H31.918Z" fill="#FFF"/>
<path fill-rule="evenodd" clip-rule="evenodd" d="M5.91406 34.8633C5.91406 35.5429 6.46496 36.0938 7.14453 36.0938H12.3125C12.9921 36.0938 13.543 35.5429 13.543 34.8633V29.6953C13.543 29.0157 12.9921 28.4648 12.3125 28.4648H7.14453C6.46496 28.4648 5.91406 29.0157 5.91406 29.6953V34.8633ZM8.375 33.6328V30.9258H11.082V33.6328H8.375Z" fill="#FFF"/>
<path fill-rule="evenodd" clip-rule="evenodd" d="M14.2812 24.8555C14.2812 25.535 14.8321 26.0859 15.5117 26.0859H23.2227C23.9022 26.0859 24.4531 25.535 24.4531 24.8555V16.5703C24.4531 15.8907 23.9022 15.3398 23.2227 15.3398C22.5431 15.3398 21.9922 15.8907 21.9922 16.5703V23.625H15.5117C14.8321 23.625 14.2812 24.1759 14.2812 24.8555Z" fill="#FFF"/>
<path fill-rule="evenodd" clip-rule="evenodd" d="M15.8398 33.4688C16.5194 33.4688 17.0703 32.9179 17.0703 32.2383V28.6289C17.0703 27.9493 16.5194 27.3984 15.8398 27.3984C15.1603 27.3984 14.6094 27.9493 14.6094 28.6289V32.2383C14.6094 32.9179 15.1603 33.4688 15.8398 33.4688Z" fill="#FFF"/>
<path fill-rule="evenodd" clip-rule="evenodd" d="M20.1875 34.8633C20.1875 35.5429 20.7384 36.0938 21.418 36.0938H25.1094C25.7889 36.0938 26.3398 35.5429 26.3398 34.8633V28.5469C26.3398 27.8673 25.7889 27.3164 25.1094 27.3164C24.4298 27.3164 23.8789 27.8673 23.8789 28.5469V33.6328H21.418C20.7384 33.6328 20.1875 34.1837 20.1875 34.8633Z" fill="#FFF"/>
<path fill-rule="evenodd" clip-rule="evenodd" d="M35.1992 36.0937C35.8788 36.0937 36.4297 35.5428 36.4297 34.8633V27.4805C36.4297 26.8009 35.8788 26.25 35.1992 26.25C34.5196 26.25 33.9687 26.8009 33.9687 27.4805V34.8633C33.9687 35.5428 34.5196 36.0937 35.1992 36.0937Z" fill="#FFF"/>
<path fill-rule="evenodd" clip-rule="evenodd" d="M28.6367 32.4023C28.6367 33.0819 29.1876 33.6328 29.8672 33.6328H34.9531C35.6327 33.6328 36.1836 33.0819 36.1836 32.4023C36.1836 31.7228 35.6327 31.1719 34.9531 31.1719H29.8672C29.1876 31.1719 28.6367 31.7228 28.6367 32.4023Z" fill="#FFF"/>
<path fill-rule="evenodd" clip-rule="evenodd" d="M30.2773 27.0703C30.9569 27.0703 31.5078 26.5194 31.5078 25.8398V21.6562C31.5078 20.9767 30.9569 20.4258 30.2773 20.4258C29.5978 20.4258 29.0469 20.9767 29.0469 21.6562V25.8398C29.0469 26.5194 29.5978 27.0703 30.2773 27.0703Z" fill="#FFF"/>
<path fill-rule="evenodd" clip-rule="evenodd" d="M28.2266 16.1602C28.2266 16.8397 28.7775 17.3906 29.457 17.3906H35.6094C36.2889 17.3906 36.8398 16.8397 36.8398 16.1602C36.8398 15.4806 36.2889 14.9297 35.6094 14.9297H29.457C28.7775 14.9297 28.2266 15.4806 28.2266 16.1602Z" fill="#FFF"/>
<path fill-rule="evenodd" clip-rule="evenodd" d="M33.1484 21.082C33.828 21.082 34.3789 20.5311 34.3789 19.8516V16.4063C34.3789 15.7267 33.828 15.1758 33.1484 15.1758C32.4689 15.1758 31.918 15.7267 31.918 16.4063V19.8516C31.918 20.5311 32.4689 21.082 33.1484 21.082Z" fill="#FFF"/>
<path fill-rule="evenodd" clip-rule="evenodd" d="M5.91382 16.0781C5.91382 16.7577 6.46472 17.3086 7.14429 17.3086H16.25C16.9296 17.3086 17.4805 16.7577 17.4805 16.0781C17.4805 15.3986 16.9296 14.8477 16.25 14.8477H7.14429C6.46472 14.8477 5.91382 15.3986 5.91382 16.0781Z" fill="#FFF"/>
<path fill-rule="evenodd" clip-rule="evenodd" d="M9.93359 27.3984C10.6132 27.3984 11.1641 26.8475 11.1641 26.168V22.4766C11.1641 21.797 10.6132 21.2461 9.93359 21.2461C9.25402 21.2461 8.70312 21.797 8.70312 22.4766V26.168C8.70312 26.8475 9.25402 27.3984 9.93359 27.3984Z" fill="#FFF"/>
<path fill-rule="evenodd" clip-rule="evenodd" d="M15.7578 11.8945C16.4374 11.8945 16.9883 11.3436 16.9883 10.6641V7.13672C16.9883 6.45715 16.4374 5.90625 15.7578 5.90625C15.0782 5.90625 14.5273 6.45715 14.5273 7.13672V10.6641C14.5273 11.3436 15.0782 11.8945 15.7578 11.8945Z" fill="#FFF"/>
<path fill-rule="evenodd" clip-rule="evenodd" d="M21.0078 12.4688C21.6874 12.4688 22.2383 11.9179 22.2383 11.2383V7.13672C22.2383 6.45715 21.6874 5.90625 21.0078 5.90625C20.3282 5.90625 19.7773 6.45715 19.7773 7.13672V11.2383C19.7773 11.9179 20.3282 12.4688 21.0078 12.4688Z" fill="#FFF"/>
<path fill-rule="evenodd" clip-rule="evenodd" d="M14.5273 8.85937C14.5273 9.53894 15.0782 10.0898 15.7578 10.0898H21.0078C21.6874 10.0898 22.2383 9.53894 22.2383 8.85937C22.2383 8.1798 21.6874 7.62891 21.0078 7.62891H15.7578C15.0782 7.62891 14.5273 8.1798 14.5273 8.85937Z" fill="#FFF"/>
<path fill-rule="evenodd" clip-rule="evenodd" d="M25.5195 14.8477C26.1991 14.8477 26.75 14.2968 26.75 13.6172V7.13672C26.75 6.45715 26.1991 5.90625 25.5195 5.90625C24.84 5.90625 24.2891 6.45715 24.2891 7.13672V13.6172C24.2891 14.2968 24.84 14.8477 25.5195 14.8477Z" fill="#FFF"/>
<path fill-rule="evenodd" clip-rule="evenodd" d="M1.77148 21C1.77148 21.6796 2.32238 22.2305 3.00195 22.2305H39.998C40.6776 22.2305 41.2285 21.6796 41.2285 21C41.2285 20.3204 40.6776 19.7695 39.998 19.7695H3.00195C2.32238 19.7695 1.77148 20.3204 1.77148 21Z" fill="#FFF"/>
<path fill-rule="evenodd" clip-rule="evenodd" d="M27.1602 28.957C27.1602 29.6366 27.7111 30.1875 28.3906 30.1875H29.457C30.1366 30.1875 30.6875 29.6366 30.6875 28.957C30.6875 28.2775 30.1366 27.7266 29.457 27.7266H28.3906C27.7111 27.7266 27.1602 28.2775 27.1602 28.957Z" fill="#FFF"/>
<path fill-rule="evenodd" clip-rule="evenodd" d="M19.6133 17.6367C20.2928 17.6367 20.8437 17.0858 20.8437 16.4063V15.3398C20.8437 14.6603 20.2928 14.1094 19.6133 14.1094C18.9337 14.1094 18.3828 14.6603 18.3828 15.3398V16.4063C18.3828 17.0858 18.9337 17.6367 19.6133 17.6367Z" fill="#FFF"/>
<path fill-rule="evenodd" clip-rule="evenodd" d="M18.7109 31.582C18.7109 32.2615 19.2618 32.8124 19.9414 32.8124H21.0078C21.6874 32.8124 22.2383 32.2615 22.2383 31.582C22.2383 30.9024 21.6874 30.3515 21.0078 30.3515H19.9414C19.2618 30.3515 18.7109 30.9024 18.7109 31.582Z" fill="#FFF"/>
</svg>
