<svg width="43" height="42" viewBox="0 0 43 42" fill="none" xmlns="http://www.w3.org/2000/svg">
<path fill-rule="evenodd" clip-rule="evenodd" d="M0.333008 40.7701C0.333008 41.4494 0.883639 42 1.56288 42H41.1031C41.7824 42 42.333 41.4494 42.333 40.7701V1.22987C42.333 0.550629 41.7824 0 41.1031 0H1.56288C0.883639 0 0.333008 0.550629 0.333008 1.22987V40.7701ZM2.79274 39.5403V2.45974H39.8733V39.5403H2.79274Z" fill="#FFF"/>
<path fill-rule="evenodd" clip-rule="evenodd" d="M34.3594 14.1025C35.0386 14.1025 35.5892 13.5518 35.5892 12.8726V7.95313C35.5892 7.27389 35.0386 6.72326 34.3594 6.72326H29.4399C28.7607 6.72326 28.21 7.27389 28.21 7.95313C28.21 8.63237 28.7607 9.183 29.4399 9.183H33.1295V12.8726C33.1295 13.5518 33.6801 14.1025 34.3594 14.1025Z" fill="#FFF"/>
<path fill-rule="evenodd" clip-rule="evenodd" d="M25.762 16.5505C26.2423 17.0308 27.021 17.0308 27.5013 16.5505L35.229 8.82277C35.7093 8.34248 35.7093 7.56377 35.229 7.08348C34.7487 6.60319 33.97 6.60319 33.4897 7.08348L25.762 14.8112C25.2817 15.2915 25.2817 16.0702 25.762 16.5505Z" fill="#FFF"/>
<path fill-rule="evenodd" clip-rule="evenodd" d="M7.54821 28.5944C6.86898 28.5944 6.31835 29.1451 6.31835 29.8243V34.7438C6.31835 35.423 6.86898 35.9736 7.54821 35.9736H12.4677C13.1469 35.9736 13.6976 35.423 13.6976 34.7438C13.6976 34.0645 13.1469 33.5139 12.4677 33.5139H8.77808V29.8243C8.77808 29.1451 8.22745 28.5944 7.54821 28.5944Z" fill="#FFF"/>
<path fill-rule="evenodd" clip-rule="evenodd" d="M16.1456 26.1464C15.6653 25.6661 14.8865 25.6661 14.4063 26.1464L6.67856 33.8741C6.19827 34.3544 6.19827 35.1331 6.67857 35.6134C7.15886 36.0937 7.93757 36.0937 8.41786 35.6134L16.1456 27.8857C16.6258 27.4054 16.6258 26.6267 16.1456 26.1464Z" fill="#FFF"/>
</svg>
