<svg width="57" height="56" viewBox="0 0 57 56" fill="none" xmlns="http://www.w3.org/2000/svg">
<g clip-path="url(#clip0_5114_15299)">
<path d="M55.1756 40.1674L42.5723 27.561C44.9371 22.1923 43.9252 15.6827 39.535 11.2913C33.8149 5.56994 24.5561 5.56917 18.8353 11.2913C13.1287 16.9993 13.1287 26.2868 18.8353 31.9948C23.3701 36.5306 30.0159 37.3942 35.3214 34.9416L47.8602 47.4834C49.8819 49.5055 53.1544 49.5057 55.176 47.483C57.1922 45.466 57.1919 42.1843 55.1756 40.1674ZM21.1705 29.66C16.751 25.2395 16.751 18.0468 21.1705 13.6261C25.5999 9.19565 32.7695 9.19488 37.1996 13.6261C41.6192 18.0468 41.6192 25.2395 37.1996 29.66C32.7702 34.0906 25.6006 34.0913 21.1705 29.66ZM52.8405 45.1486C52.1096 45.8798 50.9266 45.8801 50.1954 45.1487L38.2157 33.1661C39.2004 32.391 40.0781 31.5009 40.8401 30.499L52.8403 42.5021C53.5697 43.2317 53.5699 44.4189 52.8405 45.1486Z" fill="#FFF"/>
<path d="M1.98411 26.7847H9.02462C9.93646 26.7847 10.6757 26.0455 10.6757 25.1336C10.6757 24.2218 9.93646 23.4825 9.02462 23.4825H1.98411C1.07226 23.4825 0.333008 24.2218 0.333008 25.1336C0.333008 26.0455 1.07226 26.7847 1.98411 26.7847Z" fill="#FFF"/>
<path d="M1.98411 33.8294H11.6648C12.5767 33.8294 13.3159 33.0901 13.3159 32.1783C13.3159 31.2664 12.5767 30.5272 11.6648 30.5272H1.98411C1.07226 30.5272 0.333008 31.2664 0.333008 32.1783C0.333008 33.0901 1.07226 33.8294 1.98411 33.8294Z" fill="#FFF"/>
<path d="M1.98411 40.8741H18.7055C19.6173 40.8741 20.3566 40.1348 20.3566 39.223C20.3566 38.3111 19.6173 37.5719 18.7055 37.5719H1.98411C1.07226 37.5719 0.333008 38.3111 0.333008 39.223C0.333008 40.1348 1.07226 40.8741 1.98411 40.8741Z" fill="#FFF"/>
<path d="M38.0671 44.6166H1.98411C1.07226 44.6166 0.333008 45.3558 0.333008 46.2677C0.333008 47.1795 1.07226 47.9188 1.98411 47.9188H38.0671C38.979 47.9188 39.7182 47.1795 39.7182 46.2677C39.7182 45.3558 38.979 44.6166 38.0671 44.6166Z" fill="#FFF"/>
</g>
<defs>
<clipPath id="clip0_5114_15299">
<rect width="56" height="56" fill="white" transform="translate(0.333008)"/>
</clipPath>
</defs>
</svg>
