<svg width="57" height="56" viewBox="0 0 57 56" fill="none" xmlns="http://www.w3.org/2000/svg">
<path fill-rule="evenodd" clip-rule="evenodd" d="M19.7142 7H18.4833H19.7142ZM18.4833 7V7.00001V7ZM18.4833 7.00001H16.2349C13.6199 7.00001 11.5 9.11989 11.5 11.7349V44.2652C11.5 46.8802 13.6199 49 16.2349 49H32.9804C35.5954 49 37.7153 46.8802 37.7153 44.2652V33.7502H40.4801C43.5809 33.7502 46.0946 31.2365 46.0946 28.1357V23.5457C46.0946 20.4448 43.5809 17.9311 40.4801 17.9311H37.7153V11.7349C37.7153 9.11991 35.5954 7.00001 32.9804 7.00001H30.732V7M20.9452 9.46189H28.2701V10.6791H20.9452V9.46189ZM18.4833 9.46189V10.7796C18.4833 12.0839 19.5406 13.141 20.8447 13.141H28.3705C29.6748 13.141 30.732 12.0838 30.732 10.7796V9.46189H32.9804C34.2357 9.46189 35.2534 10.4796 35.2534 11.7349V17.9311H28.9912C25.8904 17.9311 23.3767 20.4448 23.3767 23.5457V34.4477C23.3767 35.628 24.662 36.3361 25.6508 35.7475L29.6072 33.7502H35.2534V44.2652C35.2534 45.5205 34.2357 46.5381 32.9804 46.5381H16.2349C14.9795 46.5381 13.9619 45.5205 13.9619 44.2652V11.7349C13.9619 10.4796 14.9795 9.46189 16.2349 9.46189H18.4833ZM28.9912 20.393C27.2501 20.393 25.8386 21.8045 25.8386 23.5457V32.8949L28.6118 31.4949C28.8418 31.3603 29.1046 31.2883 29.3736 31.2883H40.4801C42.2212 31.2883 43.6327 29.8768 43.6327 28.1357V23.5457C43.6327 21.8045 42.2212 20.393 40.4801 20.393H28.9912ZM28.1193 23.5608C28.1193 22.8809 28.6704 22.3298 29.3503 22.3298H40.1211C40.801 22.3298 41.3521 22.8809 41.3521 23.5608C41.3521 24.2406 40.801 24.7917 40.1211 24.7917H29.3503C28.6704 24.7917 28.1193 24.2406 28.1193 23.5608ZM33.5048 27.7643C33.5048 27.0845 34.0559 26.5334 34.7357 26.5334H40.1211C40.801 26.5334 41.3521 27.0845 41.3521 27.7643C41.3521 28.4441 40.801 28.9952 40.1211 28.9952H34.7357C34.0559 28.9952 33.5048 28.4441 33.5048 27.7643ZM20.9609 43.0264C20.9609 42.3466 21.512 41.7955 22.1918 41.7955H27.0235C27.7033 41.7955 28.2544 42.3466 28.2544 43.0264C28.2544 43.7062 27.7033 44.2573 27.0235 44.2573H22.1918C21.512 44.2573 20.9609 43.7062 20.9609 43.0264Z" fill="#FFF"/>
</svg>
