<svg width="57" height="56" viewBox="0 0 57 56" fill="none" xmlns="http://www.w3.org/2000/svg">
<path d="M28.5762 13.4122H33.4698L31.6164 15.2688C31.1364 15.7498 31.1371 16.5288 31.618 17.0091C32.0981 17.4882 32.8773 17.4891 33.358 17.0075L37.3051 13.0537C37.7918 12.5663 37.7854 11.7655 37.2769 11.2868L33.358 7.36117C32.878 6.8802 32.099 6.87956 31.618 7.35957C31.1371 7.8399 31.1364 8.61887 31.6164 9.09984L33.4647 10.9513C27.8888 10.9513 28.5842 10.951 28.5233 10.951C15.5153 10.951 7.25834 25.1081 13.7811 36.4873C14.1188 37.0766 14.8702 37.281 15.4605 36.943C16.0501 36.6049 16.2539 35.8532 15.9161 35.2636C10.3025 25.4705 17.4882 13.3565 28.5762 13.4122Z" fill="#FFF"/>
<path d="M43.2991 19.5123C42.9614 18.9231 42.2093 18.719 41.6197 19.0567C41.0301 19.3947 40.8264 20.1468 41.1644 20.7364C46.7355 30.4552 39.7042 42.5878 28.5403 42.5878H23.6104L25.4638 40.7312C25.9441 40.2502 25.9435 39.4712 25.4625 38.9909C24.9815 38.5109 24.2022 38.5115 23.7222 38.9925L19.7751 42.9463C19.2926 43.4295 19.29 44.2316 19.8049 44.7148L23.7222 48.6388C24.2022 49.1195 24.9812 49.1208 25.4625 48.6404C25.9435 48.1601 25.9441 47.3811 25.4641 46.9002L23.6158 45.0487H28.5557C41.5704 45.0484 49.8206 30.8894 43.2991 19.5123Z" fill="#FFF"/>
<path d="M27.3098 24.3086H32.2317C32.911 24.3086 33.4621 23.7575 33.4621 23.0781C33.4621 22.3985 32.911 21.8477 32.2317 21.8477H29.7707V20.6172C29.7707 19.9376 29.2196 19.3867 28.5403 19.3867C27.8606 19.3867 27.3098 19.9376 27.3098 20.6172V21.8477C25.2741 21.8477 23.6184 23.5037 23.6184 25.5391C23.6184 27.5745 25.2741 29.2305 27.3098 29.2305H29.7704C30.4491 29.2305 31.0012 29.7823 31.0012 30.4609C31.0012 31.1396 30.4523 31.6917 29.7704 31.6917C28.4989 31.6917 28.5403 31.6914 28.5403 31.6914C28.5384 31.6914 28.5364 31.6917 28.5345 31.6917C28.4868 31.6917 24.8213 31.6914 24.8489 31.6914C24.1692 31.6914 23.6184 32.2422 23.6184 32.9215C23.6181 33.6012 24.1689 34.152 24.8486 34.1523H27.3098V35.3828C27.3098 36.0621 27.8606 36.6133 28.5403 36.6133C29.2196 36.6133 29.7707 36.0621 29.7707 35.3828V34.1527C31.8106 34.1527 33.4621 32.5021 33.4621 30.4609C33.4621 28.4255 31.8058 26.7695 29.7704 26.7695H27.3098C26.6311 26.7695 26.0793 26.2174 26.0793 25.5391C26.0793 24.8604 26.6311 24.3086 27.3098 24.3086Z" fill="#FFF"/>
</svg>
