<svg width="57" height="56" viewBox="0 0 57 56" fill="none" xmlns="http://www.w3.org/2000/svg">
<path d="M8.11646 41.6697C12.0458 44.1631 16.6188 45.4806 21.3404 45.4806C28.2547 45.4806 34.5908 42.8245 39.1833 38.0021C43.5777 33.3866 45.9951 27.1849 45.8748 20.8913C47.5406 19.466 49.5 16.7444 49.5 14.0919C49.5 13.0751 48.3965 12.4296 47.5017 12.9477C45.9367 13.8673 44.5096 14.1078 43.0419 13.6958C40.0445 10.7744 35.5829 10.159 31.8233 12.1856C28.5377 13.9539 26.7109 17.1901 26.8754 20.7268C21.3245 20.0495 16.1962 17.2661 12.6205 12.9407C12.0334 12.2351 10.9193 12.3182 10.4525 13.1175C8.73009 16.0672 8.74777 19.4854 10.2456 22.2459C9.53293 22.3714 9.0926 22.9709 9.0926 23.6199C9.0926 26.3945 10.3411 28.9445 12.3517 30.6846C11.9768 31.0453 11.853 31.5811 12.0122 32.0586C12.8964 34.7147 14.8982 36.7908 17.4004 37.8306C14.6789 39.1303 11.6691 39.5636 8.99004 39.2346C7.60363 39.0472 6.91927 40.9111 8.11646 41.6697ZM21.7029 38.285C22.695 37.5229 22.168 35.9349 20.923 35.9083C18.7303 35.8624 16.7338 34.7819 15.4906 33.0825C16.0901 33.0436 16.7108 32.9516 17.3014 32.7925C18.6471 32.4282 18.5835 30.4865 17.2165 30.2124C14.7355 29.7137 12.7885 27.9064 12.0582 25.5792C12.7248 25.7437 13.4039 25.8357 14.0812 25.848C15.4234 25.8551 15.9309 24.1345 14.8363 23.4148C12.3694 21.7896 11.3172 18.9195 12.014 16.221C16.3217 20.5854 22.1662 23.2149 28.3485 23.512C29.2344 23.5668 29.8993 22.7339 29.7048 21.8904C28.8648 18.2493 30.8985 15.6976 33.0824 14.5216C35.2434 13.3545 38.7129 12.9902 41.3725 15.7807C42.163 16.6136 44.8297 16.6454 46.1861 16.3289C45.5777 17.4748 44.6423 18.5623 43.7669 19.1742C43.3938 19.4359 43.1798 19.8709 43.2028 20.3254C43.4875 26.1345 41.323 31.91 37.2646 36.1701C33.1761 40.4619 27.5226 42.8262 21.3421 42.8262C18.8841 42.8262 16.4738 42.4266 14.1961 41.6556C16.9194 41.1286 19.5066 39.9756 21.7029 38.285Z" fill="#FFF"/>
</svg>
