<svg width="57" height="56" viewBox="0 0 57 56" fill="none" xmlns="http://www.w3.org/2000/svg">
<path d="M45.8086 21.9297H44.5781V10.6914C44.5781 8.65596 42.9222 7 40.8867 7H11.1914C9.15596 7 7.5 8.65596 7.5 10.6914V33.0039C7.5 35.0393 9.15596 36.6953 11.1914 36.6953H22.2656V39.1562H18.5742C17.8947 39.1562 17.3438 39.7072 17.3438 40.3867C17.3438 41.0663 17.8947 41.6172 18.5742 41.6172C18.9553 41.6172 31.9156 41.6172 32.2734 41.6172V45.3086C32.2734 47.344 33.9294 49 35.9648 49H45.8086C47.844 49 49.5 47.344 49.5 45.3086V25.6211C49.5 23.5857 47.844 21.9297 45.8086 21.9297ZM27.3516 39.1562H24.7266V36.6953H27.3516V39.1562ZM32.2734 39.1562H29.8125V36.6953H32.2734V39.1562ZM32.2734 34.2344C31.3503 34.2344 11.8689 34.2344 11.1914 34.2344C10.5129 34.2344 9.96094 33.6824 9.96094 33.0039V31.7734H32.2734V34.2344ZM32.2734 25.6211V29.3125H9.96094V10.6914C9.96094 10.0129 10.5129 9.46094 11.1914 9.46094H40.8867C41.5652 9.46094 42.1172 10.0129 42.1172 10.6914V21.9297H35.9648C33.9294 21.9297 32.2734 23.5857 32.2734 25.6211ZM47.0391 45.3086C47.0391 45.9871 46.4871 46.5391 45.8086 46.5391H35.9648C35.2864 46.5391 34.7344 45.9871 34.7344 45.3086V44.0781H47.0391V45.3086ZM47.0391 41.6172H34.7344V29.3125H47.0391V41.6172ZM47.0391 26.8516H34.7344V25.6211C34.7344 24.9426 35.2864 24.3906 35.9648 24.3906H45.8086C46.4871 24.3906 47.0391 24.9426 47.0391 25.6211V26.8516Z" fill="#FFF"/>
</svg>
