<svg width="57" height="56" viewBox="0 0 57 56" fill="none" xmlns="http://www.w3.org/2000/svg">
<g clip-path="url(#clip0_5114_15303)">
<path d="M50.9588 7H5.51266C2.84049 7 0.666504 9.17398 0.666504 11.8462V44.1538C0.666504 46.826 2.84049 49 5.51266 49H50.9588C53.631 49 55.805 46.826 55.805 44.1538V11.8462C55.805 9.17398 53.631 7 50.9588 7ZM52.5742 44.1538C52.5742 45.0446 51.8495 45.7692 50.9588 45.7692H5.51266C4.62193 45.7692 3.89727 45.0446 3.89727 44.1538V11.8462C3.89727 10.9554 4.62193 10.2308 5.51266 10.2308H50.9588C51.8495 10.2308 52.5742 10.9554 52.5742 11.8462V44.1538Z" fill="#FFF"/>
<path d="M21.7742 13.4615C13.7534 13.4615 7.12804 19.969 7.12804 28C7.12804 36.02 13.7432 42.5385 21.7742 42.5385C29.789 42.5385 36.3127 36.0152 36.3127 28C36.3127 19.9835 29.7907 13.4615 21.7742 13.4615ZM21.7742 39.3077C19.1318 39.3077 16.6964 38.4134 14.7597 36.9149C16.1842 34.4131 18.8337 32.8462 21.7742 32.8462C24.7007 32.8462 27.339 34.398 28.7684 36.879C26.8425 38.3992 24.4125 39.3077 21.7742 39.3077ZM18.5434 26.3846C18.5434 24.6032 19.9928 23.1538 21.7742 23.1538C23.5556 23.1538 25.005 24.6032 25.005 26.3846C25.005 28.1661 23.5556 29.6154 21.7742 29.6154C19.9928 29.6154 18.5434 28.1661 18.5434 26.3846ZM31.0544 34.4529C29.9151 32.8121 28.3725 31.5195 26.5919 30.6846C27.6133 29.5414 28.2357 28.0346 28.2357 26.3846C28.2357 22.8217 25.3371 19.9231 21.7742 19.9231C18.2113 19.9231 15.3127 22.8217 15.3127 26.3846C15.3127 28.0346 15.9351 29.5414 16.9566 30.6846C15.153 31.5303 13.5943 32.8463 12.4508 34.5174C11.1338 32.6741 10.3588 30.4251 10.3588 28C10.3588 21.7649 15.4797 16.6923 21.7742 16.6923C28.0093 16.6923 33.0819 21.7649 33.0819 28C33.0819 30.397 32.3316 32.6217 31.0544 34.4529Z" fill="#FFF"/>
<path d="M47.728 16.6923H41.1588C40.2667 16.6923 39.5434 17.4156 39.5434 18.3077C39.5434 19.1998 40.2667 19.9231 41.1588 19.9231H47.728C48.6202 19.9231 49.3434 19.1998 49.3434 18.3077C49.3434 17.4156 48.6202 16.6923 47.728 16.6923Z" fill="#FFF"/>
<path d="M47.728 23.1538H41.1588C40.2667 23.1538 39.5434 23.8771 39.5434 24.7692C39.5434 25.6614 40.2667 26.3846 41.1588 26.3846H47.728C48.6202 26.3846 49.3434 25.6614 49.3434 24.7692C49.3434 23.8771 48.6202 23.1538 47.728 23.1538Z" fill="#FFF"/>
<path d="M47.728 29.6154H41.1588C40.2667 29.6154 39.5434 30.3386 39.5434 31.2308C39.5434 32.1229 40.2667 32.8462 41.1588 32.8462H47.728C48.6202 32.8462 49.3434 32.1229 49.3434 31.2308C49.3434 30.3386 48.6202 29.6154 47.728 29.6154Z" fill="#FFF"/>
<path d="M47.728 36.0769H41.1588C40.2667 36.0769 39.5434 36.8002 39.5434 37.6923C39.5434 38.5844 40.2667 39.3077 41.1588 39.3077H47.728C48.6202 39.3077 49.3434 38.5844 49.3434 37.6923C49.3434 36.8002 48.6202 36.0769 47.728 36.0769Z" fill="#FFF"/>
</g>
<defs>
<clipPath id="clip0_5114_15303">
<rect width="56" height="56" fill="white" transform="translate(0.666504)"/>
</clipPath>
</defs>
</svg>
