<svg width="57" height="56" viewBox="0 0 57 56" fill="none" xmlns="http://www.w3.org/2000/svg">
<path d="M44.4879 7H23.0253C18.9572 7 15.6476 10.3096 15.6476 14.3778V18.1476H11.8778C7.80967 18.1476 4.5 21.4572 4.5 25.5253V47.6123C4.5 48.1736 4.83813 48.6795 5.35665 48.8944C5.52835 48.9655 5.70866 49 5.88739 49C6.24855 49 6.60352 48.8591 6.86893 48.5935L12.0363 43.4262H33.3403C37.4085 43.4262 40.7181 40.1166 40.7181 36.0485V32.2786H44.3294L49.4967 37.4459C49.7621 37.7114 50.1171 37.8525 50.4782 37.8524C50.657 37.8524 50.8373 37.8179 51.0089 37.7468C51.5274 37.532 51.8655 37.026 51.8655 36.4648V14.3778C51.8656 10.3096 48.5561 7 44.4879 7ZM49.0903 33.1147L45.8854 29.9097C45.6251 29.6495 45.2722 29.5032 44.9042 29.5032H23.0253C20.4876 29.5032 18.4229 27.4386 18.4229 24.9008V14.3778C18.4229 11.8399 20.4876 9.77533 23.0253 9.77533H44.4879C47.0257 9.77533 49.0903 11.8399 49.0903 14.3778V33.1147ZM37.9427 36.0485C37.9427 38.5863 35.8782 40.6509 33.3403 40.6509H11.4615C11.0934 40.6509 10.7405 40.7971 10.4803 41.0574L7.27533 44.2622V25.5253C7.27533 22.9875 9.33999 20.9229 11.8778 20.9229H15.6476V24.9009C15.6476 28.9691 18.9572 32.2786 23.0253 32.2786H37.9427V36.0485Z" fill="#FFF"/>
<path d="M26.7836 19.5352C26.7499 18.7834 26.1738 18.1476 25.3959 18.1476C24.6701 18.1476 23.9747 18.7858 24.0083 19.5352C24.0419 20.2871 24.618 20.9229 25.3959 20.9229C26.1218 20.9229 26.8172 20.2847 26.7836 19.5352Z" fill="#FFF"/>
<path d="M32.3689 19.5352C32.4026 20.2871 32.9787 20.9229 33.7566 20.9229C34.4824 20.9229 35.1779 20.2847 35.1443 19.5352C35.1106 18.7834 34.5345 18.1476 33.7566 18.1476C33.0308 18.1476 32.3354 18.7858 32.3689 19.5352Z" fill="#FFF"/>
<path d="M42.1173 18.1476C41.3914 18.1476 40.696 18.7858 40.7296 19.5352C40.7633 20.2871 41.3394 20.9229 42.1173 20.9229C42.8431 20.9229 43.5385 20.2847 43.505 19.5352C43.4713 18.7834 42.8952 18.1476 42.1173 18.1476Z" fill="#FFF"/>
</svg>
