<svg width="57" height="56" viewBox="0 0 57 56" fill="none" xmlns="http://www.w3.org/2000/svg">
<path d="M28.5 7C16.894 7 7.5 16.3923 7.5 28C7.5 33.5177 9.68367 38.8137 13.5331 42.7285L9.19247 46.8803C8.3925 47.6456 8.93587 49 10.043 49H28.5548C28.5704 49 28.5859 48.9997 28.6014 48.9991C40.1205 48.9449 49.5 39.6092 49.5 28C49.5 16.394 40.1077 7 28.5 7ZM28.5513 46.5383C28.5384 46.5384 28.5255 46.5387 28.5126 46.5391H13.1095L16.1641 43.6172C16.6817 43.1222 16.6688 42.2898 16.1347 41.8115C12.2112 38.2964 9.96094 33.2622 9.96094 28C9.96094 17.7775 18.2775 9.46094 28.5 9.46094C38.7225 9.46094 47.0391 17.7775 47.0391 28C47.0391 38.1944 38.7455 46.5107 28.5513 46.5383Z" fill="#FFF"/>
<path d="M39.9347 19.7472L34.6523 25.0294V20.6172C34.6523 19.9376 34.1014 19.3867 33.4219 19.3867H16.1953C15.5158 19.3867 14.9648 19.9376 14.9648 20.6172V35.3828C14.9648 36.0624 15.5158 36.6133 16.1953 36.6133H33.4219C34.1014 36.6133 34.6523 36.0624 34.6523 35.3828V30.9706L39.9347 36.2529C40.7035 37.022 42.0352 36.4804 42.0352 35.3828V20.6172C42.0352 19.5204 40.7062 18.9754 39.9347 19.7472ZM17.4258 34.1523V21.8477H32.1914V34.1523H17.4258ZM39.5742 32.4122L35.162 28L39.5742 23.5878V32.4122Z" fill="#FFF"/>
<path d="M28.582 26.7695C29.2616 26.7695 29.8125 26.2186 29.8125 25.5391C29.8125 24.8595 29.2616 24.3086 28.582 24.3086C27.9025 24.3086 27.3516 24.8595 27.3516 25.5391C27.3516 26.2186 27.9025 26.7695 28.582 26.7695Z" fill="#FFF"/>
</svg>
