<svg width="57" height="56" viewBox="0 0 57 56" fill="none" xmlns="http://www.w3.org/2000/svg">
<path fill-rule="evenodd" clip-rule="evenodd" d="M7.5 37.9258C7.5 38.6054 8.0509 39.1562 8.73047 39.1562H48.1055C48.785 39.1562 49.3359 38.6054 49.3359 37.9258V10.6914C49.3359 8.65274 47.6832 7 45.6445 7H11.1914C9.15274 7 7.5 8.65274 7.5 10.6914V37.9258ZM9.96094 36.6953V10.6914C9.96094 10.0119 10.5119 9.46094 11.1914 9.46094H45.6445C46.3241 9.46094 46.875 10.0119 46.875 10.6914V36.6953H9.96094Z" fill="#FFF"/>
<path fill-rule="evenodd" clip-rule="evenodd" d="M11.1914 46.5391C10.5119 46.5391 9.96094 45.9881 9.96094 45.3086V39.1562H46.875V45.3086C46.875 45.9881 46.3241 46.5391 45.6445 46.5391H11.1914ZM7.5 45.3086C7.5 47.3473 9.15274 49 11.1914 49H45.6445C47.6832 49 49.3359 47.3473 49.3359 45.3086V37.9258C49.3359 37.2462 48.785 36.6953 48.1055 36.6953H8.73047C8.0509 36.6953 7.5 37.2462 7.5 37.9258V45.3086Z" fill="#FFF"/>
<path fill-rule="evenodd" clip-rule="evenodd" d="M12.4219 42.8477C12.4219 43.5272 12.9728 44.0781 13.6523 44.0781H33.3398C34.0194 44.0781 34.5703 43.5272 34.5703 42.8477C34.5703 42.1681 34.0194 41.6172 33.3398 41.6172H13.6523C12.9728 41.6172 12.4219 42.1681 12.4219 42.8477Z" fill="#FFF"/>
<path d="M39.4922 42.8477C39.4922 43.5272 38.9413 44.0781 38.2617 44.0781C37.5822 44.0781 37.0313 43.5272 37.0313 42.8477C37.0313 42.1681 37.5822 41.6172 38.2617 41.6172C38.9413 41.6172 39.4922 42.1681 39.4922 42.8477Z" fill="#FFF"/>
<path d="M44.4141 42.8477C44.4141 43.5272 43.8631 44.0781 43.1836 44.0781C42.5041 44.0781 41.9531 43.5272 41.9531 42.8477C41.9531 42.1681 42.5041 41.6172 43.1836 41.6172C43.8631 41.6172 44.4141 42.1681 44.4141 42.8477Z" fill="#FFF"/>
<path fill-rule="evenodd" clip-rule="evenodd" d="M17.3438 23.0781C17.3438 29.1942 22.3019 34.1523 28.418 34.1523C34.5341 34.1523 39.4922 29.1942 39.4922 23.0781C39.4922 16.962 34.5341 12.0039 28.418 12.0039C22.3019 12.0039 17.3438 16.962 17.3438 23.0781ZM28.418 31.6914C23.661 31.6914 19.8047 27.8351 19.8047 23.0781C19.8047 18.3212 23.661 14.4648 28.418 14.4648C33.1749 14.4648 37.0313 18.3212 37.0313 23.0781C37.0313 27.8351 33.1749 31.6914 28.418 31.6914Z" fill="#FFF"/>
<path fill-rule="evenodd" clip-rule="evenodd" d="M25.3605 28.2559C25.7518 28.4727 26.2299 28.4602 26.6092 28.2231L33.1717 24.1216C33.5314 23.8967 33.75 23.5024 33.75 23.0781C33.75 22.6539 33.5314 22.2595 33.1717 22.0347L26.6092 17.9331C26.2299 17.6961 25.7518 17.6835 25.3605 17.9003C24.9693 18.1172 24.7266 18.5293 24.7266 18.9766V27.1797C24.7266 27.627 24.9693 28.0391 25.3605 28.2559ZM27.1875 24.9596V21.1966L30.1979 23.0781L27.1875 24.9596Z" fill="#FFF"/>
</svg>
