<svg width="24" height="22" viewBox="0 0 24 22" fill="none" xmlns="http://www.w3.org/2000/svg">
<path d="M22.456 0.412109H1.54392C0.692625 0.412109 0 1.10469 0 1.95608V15.8076C0 16.659 0.692625 17.3516 1.54392 17.3516H8.80997L7.86661 20.1816H6.35156C5.96325 20.1816 5.64844 20.4965 5.64844 20.8848C5.64844 21.2731 5.96325 21.5879 6.35156 21.5879H17.6484C18.0368 21.5879 18.3516 21.2731 18.3516 20.8848C18.3516 20.4965 18.0368 20.1816 17.6484 20.1816H16.1333L15.19 17.3516H22.456C23.3074 17.3516 24 16.659 24 15.8076V1.95603C24 1.10469 23.3074 0.412109 22.456 0.412109ZM1.54392 1.81836H22.456C22.532 1.81836 22.5938 1.88009 22.5938 1.95608V13.1211H1.40625V1.95608C1.40625 1.88009 1.46803 1.81836 1.54392 1.81836ZM14.651 20.1816H9.34898L10.2923 17.3516H13.7077L14.651 20.1816ZM22.456 15.9453H1.54392C1.46798 15.9453 1.40625 15.8836 1.40625 15.8076V14.5273H22.5938V15.8076C22.5938 15.8836 22.532 15.9453 22.456 15.9453Z" fill="#FFF"/>
<path d="M7.74159 9.91039C7.87884 10.0474 8.05856 10.1158 8.23828 10.1158C8.41847 10.1158 8.59861 10.047 8.736 9.90941C9.01031 9.63453 9.00984 9.18936 8.73497 8.91505L7.347 7.52989L8.73497 6.14473C9.00984 5.87042 9.01031 5.42525 8.736 5.15037C8.46169 4.87545 8.01647 4.87508 7.74164 5.14939L5.85492 7.03222C5.72273 7.16408 5.64848 7.34319 5.64848 7.52989C5.64848 7.71659 5.72273 7.8957 5.85492 8.02756L7.74159 9.91039Z" fill="#FFF"/>
<path d="M15.264 9.90936C15.4013 10.047 15.5815 10.1158 15.7617 10.1158C15.9414 10.1158 16.1212 10.0473 16.2584 9.91034L18.1451 8.02752C18.2773 7.89566 18.3516 7.71655 18.3516 7.52984C18.3516 7.34314 18.2773 7.16403 18.1451 7.03217L16.2584 5.14934C15.9835 4.87503 15.5384 4.87545 15.264 5.15033C14.9897 5.4252 14.9902 5.87037 15.2651 6.14469L16.653 7.52984L15.2651 8.915C14.9902 9.18931 14.9897 9.63448 15.264 9.90936Z" fill="#FFF"/>
<path d="M10.7441 10.0416C10.845 10.0921 10.9523 10.116 11.058 10.116C11.3159 10.116 11.5642 9.97353 11.6874 9.72716L13.5703 5.9615C13.7439 5.6142 13.6031 5.19181 13.2558 5.01819C12.9085 4.84442 12.4862 4.98533 12.3125 5.33262L10.4297 9.09828C10.256 9.44558 10.3968 9.86797 10.7441 10.0416Z" fill="#FFF"/>
</svg>
