<svg width="30" height="30" viewBox="0 0 30 30" fill="none" xmlns="http://www.w3.org/2000/svg">
<path d="M16 1.5625C16 1.2144 15.8617 0.880564 15.6156 0.634423C15.3694 0.388281 15.0356 0.25 14.6875 0.25C14.3394 0.25 14.0056 0.388281 13.7594 0.634423C13.5133 0.880564 13.375 1.2144 13.375 1.5625V13.375H1.5625C1.2144 13.375 0.880564 13.5133 0.634423 13.7594C0.388281 14.0056 0.25 14.3394 0.25 14.6875C0.25 15.0356 0.388281 15.3694 0.634423 15.6156C0.880564 15.8617 1.2144 16 1.5625 16H13.375V27.8125C13.375 28.1606 13.5133 28.4944 13.7594 28.7406C14.0056 28.9867 14.3394 29.125 14.6875 29.125C15.0356 29.125 15.3694 28.9867 15.6156 28.7406C15.8617 28.4944 16 28.1606 16 27.8125V16H27.8125C28.1606 16 28.4944 15.8617 28.7406 15.6156C28.9867 15.3694 29.125 15.0356 29.125 14.6875C29.125 14.3394 28.9867 14.0056 28.7406 13.7594C28.4944 13.5133 28.1606 13.375 27.8125 13.375H16V1.5625Z" fill="black"/>
</svg>
